<svg xmlns="http://www.w3.org/2000/svg" width="1200" height="1200" viewBox="0 0 1200 1200">
  <defs>
    <style>
      .cls-1, .cls-2, .cls-3, .cls-4, .cls-5, .cls-6, .cls-7, .cls-8, .cls-9 {
        fill: #79d4ff;
        fill-rule: evenodd;
      }

      .cls-1, .cls-2, .cls-3, .cls-4, .cls-5, .cls-6, .cls-8, .cls-9 {
        stroke: #363636;
      }

      .cls-1 {
        stroke-width: 0.66px;
      }

      .cls-2 {
        stroke-width: 0.51px;
      }

      .cls-3 {
        stroke-width: 0.88px;
      }

      .cls-4 {
        stroke-width: 0.95px;
      }

      .cls-5 {
        stroke-width: 0.73px;
      }

      .cls-6 {
        stroke-width: 0.81px;
      }

      .cls-7 {
        stroke: #111;
        stroke-width: 1px;
      }

      .cls-8 {
        stroke-width: 0.59px;
      }

      .cls-9 {
        stroke-width: 0.29px;
      }

      .cls-10 {
        font-size: 41.248px;
      }

      .cls-10, .cls-11, .cls-12, .cls-13, .cls-14, .cls-15, .cls-16, .cls-17, .cls-18, .cls-19, .cls-20, .cls-21, .cls-22, .cls-23, .cls-24, .cls-25, .cls-26, .cls-27, .cls-28, .cls-29, .cls-30, .cls-31 {
        font-family: "Microsoft New Tai Lue";
        text-transform: uppercase;
      }

      .cls-11 {
        font-size: 50.192px;
      }

      .cls-12 {
        font-size: 61.01px;
      }

      .cls-13 {
        font-size: 51.387px;
      }

      .cls-14 {
        font-size: 76.518px;
      }

      .cls-15 {
        font-size: 56.32px;
      }

      .cls-16 {
        font-size: 41.606px;
      }

      .cls-17 {
        font-size: 38.88px;
      }

      .cls-18 {
        font-size: 47.843px;
      }

      .cls-19 {
        font-size: 56.85px;
      }

      .cls-20 {
        font-size: 47.178px;
      }

      .cls-21 {
        font-size: 60.482px;
      }

      .cls-22 {
        font-size: 39.919px;
      }

      .cls-23 {
        font-size: 46.931px;
      }

      .cls-24 {
        font-size: 56.373px;
      }

      .cls-25 {
        font-size: 57.411px;
      }

      .cls-26 {
        font-size: 52.743px;
      }

      .cls-27 {
        font-size: 59.896px;
      }

      .cls-28 {
        font-size: 78.675px;
      }

      .cls-29 {
        font-size: 50.766px;
      }

      .cls-30 {
        font-size: 77.373px;
      }

      .cls-31 {
        font-size: 73.463px;
      }
    </style>
  </defs>
  <path id="DUMRA" class="cls-1" d="M379.125,203.337c25.68-7.947,51.381-8.376,66.922-27.613,4.6,0,19.12-5.366,19.12-9.2,37.284,0,78.025-10.519,118.973-10.519,6.9,8.547,22.19,23.669,35.055,23.669,0,11.417,15.733,31.31,23.369,40.762q3.719,44.045,7.436,88.1l-10.623,15.779L633,341.4q-0.531,22.351-1.062,44.707h-13.81c-4.622,0-18.058-9.69-18.058-13.149-23.77,0-50.978-26.3-78.607-26.3l-39.3,9.2C469.405,371.66,435.267,394,420.553,394v-3.945q-0.533-1.314-1.063-2.63c-3.666-4.537,7.082-37.694,10.623-42.077,0-25.3,6.373-42.97,6.373-68.376,0-19.122-6.373-35.776-6.373-56.541-15.241,0-44.011-5.827-53.113-17.094h2.125Z"/>
  <path id="DUGNI" class="cls-2" d="M419.26,470.95c0,4.576-5.259,27.271-1.076,27.271,0,3.707,14.664,11.687,18.283,11.687,0,12.292,10.755,19.389,10.755,37.011a21.625,21.625,0,0,0-12.906,4.87l-7.528,22.4,26.886,18.5,21.51,6.818c10.141,0,16.987-5.844,23.659-5.844,0-5.982,3.227-16.832,3.227-20.453,4.986,0,26.886-20.453,26.886-20.453,22.913,0,45.432-6.818,67.754-6.818,0-12.705,20.433-10.471,20.433-19.479,3.156,0,2.151-5.735,2.151-7.792,0-14.358-3.088-24.224-12.9-33.115,0-5.688,1.222-12.529-3.227-16.557-10.986,0-35.165-16.264-44.093-24.349-23.984,0-88.692-20-106.47-3.9-6.5,0-21.509,7.421-21.509,11.687-7.118,0-12.906,16.073-12.906,22.4"/>
  <path id="BURIDIH" class="cls-2" d="M761,376.75c-11.074,0-43-7.122-43-17-8.3,0-44-14.055-44-16-15.157,0-35.176-2-47-2q-2.5-7.5-5-15v-33c9.967-9.967,8-36.848,8-51l-7-33c0-12.951-12.292-33.708-1-45l14-6h56l21-8,4-3,45,2c4.191-4.191,24.251-8.25,31-6,10.359,3.453,21.45,6,33,6,0,1.219-15.951,36.951-18,39,0,17.23.577,76-7,76,0,21.4,1.867,43.332-6,63-5.675,14.186-23.648,47-36,47Z"/>
  <path id="DUGDHA" class="cls-3" d="M387.75,370c26.037,0,38.892-6.892,54-22,4.625,0,9.836-1.836,13-5,28.092,0,89.1-31.9,112-9,4,0,18,7.289,18,10,17.92,0,31,16.813,31,34,5.773,5.773,11,21.3,11,32-19.276,0-20,40.941-20,59l-4,4c-4.266,0-11.894,1-17,1-3.338,0-9-9.227-9-13h-28c-7.521-7.521-12.561-11.561-19-18l-45,1-31,7c-14.343,14.343-21.275,27-44,27l-29-25q-3-22-6-44c9.081,0,9-28.367,9-36l6-2Z"/>
  <path id="KALIKAPUR" class="cls-4" d="M806.75,220c4.712-3.534,7.437-3,13-3,0,12.439,20.271,57,31,57q4,13,8,26c0,20.552,2.342,62-20,62l-6,11q-1.5,21.5-3,43l3,6c6.35,0,14.383,9,19,9v12l-25,2c0,4.828-5,7.548-5,15l6,5v19l-1,1-28,2-10,12c0,11.241,6,19.5,6,34-36.343,0-51.983,46-92,46-7.087,7.087-20.156,9.922-32,4l-8-13-46-1c0-24.433-8-42.768-8-66,17.832,0,14.918-1.918,24-11,6.482,0,38,.222,38-4,9.53-9.53,3-27.92,3-41,3.491-3.491,27-11.475,27-14q1-7,2-14c5.614,0,14-4.255,14-9q0.5-17.5,1-35c17.638,0,12.058-34,34-34,0-6.973,12.784-21,20-21l7-24c13.467-13.468,15-30.577,15-55l13-22v1Z"/>
  <path id="RAPCHA" class="cls-4" d="M825.9,440c21.342,0,48.943,2.8,48.943,28.554q3.191,6,6.384,11.993l17.023,6.853C941.031,502.709,944,482.93,944,541.653q-4.521,4.567-9.044,9.137c-23.28,0-42.465,15.867-63.838.571l-18.088-6.853c-8.458,0-35.643-4.02-35.643-16.561-8.56,0-31.387-8.083-31.387-15.991l1.6-26.84c2.617,0,30.323-25.152,30.323-39.4L821.643,440H825.9Z"/>
  <path id="JAGGANATHPUR" class="cls-3" d="M754.774,540.155c11.2-45.584,107.958-10.757,141.825-5.014,24.67,4.183,42.657-12.257,55.306-12.257V524l1.1,5.014q-8.213,18.1-16.428,36.211,0.274,27.016.548,54.039c-11.577,11.778-40.217,33.736-57.5,16.156q-4.107-9.749-8.214-19.5c-24.154,0-51.434,23.438-75.019-.557L776.13,604.779c-6.859,0-40.521.574-40.521-7.243-5.339,0,4.38-23.955,4.38-23.955,13.269,0,33.561-12.814,46.545-12.814q0.273-1.671.548-3.342l-2.191-2.229-2.738-1.671c0-14.1-21.56-5.222-27.927-11.7V539.04Q754.5,539.6,754.774,540.155Z"/>
  <path id="BIRBANSH" class="cls-3" d="M593.6,572.348c10.352,8.423,31.258-2.734,31.258-13.7l14.426-6.522c32.539,0,58.727,13.7,90.167,13.7C737.224,557.393,798.515,528,810,528c0,19.166-10.94,19.955-15.028,33.261q0.9,12.716,1.8,25.435l-1.8,1.956C770.856,614.817,716.09,620.105,690.38,648c-12.949,0-30.6-1.247-39.674-11.087C607.45,636.913,593,619.4,593,573Z"/>
  <path id="BANDHDIH" class="cls-1" d="M590.75,587c-17.789,0-18.665,10-37,10l-26-11v16c0,2.254,5,6.075,5,13-4.824,0-31,3.259-31,7,0,9.742-3,24.864-3,38,3.7,0,4,21.043,4,25,5.214,0,10,24.13,10,30-21.589,0-35.845,20-42,20,0,4.247-13.39,22-16,22l-17,1-11,20c0,3.971,4,3.908,4,6,9.825,9.825,7.273,24.273,16,33l2,3q0.5,9,1,18c0,2.393,1.834,5,4,5l4,2,16,2c9.947-9.947,31.615-12,47-12,0-10.441-2.06-29.94,4-36,8.66-8.66,14.09-10,28-10l5,3v4l-9,7,6,24c29.573,0,39.529-23,66-23v-4c-6.042,0-21-38.435-21-45a29.41,29.41,0,0,1,20,8c35.186,0,50.784,24,81,24,0,10.731,13.992,19,25,19,0-13.642,36.528-48,54-48,0,4.257,4.686,4,9,4l3-2c0-5.025,5-22.8,5-35,5.641-5.641,10-7.986,10-16,0-5.381-.258-25-5-25,0-5.482,3.076-19-2-19l-22-8v-4l22-10c3.072-3.072,16-23.645,16-28l-3-7-20-5h-77l-45,27h-20c-9.693,0-60-32.376-60-36q-0.5-3-1-6Z"/>
  <path id="DUMRA-2" data-name="DUMRA" class="cls-5" d="M993.75,745c-4.794-6.392-14-12.566-14-20-7.789,0-42-7-42-7-17.523,17.523-27.7,19-53,19l-11-17-25-3c-6.59,6.59-27.682,19-40,19q-0.5,1-1,2c-5.715,5.715-7,41.057-7,52l13,29,29,11c0,17.286,9.861,36.861,21,48,13.064,0,57.1,11.9,68,1l27-1c6.828,0,34,2.357,34-5,3.894,0,2.314-8-1-8,0-2.672-6.7-24.7-10-28V777c2.321-2.321,15-31.893,15-34h-2c0-3.023-1.134-1.134-3-3"/>
  <path id="YASHPUR" class="cls-1" d="M747.284,656.14l7.063-.64,7.064-3.2c0-17.616,34.364-31.91,48.157-36.494l3.211-1.921,25.684-5.762L873.137,603c0,16.713,55.221,9.537,55.221,23.049l0.642,0.64c0,43.764-57.789,71.768-57.789,102.439q-4.5,6.721-8.99,13.445l-61.642,23.049L779.389,813h-3.21c-9.944-9.915,2.821-103.331,8.347-108.841,0-10.268-4.494-24.644-4.494-30.732-9.646,0-21.084-14.726-34.032-14.726V656.78l1.926-1.28Z"/>
  <path id="ITAGARH" class="cls-6" d="M820.75,789c-15.8-3.951-11.858-26-29-26q-1-2-2-4l-3-4-22-1c-11.215,11.215-45,24.393-45,44h-7c0-8.692-16.66-11-25-11-6.4,6.4-15,11.924-15,24,15.07,0,.818,69,25,69,0,3.152,2.307,10,6,10,0,2.558.339,2,3,2,10.59,0,50-1.219,50,13,1.888,0,7,.737,7,3,4.265,0,20-.684,20,5q0.5,1.5,1,3c0,11.626-3,27.922-3,38l82,1c2.677,0,8,.977,8-3,6.348-6.349,2-13.94,2-24,0-16.285,2-33.193,2-51-0.816,0-19-46.064-19-57-9.3-9.3-38-23.049-38-34Z"/>
  <path id="MURIYA" class="cls-7" d="M319,678.75c8.966,8.966,32.782,5,46,5l5-1c14.213,0,20.226-23.677,24-35q-0.5-25.5-1-51c14.872-14.872,25-73.6,25-99,3.739-3.739,2.371-6,9-6,0.93,0.93,21,19,21,19q2.5,10.5,5,21c0,14.5-3.306,40.694,7,51,13.391,0,33.786-6.786,43-16l76-27c20.1-6.7,31.976,21,44,21,0,6.365-1,15.756-1,22-0.817,0-48.073,41-66,41l-22,15-7,15c0,17.655-5,37.944-5,55l-2,3c-2.489,7.468-14,19.5-14,25l-3,4c-3.147,0-30,32.233-30,35-11.838,11.838-47.553,29-61,29-18.888,18.888-79.911,24.089-101,3v-27c8.584-8.584,22-27.634,22-39l-16-16q-0.5-14-1-28,2.5-7,5-14c-2.55,0-2-.64-2-3v-2Z"/>
  <path id="JAIKAN" class="cls-8" d="M877,960.75l-15-8q-0.5-4.5-1-9c15.839-15.839,5-25.417,5-47l10-20,26-10c13.345,0,84-13.643,84,10,8.834,0,15.72,7.45,20,16q2.5,31,5,62c-5.73,0-9.7,13.8-16,18-12.465,8.31-56.477,25-71,25-8.5-5.669-49-34.33-49-35v-5Z"/>
  <path id="NUWAGARH" class="cls-2" d="M628,859.75c15.485-7.742,31.982-28.006,53-21,11.95,3.983,45,29.361,45,42l58,9,9,5c4.623,9.247,29.044,39.956,12,57,0,4.428-19.05,7-23,7l-12,6c-22.158,22.158-64.959-1-89-1,0-13.858-14.118-38-29-38,0-1.36-6.678-9-9-9l-6-11c0-17.074-9-32.322-9-45v-1Z"/>
  <path id="DUGNI-2" data-name="DUGNI" class="cls-9" d="M371.75,664c-14.677-3.669-69.276-22.086-82-3l-6,4-10,3c-15.409,0-30.44-11-33-11-5.563,0-15,25.723-15,33,3.415,3.415,20,13.663,20,18,2.881,0,.623,10.377-1,12l-2,1c-17.89,0-28.983-10-39-10,0,5.812-5,11.155-5,19,6.938,6.938,11,6.655,11,18q-9.5,27.5-19,55l10,16c28.869,0,11,65.17,11,84l1,1c11.024,0,21.037-5,31-5,0,6.162,2,15.053,2,19,10.181,0,31.218,5.782,39-2,0-18.441,32.325-33,48-33,4.7-9.407,17.585-29,26-29,0-19.043-8-28.083-8-45,12.508,0,20-31.707,20-45-22.283,0-14.565-76-5-76l7-23Z"/>
  <path id="TENTOPOSI" class="cls-8" d="M691.75,783c-11.821-5.911-85.415-42.585-97-31q-2.5,11-5,22h-35c-8.794,8.794-25.321,10-39,10,0,19.249-24.351,40-46,40l-21,16c0,10.64-21.51,30-32,30l-1,1c-8.64,8.64-71,75.21-71,83v3h9c7.837-7.837,30.782-14,40-14l3,3,3,2c6.916,6.916,17.981,20,27,20l4,3,73-1,29-8c0-4.889,34.648-66.648,40-72l57-12c0-21.67,31.944-33,52-33,0-14.085,13.073-31.218,17-43,2.483-7.449-5-15.676-5-20Z"/>
  <path id="KANDRA" class="cls-8" d="M627,518.75c-13.238,0-26.765-4.765-35-13,0-18.119-10.606-45.183-4-65,3.964-11.893,10.566-16.7,14-27q1-16,2-32c0.947-4.735,6.382-15,10-15,0-27.041,31.559-33.52,54-41,18.547-6.182,38.656,10,53,10l10,22,17,23c0,17.375-32.133,62-48,62l-11,12c0,17.365-13,42.92-13,53l-28,12H626Z"/>
  <path id="NARAYANPUR" class="cls-8" d="M308,932.75c0-17-12-19.872-12-37,11.211-11.211,28.9-47,43-47,0-36.141,15.465-46,50-46,6.032-6.032,40.895-8,52-8l11,6,11,19q0.5,16.5,1,33c-9.2,9.2-42,34.023-42,45l-20,5-10,8c0,30.034-33.221,87-65,87,0-4.624-28-20.7-28-30l-1-3q0.5-11.5,1-23l8-9h1Z"/>
  <path id="BARAKANKRA" class="cls-6" d="M194.75,806c-5.445,0-11.191,8-15,8l-4,9v36c9.8,9.8,6,59.767,6,75l-9,15c-19.017,0-30.26,39.259-40,49q0.5,9.5,1,19c18.446,18.45,68,21,98,21,0-10.71,8.069-28.07,16-36,4.951,0,12.621-1,18-1l11,9c0-.78,25.527-32.527,28-35l2-1c0-3.916,4.313-22,8-22q2.5-11.5,5-23c0-5.565,6.183-39,1-39,0-3.413-17.453-4-21-4-13.49,13.49-27.81,15-48,15-22.849-22.849-25.213-95-58-95h1Z"/>
  <path id="CHOTAGAMAHARIA" class="cls-8" d="M938.75,595c22.073-5.518,12.9-20,48-20,0,7.105,3,15.218,3,20,11.41,0,30.8,6.8,37,13q0.495,43.5,1,87-3.495,14.5-7,29c-3.56,0-27,48.5-27,24l-6-10-11-3c-5.675,0-9.757,7-19,7-2.674-1.337-5-2.806-5-5,0-2.258-.559-12-3-12l-2,3c0,5.974-4.792,22-10,22l-4,2c-17.553,0-23.049,4.016-38,9-7.3,2.433-14.506-3-20-3,0-21.021-11-23.6-11-42,2.572,0,14-19.336,14-24l2-3c1.163,0,39-62.582,39-77,1.209,0,20-16.516,20-18Z"/>
  <path id="CHAMARU" class="cls-7" d="M573,637.75c-19.065,0-45.315,3.343-62-5-6.645-6.645-19.929-43-26-43v-3l12-5c0-2.78-2.74-30,1-30,0-4.249,24.658-14,30-14l18-7c0-5.747,19.646-4,24-4,21,0,31.937-19,50-19,30.726,30.726,17.782,97.218-14,129-9.255,0-23.6,2-34,2Z"/>
  <text id="DUMRA-3" data-name="DUMRA" class="cls-10" transform="translate(488 261.205) scale(0.323)">DUMRA</text>
  <text id="YASHPUR_" data-name="YASHPUR " class="cls-11" transform="translate(810.5 666.158) scale(0.266)">YASHPUR</text>
  <text id="CHAMARU-2" data-name="CHAMARU" class="cls-12" transform="translate(518 597.667) scale(0.219)">CHAMARU</text>
  <text id="BURUDIH_" data-name="BURUDIH " class="cls-13" transform="translate(672.5 260.832) scale(0.259)">BURUDIH</text>
  <text id="CHOTAGAMAHARIA_" data-name="CHOTAGAMAHARIA " class="cls-14" transform="translate(917.677 672.544) scale(0.142)">CHOTAGAMAHARIA</text>
  <text id="JAGGANATHPUR-2" data-name="JAGGANATHPUR" class="cls-15" transform="translate(799.25 579.63) scale(0.237)">JAGGANATHPUR</text>
  <text id="BANDHDIH-2" data-name="BANDHDIH" class="cls-16" transform="translate(617.25 707.058) scale(0.32)">BANDHDIH</text>
  <text id="MURIA" class="cls-17" transform="translate(414.25 658.247) scale(0.343)">MURIA</text>
  <text id="DUGNI_" data-name="DUGNI " class="cls-18" transform="translate(485.25 503.849) scale(0.279)">DUGNI</text>
  <text id="BIRBANSH_" data-name="BIRBANSH " class="cls-19" transform="translate(653.25 602.514) scale(0.235)">BIRBANSH</text>
  <text id="DUGDHA-2" data-name="DUGDHA" class="cls-20" transform="translate(460.25 401.057) scale(0.283)">DUGDHA</text>
  <text id="RAPCHA-2" data-name="RAPCHA" class="cls-21" transform="translate(817.25 496.769) scale(0.22)">RAPCHA</text>
  <text id="KANDRA-2" data-name="KANDRA" class="cls-22" transform="translate(618.5 428.275) scale(0.334)">KANDRA</text>
  <text id="JAIKAN-2" data-name="JAIKAN" class="cls-23" transform="translate(897.75 929.135) scale(0.284)">JAIKAN</text>
  <text id="DUMRA-4" data-name="DUMRA" class="cls-24" transform="translate(884.75 824.618) scale(0.237)">DUMRA</text>
  <text id="ITAGARH_" data-name="ITAGARH " class="cls-25" transform="translate(756.75 848.393) scale(0.232)">ITAGARH</text>
  <text id="KALIKAPUR-2" data-name="KALIKAPUR" class="cls-26" transform="translate(699.25 466.48) scale(0.253)">KALIKAPUR</text>
  <text id="TENTOPOSI_" data-name="TENTOPOSI " class="cls-27" transform="translate(520.75 841.883) scale(0.223)">TENTOPOSI</text>
  <text id="BARAKANKRA-2" data-name="BARAKANKRA" class="cls-28" transform="translate(203.417 952.073) scale(0.169)">BARAKANKRA</text>
  <text id="DUGNI_2" data-name="DUGNI " class="cls-29" transform="translate(268.916 767.422) scale(0.263)">DUGNI</text>
  <text id="NARAYANPUR-2" data-name="NARAYANPUR" class="cls-30" transform="translate(357.917 851.224) scale(0.172)">NARAYANPUR</text>
  <text id="NUWAGARH-2" data-name="NUWAGARH" class="cls-31" transform="translate(713 916.896) scale(0.181)">NUWAGARH</text>
</svg>
