<svg xmlns="http://www.w3.org/2000/svg" width="1200" height="1200" viewBox="0 0 1200 1200">
  <defs>
    <style>
      .cls-1 {
        fill: #fff8ae;
        stroke: #ecbc2b;
        stroke-width: 2px;
        fill-rule: evenodd;
      }

      .cls-2 {
        font-size: 28.162px;
      }

      .cls-10, .cls-11, .cls-12, .cls-13, .cls-2, .cls-3, .cls-4, .cls-5, .cls-6, .cls-7, .cls-8, .cls-9 {
        font-family: "Microsoft New Tai Lue";
        text-transform: uppercase;
      }

      .cls-3 {
        font-size: 27.655px;
      }

      .cls-4 {
        font-size: 28.839px;
      }

      .cls-5 {
        font-size: 30.189px;
      }

      .cls-6 {
        font-size: 29.436px;
      }

      .cls-7 {
        font-size: 31.054px;
      }

      .cls-8 {
        font-size: 33.546px;
      }

      .cls-9 {
        font-size: 32.458px;
      }

      .cls-10 {
        font-size: 33.631px;
      }

      .cls-11 {
        font-size: 31.019px;
      }

      .cls-12 {
        font-size: 21.115px;
      }

      .cls-13 {
        font-size: 26.563px;
      }
    </style>
  </defs>
  <path id="PATKUM" class="cls-1" d="M756,669.75q-0.5-9.5-1-19c24.659-24.659,61.381-26.845,98-36,19-4.751,36.447-27,46-27l5-3c63.029,0,55,44.728,55,92-48.971,0-155.1,84.9-202,38v-46Z"/>
  <path id="TIKAR" class="cls-1" d="M492.75,859c0,14.448,3,31.008,3,48l8,8h52c21.945-7.315,48.336-18,79-18,5.96-5.96,23.128-7,33-7l2-2,38-8c4.387-4.387,74.723-30,83-30q0.5-3.5,1-7c-12.134,0-16-12.615-16-24-28.192-28.192,11-75.756,11-118l-6-7c-8.67,0-23.779,3.779-29,9h-43c-6.951,6.951-22,18.724-22,31l-12,6c-8.465,8.464-13.628,17.628-22,26v1l-27,1c0-7.084-16.626-15-26-15l-4,2-2,3c0,7.348,4,13.96,4,25-3.154,0-7,28.525-7,35h-18c-11.766-5.883-41.661-18-52-18-21.7,0-26,42.181-26,62Z"/>
  <path id="MAISDA" class="cls-1" d="M906,603.75c-18.669,9.334-32.954,13.954-46,27-26.526,0-61.769,16.442-88,23-12.8,3.2-25.972-6-35-6,0-9.541-6.759-23.723-3-35,6.988-20.965,21-26.023,21-49l5-7c15.376,0,37.467-37.489,54-43l5-3,20,2,17,15c0,6.656,24,30,31,30,0,18.763,21,30.375,21,46l-3,1Z"/>
  <path id="TIRULDIH-2" class="cls-1" d="M245,614.75c-3.027,0-15,1.606-15-3-15.282,0-15-31.133-15-42l2-3,23-15c0-6.353,6.039-70.039,7-71,16.534-16.534,28.012-37.012,43-52,22.842,0,44.755-12,69-12,19.221,19.221,63.267,25,90,25l42,25c0,22.7,15,43.6,15,68-27.906,27.906-22.916,77.187-52,99l-9,10c-11.924,0-30.428,6.572-40-3v-2q-0.5-14-1-28h-1l-14,17c-11.142,18.57-13.438,32.438-29,48l-4,3c-10.054,0-20.661-2-30-2-22.567-22.567-59.182-33.182-80-54q-0.5-3.5-1-7v-1Z"/>
  <path id="SODO" class="cls-1" d="M869.75,543c-8.965-11.953-14.787-51-31-51l-16-22c0-5.4-16.48-26-18-26,0-10.535-28.857-61-29-61q-7-29.5-14-59l-3-2c0-10.56-21.154-16.154-27-22-9.25,0-53.727-24.727-60-31l-26,2c0,0.914-20.542,19-24,19,0,17.275-29,31.156-29,49-9.336,0-15.429,7.429-21,13l-35,7c-11.975,0-26.829-3-36-3l-7-2c-5.033,0-13.442-1.558-17,2q-1,5.5-2,11c8.122,8.122,24.19,20,35,20,0,11.1,25.742,27,38,27,0,10.052,8.238,14.238,14,20h18l6-10c0,6.5,3,13.7,3,18,10.835,0,22.488,10,35,10,0,9.078,14,17.841,14,23,10.707,0,38,3.82,38,13,7.87,0,25-2.2,25,6h43c0,9.668,39.907,28,52,28l11,14,15,4c8.283,0,47,12.481,47,3l2-1Z"/>
  <path id="CHIMITIYA" class="cls-1" d="M508,595.75c-14.321-19.1-17-39.77-17-65l-17-30c-25.218-25.218-26-54.17-26-90,20.028-10.014,25.825-51,35-51,5.22-5.22,17.576,2.05,22,5,28.5,19,22.866,19.716,56,28l24,5c0,8.179,52,28.743,52,48,31.845,0,76.372,31.372,96,51,0,17.019,1.466,32.672-2,50-2.2,11.006,1.484,21.032-3,30-34.473,34.473-82.866,36-134,36l-24,5c-19.141,0-61-1.629-61-21Z"/>
  <path id="LEPATAND" class="cls-1" d="M433.75,759h-18c0-14.954-3.363-35.638,6-45q-3-19-6-38,1.5-23.5,3-47c13.127,0,16.2-18,31-18l2-3,1-1,3-12c-4.479,0-5-40.006-5-51,14.4-14.4,34.257-14,55-14,5.732,5.732,6.531,39,11,39,0,3.345,23.368,2,28,2,22.443,0,40.754,12,62,12l9,6,8,14c0,9.925,2.139,51.86-2,56q-0.5,11-1,22c-1.8,3.6.074,22-4,22,0,7.247-6.988,36-13,36-9.024,9.024-33.5,7-46,7l-73,1c-4.338,4.338-44.895,13-52,13Z"/>
  <path id="TUTA" class="cls-1" d="M306,493.75c-22.8,0-23-44.23-23-62-36.9-36.9-26-91.161-26-143,6.72-6.72,16.9-47,25-47l1-2c14.027,0,83-36.069,83-41l26-19c17.222,0,28.486-11.514,44,4,2.887,0,8,3.356,8,6l1,3c0,15.667,16,25,16,51,8.105,8.1,12,30.361,12,44,4.488,0,17,25.28,17,32,14.881,14.881,18.841,66.476,11,90l-10,33-32,27-24,16c-11.281,0-56,2.467-56,12-24.526,0-48.2-4-72-4h-1Z"/>
  <path id="GUDRI" class="cls-1" d="M592,716.75c-10.616,21.232,3,40.479,3,60,20.83,0,44.7,10.767,68,3,5.091-1.7,34-26.265,34-29,19.048,0,42-16.545,42-36l24-15,4-11c0-22.939-6-35.26-6-58,25.647-25.647,43-78.422,43-115-8.993-8.993-30.782-18-48-18-7.279-7.279-18.5-14-31-14-18.983,9.491-44,40.634-44,62l-17,20c-10.556,5.278-33.092,35-43,35l-12,19-13,43v51l-5,3h1Z"/>
  <path id="DEWALTAND" class="cls-1" d="M223,600.75c-32.279,25.823-5,37.7-5,66l-41,84,1,1,10,1c5.347,0,6.4-8,15-8q2,11.5,4,23c22.615,0,21.18,49,32,49h27l8,6c8.79,26.369,49.707,33.146,76,20l11-14c0-14.058,6.406-23.406,16-33l16-10,19-10c0-5.139,20.084-28,22-28,0-25.433,5-49.575,5-76,0-4.317.96-24-4-24l-12-23c0-14.5-12-22-27-22-35.553,35.553-89.864,10-137,10l-35-12h-1Z"/>
  <path id="SITU" class="cls-1" d="M554.75,87c-14.094,0-35,8.517-35,23l-15,8c-37.6,0-73.688,44-91,44,0,30.88-5,67.869-5,97q0.5,2.5,1,5c0,6.815,17,17.744,17,27,12.72,0,39,3.826,39,15,7.5,0,4,47.908,4,56,14.663,0,21.492-2,37-2,6.079,6.079,53.006,10,66,10,0-14.372,11.9-24,27-24,3.132-3.132,8-15.057,8-20,17.293-8.646,26-17.249,26-37,3.355,0,15-2.321,15-6q0.5-2,1-4c0-12.455,4-22.729,4-36l-2-3c-9.368,0-40.621-32-45-32,0-1.036-15.152-64.152-16-65q-1.5-14-3-28c0-9.009-.368-32-9-32,0-4.977-27-4.029-27,2Z"/>
  <path id="BANDU" class="cls-1" d="M1097.75,670c-35.98,0-113.343-64.657-148-30q-1,9-2,18c5.582,0,7,10.783,7,16l11,5v7c-3.483,3.483-8.729,8-13,8,0,3.724-2.76,15,1,15l7,1c4.815-4.815,7.9-10,14-10q2.5,6.5,5,13l25,6,56-1c0,3.915,12.37,9,17,9l3-2q9.495-26.5,19-53C1099.08,671.333,1098.42,670.667,1097.75,670Z"/>
  <path id="GORANGKOCHA" class="cls-1" d="M784.75,844c-24.124-24.124-24-43.476-24-84l20-43,15-8c33.42,0,121.619-28.619,140-47,13.864,0,19.836,9,29,9,0,14.253,7.7,19.7,16,28l19,3c12.73,0,33,9,33,9,6.29,0,27,2.7,27,8,8.25,0,0,40.947,0,42-0.33,1-.67,2-1,3-8.9,8.9-35.96,18-51,18,0,5.189-18.8,24-23,24q-2.5,4.5-5,9c0,15.661,6.8,40.2-1,48l-4,1c-6.373,6.373-40.238,18-51,18-2.269,0-7,1.177-7-2-7.71,0-11.818-22.818-16-27-24.868,0-56.3-7-84-7-9.38,0-27.989,3.011-34-3Z"/>
  <path id="NADISAI" class="cls-1" d="M349,914.75c5.867-29.336,6-57.955,6-90,5.581,0,10-30.291,10-37l2-5c4.15-8.3,19-25.228,19-31l3-2c12.775,0,67.245-20.245,75-28l18-4c9.777-2.444,47.282,6.047,59,8,8.382,1.4,49-4.1,49,5,10.3,0,23,72.1,23,85,4.658,4.658,11,17.68,11,23l-2,3-28,3c0-7.831-54.512-40.488-71-24l-7,27-10,5-50,6-5,4c-7.851,0-10.478,41-19,41l-18,7c-11.485,22.97-38.563,25-66,25l-1-1c0-7.711,2-18.3,2-23v3Z"/>
  <text id="TIKAR-2" data-name="TIKAR" class="cls-2" transform="translate(638.5 846.835) scale(0.592)">TIKAR</text>
  <text id="LEPATAND_" data-name="LEPATAND " class="cls-2" transform="translate(475 656.309) scale(0.679)">LEPATAND</text>
  <text id="GUDRI-2" data-name="GUDRI" class="cls-3" transform="translate(653.5 726.712) scale(0.603)">GUDRI</text>
  <text id="MAISDA_" data-name="MAISDA " class="cls-4" transform="translate(803 605.352) scale(0.578)">MAISDA</text>
  <text id="PATKUM-2" data-name="PATKUM" class="cls-5" transform="translate(830 670.456) scale(0.552)">PATKUM</text>
  <text id="BANDU-2" data-name="BANDU" class="cls-6" transform="translate(986.5 687.946) scale(0.566)">BANDU</text>
  <text id="NADISAI-2" data-name="NADISAI" class="cls-7" transform="translate(387 820.422) scale(0.537)">NADISAI</text>
  <text id="TIRULDIH_2" class="cls-8" transform="translate(291.5 546.539) scale(0.497)">TIRULDIH_2</text>
  <text id="CHIMTIYA_" data-name="CHIMTIYA " class="cls-9" transform="translate(540.5 510.617) scale(0.513)">CHIMTIYA</text>
  <text id="DEWALTAND-2" data-name="DEWALTAND" class="cls-10" transform="translate(258 728.995) scale(0.496)">DEWALTAND</text>
  <text id="SODO_" data-name="SODO " class="cls-11" transform="translate(665 407.944) scale(0.537)">SODO</text>
  <text id="SITU-2" data-name="SITU" class="cls-12" transform="translate(499 236.19) scale(0.789)">SITU</text>
  <text id="TUTA-2" data-name="TUTA" class="cls-13" transform="translate(333 355.571) scale(0.627)">TUTA</text>
  <text id="GORANGKOCHA-2" data-name="GORANGKOCHA" class="cls-6" transform="translate(826.75 772.066) scale(0.603)">GORANGKOCHA</text>
</svg>
