<svg xmlns="http://www.w3.org/2000/svg" width="1200" height="1200" viewBox="0 0 1200 1200">
  <defs>
    <style>
      .cls-1 {
        fill: #fff8ae;
        stroke: #ecbc2b;
        stroke-width: 2px;
        fill-rule: evenodd;
      }

      .cls-2 {
        font-size: 28.162px;
      }

      .cls-10, .cls-11, .cls-12, .cls-13, .cls-2, .cls-3, .cls-4, .cls-5, .cls-6, .cls-7, .cls-8, .cls-9 {
        font-family: "Microsoft New Tai Lue";
        text-transform: uppercase;
      }

      .cls-3 {
        font-size: 27.655px;
      }

      .cls-4 {
        font-size: 28.839px;
      }

      .cls-5 {
        font-size: 30.189px;
      }

      .cls-6 {
        font-size: 29.436px;
      }

      .cls-7 {
        font-size: 31.054px;
      }

      .cls-8 {
        font-size: 33.546px;
      }

      .cls-9 {
        font-size: 32.458px;
      }

      .cls-10 {
        font-size: 33.631px;
      }

      .cls-11 {
        font-size: 31.019px;
      }

      .cls-12 {
        font-size: 21.115px;
      }

      .cls-13 {
        font-size: 26.563px;
      }
    </style>
  </defs>
  <path id="PATKUM" class="cls-1" d="M967.75,629c-12.532,0-24.007-3-33-3l-13-8c0-6.817-12.7-26-19-26l-10-1-3,3c0,3.824-11,4.46-11,14q-0.5,1-1,2c0,2.1.1,2-2,2-7.97,7.97-72.018,20-91,20v6l3,3-3,1c-5.132,5.132-29-4.38-29,6-2.542,2.542-2,4.754-2,9,20.365,0,37,50.35,37,69,4.023,0,14-3.645,14-6l15,2c0,7.474,3,18.36,3,23,8.989,0,16.706-4,24-4l6-16c6.121,0,36-1.772,36-4l-4-2c0-4.3,30-7,36-7,0-6.5,4-13.9,4-19,21.73,0,30-34.15,30-51,4.455,0,9.6-10,17-10"/>
  <path id="TIKAR" class="cls-1" d="M492.75,859c0,14.448,3,31.008,3,48l8,8h52c21.945-7.315,48.336-18,79-18,5.96-5.96,23.128-7,33-7l2-2,38-8c4.387-4.387,74.723-30,83-30q0.5-3.5,1-7c-12.134,0-16-12.615-16-24-28.192-28.192,11-75.756,11-118l-6-7c-8.67,0-23.779,3.779-29,9h-43c-6.951,6.951-22,18.724-22,31l-12,6c-8.464,8.464-13.628,17.628-22,26v1l-27,1c0-7.084-16.626-15-26-15l-4,2-2,3c0,7.348,4,13.96,4,25-3.154,0-7,28.525-7,35h-18c-11.766-5.883-41.661-18-52-18-21.7,0-26,42.181-26,62Z"/>
  <path id="MAISDA" class="cls-1" d="M903.75,592l-7-4-30-44c-6.135,0-30-.849-30-9-20.224,0-42-5.267-42-25l-20-1q0.5,1.5,1,3,0.5,2.5,1,5c0,10.723,12,16.533,12,29,0,2.953-6,10.13-6,21,3.8,0,5,1.517,5,6l-8,11c-10.16,0-45,40.034-45,52h-1q0.5,11.5,1,23c14.211,0,14.011-1.011,22-9h24l9-5v-7l87-20,3-3c7.245,0,13.676-19,19-19v-6"/>
  <path id="TIRULDIH_2" class="cls-1" d="M237.75,376c-23.012,46.025-30,103.8-30,165,0,15.859,8.049,61,18,61l7,1c11.413,0,61-1.106,61,2h1l2,2q1,5.5,2,11c28.707,0,25.29,43,55,43,3.68,3.68,2.734,7,9,7,0-3.566,12.651-17,16-17,0-16.888,1-23.45,1-40,3.191,0,8,.435,8-3,0-5.926-1.6-15.4,2-19,0-4.211,9.68-10,14-10,0,11.808,4.455,13.455,11,20,0,3.009.453,11,3,11,0,9.6-3,18.6-3,26h7l17-14c8.115,0,17.265,3,22,3,0-2.72,3.067-32,6-32,0,0,17.585-14,9-14l-21-8-1-2q0.5-8,1-16c13.918-13.918,46-15.406,46-41-6.759,0-19-24.639-19-36-5.829,0-11.872-9.872-17-15l-26-1-4,3-2,2c-7.456,7.456-11.8,16.8-18,23h-6c-5.81-5.81-8.828-13-18-13,0-10.2-10.561-39-22-39v-1c-24.387,0-53.129,4-82,4-17.213-17.213-37.685-36.685-53-52v-7"/>
  <path id="SODO" class="cls-1" d="M869.75,543c-8.965-11.953-14.787-51-31-51l-16-22c0-5.4-16.48-26-18-26,0-10.535-28.857-61-29-61q-7-29.5-14-59l-3-2c0-10.56-21.154-16.154-27-22-9.25,0-53.727-24.727-60-31l-26,2c0,0.914-20.542,19-24,19,0,17.275-29,31.156-29,49-9.336,0-15.429,7.429-21,13l-35,7c-11.975,0-26.829-3-36-3l-7-2c-5.033,0-13.442-1.558-17,2q-1,5.5-2,11c8.122,8.122,24.19,20,35,20,0,11.1,25.742,27,38,27,0,10.052,8.238,14.238,14,20h18l6-10c0,6.5,3,13.7,3,18,10.835,0,22.488,10,35,10,0,9.078,14,17.841,14,23,10.707,0,38,3.82,38,13,7.87,0,25-2.2,25,6h43c0,9.668,39.907,28,52,28l11,14,15,4c8.283,0,47,12.481,47,3l2-1Z"/>
  <path id="CHIMTIYA" class="cls-1" d="M454.75,468c-3.764-3.012-13-11.92-13-15l1-2c13.926,0,29-16.381,29-31l7-4q0.5-21.5,1-43h23c10.657,0,63.615,47,66,47l18-4c0,1.853,43.825,34,48,34,0,2.865,50.014,31,63,31l31,16c0,2.528,7.96,16,11,16,0,6.563.849,22,6,22,0,7.622-4,8.582-4,14,9.285,0,12,9.978,12,19-1.61,0-4,3.94-4,5l-28,4c0,6.247-4.915,11.915-9,16,0,15.529-9,34.155-9,50h-8l-17-29c-12.742,0-32-3.264-32-14-8,0-12.863-.863-18-6-12.861,0-19.241,6-29,6-10.013-10.013-11.067-13-27-13-7.217,0-10.236,5-19,5-7.016-7.016-11.782-14-21-14l-6,3c-4.927,4.927-5,6.888-5,14q2.5,5,5,10c0,5-2,12.187-2,15h-8l-9-9c0-19.027,5.709-70-18-70V514c-5.515,0-39-44.632-39-50"/>
  <path id="LEPATAND" class="cls-1" d="M433.75,759h-18c0-14.954-3.362-35.638,6-45q-3-19-6-38,1.5-23.5,3-47c13.127,0,16.2-18,31-18l2-3,1-1,3-12c-4.479,0-5-40.006-5-51,14.4-14.4,34.257-14,55-14,5.732,5.732,6.531,39,11,39,0,3.345,23.368,2,28,2,22.443,0,40.754,12,62,12l9,6,8,14c0,9.925,2.139,51.861-2,56q-0.5,11-1,22c-1.8,3.6.074,22-4,22,0,7.247-6.988,36-13,36-9.024,9.024-33.5,7-46,7l-73,1c-4.338,4.338-44.895,13-52,13Z"/>
  <path id="GUDRI" class="cls-1" d="M625.75,784c-12.313-3.078-27.5-11.5-36-20q-1.5-21.5-3-43c3.922-3.922,10.6-2.6,14-6,0-14.7-1.279-28.721,9-39,0-24.766,2-51.624,2-75l20-16c14.455,0,25.035,2,37,2l39-23,9-32q1-20,2-40c0-2.842.153-4,3-4,17.23-17.23,63.478,13.478,75,25,0,18.5,11.433,51.7,4,74-6.483,19.449-25.519,23.519-38,36,0,34.446,36,57.5,36,92l-12,6-57,14-16,9c0,11.419-19.9,35.635-30,39-8.956,2.985-66,10-66,0"/>
  <path id="DEWALTAND" class="cls-1" d="M221.75,606c15.828-15.828,42.567-11,69-11l22,11c0,8.032,20.452,30,28,30,0,6.879,12.5,21,18,21l3-3c0-2.957,4.958-12,8-12,0-23.962,6.023-61,33-61l14,8c0,9.256,2,21.443,2,32,9.158,0,15,33.441,15,45-5.739,0-8,5.4-8,11l3,1c2.763,2.763,6.4,2,11,2,4.638-4.638,7.3-24,15-24v7c0,12.5-12.07,29.07-18,35,0,14.6-5,29.45-5,41-6.2,0-7.634,20-16,20l-2,3c-5.753,0-21-.061-21,7-49.177,0-38.638,61.553-48,99v2l-8,21q-1,20.5-2,41c-2.18,2.18.5,4-3,4-5.709,5.709-25.477-.477-28-3-19.578,0-43.8-26.8-57-40-7.664,0-23-51.772-23-62q-0.5-3.5-1-7c0-17.438-6-31.975-6-51,0-20.223-2-45.815-2-69,16.426-16.426,12-74.035,12-99l-5-5"/>
  <path id="SITU" class="cls-1" d="M554.75,87c-14.094,0-35,8.517-35,23l-15,8c-37.6,0-73.688,44-91,44,0,30.88-5,67.869-5,97l1,5c0,6.815,17,17.744,17,27,12.72,0,39,3.826,39,15,7.5,0,4,47.908,4,56,14.663,0,21.492-2,37-2,6.079,6.079,53.006,10,66,10,0-14.372,11.9-24,27-24,3.132-3.132,8-15.057,8-20,17.293-8.646,26-17.249,26-37,3.355,0,15-2.321,15-6q0.5-2,1-4c0-12.455,4-22.729,4-36l-2-3c-9.368,0-40.621-32-45-32,0-1.036-15.152-64.152-16-65q-1.5-14-3-28c0-9.009-.368-32-9-32,0-4.977-27-4.029-27,2Z"/>
  <path id="BANDU" class="cls-1" d="M1097.75,670c-35.98,0-113.343-64.657-148-30q-1,9-2,18c5.582,0,7,10.783,7,16l11,5v7c-3.483,3.483-8.729,8-13,8,0,3.724-2.76,15,1,15l7,1c4.815-4.815,7.9-10,14-10q2.5,6.5,5,13l25,6,56-1c0,3.915,12.37,9,17,9l3-2q9.495-26.5,19-53C1099.08,671.333,1098.42,670.667,1097.75,670Z"/>
  <path id="TUTA" class="cls-1" d="M414.75,166c-11.007,0-43,17.087-43,18-31.409,0-97.292,46.292-119,68l-8,21c0,13.363,2.65,47.35-6,56v54l15,36c1.842,5.525,9.722,28,16,28,6.928,13.855,5.192,42,26,42l5-3v-9h6c0-7.76,4-16.7,4-21,1.649,0,34-15.418,34-17h22c0,27.511,38,53.087,38,76l6,9,8,3c0-43.829,4.962-48.642,37-70,8.382-5.588,14.195-4.195,21-11l9-17c0-17.954,2.026-101.974-6-110,0-10.747-2-31-14-31l-10-18q-4-10-8-20c0-22.728-15.027-88-37-88"/>
  <path id="GORANGKOCHA" class="cls-1" d="M784.75,844c-24.124-24.124-24-43.476-24-84l20-43,15-8c33.42,0,121.619-28.619,140-47,13.864,0,19.836,9,29,9,0,14.253,7.7,19.7,16,28l19,3c12.73,0,33,9,33,9,6.29,0,27,2.7,27,8,8.25,0,0,40.947,0,42-0.33,1-.67,2-1,3-8.9,8.9-35.96,18-51,18,0,5.189-18.8,24-23,24l-5,9c0,15.661,6.8,40.2-1,48l-4,1c-6.373,6.373-40.238,18-51,18-2.268,0-7,1.178-7-2-7.71,0-11.818-22.818-16-27-24.868,0-56.3-7-84-7-9.38,0-27.989,3.011-34-3Z"/>
  <path id="NADISAI" class="cls-1" d="M322.75,942c0-14.137,2.836-37.836,11-46,0-20.885-5.071-51.929,10-67,0-56.975,37.561-84,93-84,0-9.5,37.833-18,51-18v7c22.457,0,111-8.885,111,12,1.166,0,9,31.42,9,40l-3,16c-8.87,8.87-6.955,33,4,33,0,16.544-3.118,30-21,30,0-7.668-4-13.517-4-17-6.5,0-10.285-5-16-5,0-18.858-44.789-37.211-59-23-9.543,0-5.823,31.823-13,39-14.548,0-70,5.436-70,16q-1,8-2,16c2.683,0,5,8.465,5,12h-15l-21,29-34,12h-45"/>
  <text id="TIKAR-2" data-name="TIKAR" class="cls-2" transform="translate(638.5 846.835) scale(0.592)">TIKAR</text>
  <text id="LEPATAND_" data-name="LEPATAND " class="cls-2" transform="translate(475 656.309) scale(0.679)">LEPATAND</text>
  <text id="GUDRI-2" data-name="GUDRI" class="cls-3" transform="translate(653.5 726.712) scale(0.603)">GUDRI</text>
  <text id="MAISDA_" data-name="MAISDA " class="cls-4" transform="translate(803 605.352) scale(0.578)">MAISDA</text>
  <text id="PATKUM-2" data-name="PATKUM" class="cls-5" transform="translate(830 670.456) scale(0.552)">PATKUM</text>
  <text id="BANDU-2" data-name="BANDU" class="cls-6" transform="translate(986.5 687.946) scale(0.566)">BANDU</text>
  <text id="NADISAI-2" data-name="NADISAI" class="cls-7" transform="translate(387 820.422) scale(0.537)">NADISAI</text>
  <text id="TIRULDIH_2-2" data-name="TIRULDIH_2" class="cls-8" transform="translate(291.5 546.539) scale(0.497)">TIRULDIH_2</text>
  <text id="CHIMTIYA_" data-name="CHIMTIYA " class="cls-9" transform="translate(540.5 510.617) scale(0.513)">CHIMTIYA</text>
  <text id="DEWALTAND-2" data-name="DEWALTAND" class="cls-10" transform="translate(258 728.995) scale(0.496)">DEWALTAND</text>
  <text id="SODO_" data-name="SODO " class="cls-11" transform="translate(665 407.944) scale(0.537)">SODO</text>
  <text id="SITU-2" data-name="SITU" class="cls-12" transform="translate(499 236.19) scale(0.789)">SITU</text>
  <text id="TUTA-2" data-name="TUTA" class="cls-13" transform="translate(333 355.571) scale(0.627)">TUTA</text>
  <text id="ICHAGARH" class="cls-13" x="552.75" y="1080">ICHAGARH</text>
  <text id="GORANGKOCHA-2" data-name="GORANGKOCHA" class="cls-6" transform="translate(826.75 772.066) scale(0.603)">GORANGKOCHA</text>
</svg>
