<svg xmlns="http://www.w3.org/2000/svg" width="1200" height="1200" viewBox="0 0 1200 1200">
  <defs>
    <style>
      .cls-1, .cls-2 {
        fill: #fcdab3;
        fill-rule: evenodd;
      }

      .cls-1 {
        stroke: #fb7000;
        stroke-width: 3px;
      }

      .cls-2 {
        stroke: #6b3900;
        stroke-width: 1px;
      }

      .cls-3 {
        font-size: 46.712px;
        font-family: "Microsoft New Tai Lue";
        text-transform: uppercase;
      }
    </style>
  </defs>
  <path id="Kharsawan" class="cls-1" d="M697.75,419c11.3,0,14.569,3,24,3,0-3.567,24.754-22.754,30-28,0-55.522,48.753-57,99-57,24.872,24.872-17,52.494-17,75h50c0-5.619,22.542,0,25,0,0,4.6,24.978,3,31,3,17.292,0,62,16,62,27q1,23,2,46c-1.51,4.528-10.571,16-16,16l-11,16-29,63-3,3c0,6.558-28,21-28,21-31.3,0-56.435,3-88,3l-15-10c0-21.733-2-47.733-2-69l-2-3c-0.25,0-35-38.179-35-40l-11-5c-39.929,0-65-29.008-65-66Q698.251,418,697.75,419Z"/>
  <path id="Dalaikela" class="cls-1" d="M552.75,596c0-12.645,1.808-33.808,9-41,8.226,0,21.743-4.743,27-10q1-2,2-4l-3-2c-12.859,0-26-41.371-26-58h3l4-2c11.335,0,22.841-8,33-8,0-16.332,4-37.81,4-56,1.327,0,14.91-11.91,17-14,0-30.935,20.312-40,46-40,0,4.927,5.159,31,9,31,0,4.059,29,1.617,29,8q0.5,1,1,2c0,24.438,22,36.542,22,62,11,0,33,2.144,33,12h28c0,14.338,24,48,24,48l-3,2c-14.872,0-28.938,9-40,9l-8,14c0,34.445-22.03,56-57,56,0-11.6-10.659-18-23-18,0,6.378-8,13.815-8,24l9,3v30c0,16.78-11.221,40-30,40V672c0-13.733,3-30.811,3-47-2.346,0-18.544-41-22-41q-1-2-2-4c-15.888,0-22.686,28-42,28l-32-1c-2.489,0-3-.511-3-3q-1-5.5-2-11Z"/>
  <path id="Burudih" class="cls-1" d="M513.75,932c0-1.263,48.938-55.938,57-64q0.5-18.5,1-37c-9.269-9.269-19-24.684-19-41h2l2-1c7.128,0,31,9.613,31,2,5.989-5.989-1.73-41,4-41q0.5-1.5,1-3c8.8,0,27.764-22,33-22,0,0,16.75-40,22-40l1-1,25-9,4-1c13.247,0,23.87,5,35,5l2,1c21.6,0,36.156-2.844,48,9l57-3,18,18q-0.5,23-1,46c0,3.223,7.621,10,10,10,0,25.047,39,46.777,39,65-15.6,15.6-74.848,42-102,42,0,3.361-14.03,9-19,9v-2c-3.576-3.576-2-12.882-2-18-5.376,0-13.068,3-15,3,0,9.772-5.78,26.78-13,34-26.739,0-57.859,8-87,8,0,8.5-24,12.723-24,23-11.765,0-32,17.178-32,30-17.26,0-69,.464-69-15-4.888,0-11-1.664-11-6v-3l4-1Z"/>
  <path id="Jordiha" class="cls-1" d="M295.75,882c10.087,10.087,30,3.9,30,21,0,8.257-7.155,20.155-12,25,0,9.931,2.332,47-6,47,0,17.212,5,29.57,5,50-5.963,0-19,25.32-19,29-13.878,0-52,17.46-52,23-49.2,0-86.573-19.57-118-51q-1-24-2-48l11-16,16-9,54-15,26-16c6.7,0,33-12.164,33-17,5.846,0,35-20.712,35-24Z"/>
  <path id="BADAAMDA" class="cls-1" d="M453,899l-46.5-37.5-12-18c0-11.778,19.167-46.5,30-46.5L435,774.5q1.5-23.247,3-46.5l9-19.5c6.617,0,20.318-23.455,22.5-30,4-12.01,9-34.5,9-46.5L492,615.5l24-7.5c0-1.236,28-32.5,31.5-36,16.407,0,33.545,1.5,51,1.5,12.8-12.8,29.285-15,46.5-15,13.28,0,13.5,23.234,13.5,34.5,13.835,13.835,13.5,70.916,13.5,93l-9,19.5L622.5,746q-9.749,40.5-19.5,81c-4.074,6.111-27.615,52.5-30,52.5,0,27.109-12.219,69-40.5,69-8.11,0-25.884-1.884-31.5-7.5-30.087,0-51-8.742-51-39Z"/>
  <path id="Telaidih" class="cls-1" d="M76.75,831c18.391,0,81-4.613,81,14h87c6.325,6.325,52.841,40,61,40l-1,3c-12.537,12.537-62.594,47-84,47,0,3.652-12.165,24-18,24-12.159,0-22.979,1-35,1,0,6.814-18.165,14-28,14-9.609,9.609-10.538,46-15,46-2,.33-4,0.67-6,1,0-7.2-13.169-44-19-44,0-19.26-3.106-39.106-14-50l-3-2-16-24c0-15.637,1.6-69,12-69Z"/>
  <path id="KRISHNAPUR" class="cls-1" d="M292,1012.5c-13.011-6.51-10.5-20.48-10.5-34.5,9.959-9.959,15-75.809,15-96,24.037,0,60-4.388,60-31.5,3.358,0,12-17.179,12-22.5,0,0,12-16.117,12-16.5,4.552,0,10.335-1.335,13.5-4.5,23.514,0,50.289,3,70.5,3,0,16.18,18.318,75,31.5,75,0,6.268,7.6,28.5,13.5,28.5,0,3.736,1.932,15,6,15,0,16.908-3,27.372-3,43.5,7.534,0,6,19.149,6,27-0.077,0-15.286,6.29-16.5,7.5-8.812,0-40.5-1.59-40.5-7.5-11.982,0-22.816,4.5-33,4.5l-28.5,36c0,4.09-26.083,4.5-31.5,4.5H322l-3-3c-10.221-3.41-26.712-24-30-24Z"/>
  <path id="Jojodih" class="cls-1" d="M389.75,824c8.105-10.807,12-27.792,12-43,2.941,0,13-18.054,13-22,17.988,0,14-88.194,14-109,0-12.537.9-67,9-67h1l10,18c0,20.476,10,33.5,10,52,5.583,0,9.485,7,19,7,0-21.869-2-36.323-2-58l7-16,12,1,35,36,14,1,3-5,7-16,13,1q1,10,2,20c-4.636,0-29,19.959-29,24l-13,9c-26.642,0-18.126,29.126-32,43,0,4.856-6.647,27-11,27v48l-8,3c0,10.216.486,33,11,33,0,21.664-19.864,43-38,43,0-10.96-11-15.941-11-24-17.8,0-31-6-45-6h-3Z"/>
  <path id="SIMLA" class="cls-1" d="M796.5,708c-6.489,0-37.5-8.266-37.5-9l-57-6c0-.458-25.154-9-31.5-9-5.668-5.668-16.71-9.21-24-16.5l-3-1.5-1.5-3c0-17.171,9.678-70.5,24-70.5,0-3.694,5.652-18,10.5-18,0-4.584,36.863-3,45-3,5.833-5.833,15.366-3.933,22.5-7.5l7.5-7.5c0-34.606,49.34-36,76.5-36,0.343,0,31.5,31.318,31.5,34.5L876,565.5c22.277,0,42.116,22.5,63,22.5,3.18,3.18,7.648,7.5,12,7.5l3,4.5c7.419,0,22.5,18.936,22.5,25.5,0,25.472-36.8,46.5-60,46.5L900,679.5,889.5,696l-9,7.5c-10.674,0-11.867,15-25.5,15l-1.5,3c-10.386,0-57,2.944-57-9V708Z"/>
  <path id="HARIBHANJA" class="cls-2" d="M548,278c22.055-5.514,67.308-5.808,79.5-18l6-3c3.368,0,18-1.751,18-6,12,0,39.763-.763,48-9,14.1,0,55.5-18.044,55.5-28.5l9,1.5q6,8.248,12,16.5c0,2.562,1.466,10.5,4.5,10.5,0,36.8,39.147,57,78,57l1.5,1.5c0,4.323,16.5,5.29,16.5,15l3,1.5c0,23.6,19.788,46.5-22.5,46.5,0,1.224-8.891,7.5-12,7.5l-19.5,19.5c0,4.124-21.9,52.5-27,52.5-24.853,0-90-9.987-90-37.5-10.124,0-58.5-9.383-58.5,10.5H617l-15-7.5c0-49.818-43.309-37.118-58.5-67.5V293c4.788,0,7.5-10.508,7.5-16.5Z"/>
  <path id="Riding" class="cls-1" d="M684.75,238c0-6.31-3-16.288-3-19-12.9,0-27.946-9-43-9,0-4.373-1.713-19-6-19q0.5-18.5,1-37c4.421-4.421,19.615-31,26-31l2-2c5.289,0,6.978-.022,10,3,0,15.948,11,32.022,11,44l16,18,23,9,67,3-3,4c-5.409,0-12,47.971-12,56,6.044,6.044,24.714,23.286,12,36l-16,8c-19.454,0-50,4.59-50-20l-11-24q-7.5-11-15-22h-8Q685.251,237,684.75,238Z"/>
  <path id="Bitapur" class="cls-1" d="M769.75,194l113,1c10.567,0,33-2.352,33,11,4.176,0,3,18.108,3,22,0,8.777-4.677,35-12,35q0.5,11,1,22c1.407,0,18.115,5.115,20,7,30.85,0,67.269,4,97,4q-4,29.5-8,59c-5.68,118.506.03,82.086-20,99-4.447-4.447-18-16.13-18-22l-3-1c-5.376-5.376-26.432-9-35-9l-5-1c-15.421,0-25.449,5-40,5,0-3.754-7-5.688-7-11-22.869,0-37.945,6-59,6V393c5.242,0,22-36.725,22-46l-2-3c-19.375,0-44.255-17-56-17,0-3.473-6.139-8-10-8,0-.266-14-21-14-21,0-8.633-.107-23.893,5-29,0-6.474-2.7-20.7-7-25,0-16.875,4-36.067,4-49Z"/>
  <path id="CHILKU" class="cls-1" d="M939,633c-13.841-18.455-16.5-50.051-16.5-72,17.255,0,12-32.254,12-49.5C951.19,494.81,978,481.984,978,450c4.3-4.3,12-16.692,12-22.5,4.873-2.436,21-27.5,21-30h9l12,18c0,13.3,2.33,56.327,9,63q0.75,33,1.5,66c6.04,6.035,4.31,54.193-1.5,60,0,13.725-58.416,31.416-69,42l-1.5,1.5c-9.182,0-19.227-1.5-27-1.5L942,636Z"/>
  <text id="TELAIDIH_" data-name="TELAIDIH " class="cls-3" transform="translate(121.5 916.248) scale(0.515)">TELAIDIH</text>
  <text id="JORDIHA-2" data-name="JORDIHA" class="cls-3" transform="translate(182 1017.995) scale(0.446)">JORDIHA</text>
  <text id="KRISHNAPUR-2" data-name="KRISHNAPUR" class="cls-3" transform="translate(349 948.89) scale(0.431)">KRISHNAPUR</text>
  <text id="JOJODIH_" data-name="JOJODIH " class="cls-3" transform="translate(454.073 775.206) rotate(-80.338) scale(0.482)">JOJODIH</text>
  <text id="BADAAMDA_" data-name="BADAAMDA " class="cls-3" transform="matrix(0.38, -0.24, 0.24, 0.38, 525.446, 739.781)">BADAAMDA</text>
  <text id="CHILKU_" data-name="CHILKU " class="cls-3" transform="translate(958.454 592.956) rotate(-50.672) scale(0.464)">CHILKU</text>
  <text id="BITAPUR-2" data-name="BITAPUR" class="cls-3" transform="translate(874 350.012) scale(0.522)">BITAPUR</text>
  <text id="KHARSAWAn-2" data-name="KHARSAWAn" class="cls-3" transform="translate(809 476.098) scale(0.436)">KHARSAWAn</text>
  <text id="BURUDIH_" data-name="BURUDIH " class="cls-3" transform="translate(667 811.126) scale(0.487)">BURUDIH</text>
  <text id="HARIBHANJA-2" data-name="HARIBHANJA" class="cls-3" transform="translate(620.5 333.086) scale(0.423)">HARIBHANJA</text>
  <text id="RIDING-2" data-name="RIDING" class="cls-3" transform="translate(695.5 225.918) scale(0.381)">RIDING</text>
  <text id="DALAIKELA-2" data-name="DALAIKELA" class="cls-3" transform="translate(622.5 522.56) scale(0.473)">DALAIKELA</text>
  <text id="SIMLA-2" data-name="SIMLA" class="cls-3" transform="translate(743.5 645.658) scale(0.513)">SIMLA</text>
</svg>
