<svg xmlns="http://www.w3.org/2000/svg" width="1200" height="1200" viewBox="0 0 1200 1200">
  <defs>
    <style>
      .cls-1, .cls-2 {
        fill: #eceaff;
        stroke: #9e96ed;
        fill-rule: evenodd;
      }

      .cls-1 {
        stroke-width: 3px;
      }

      .cls-2 {
        stroke-width: 2px;
      }

      .cls-3 {
        font-size: 58.412px;
      }

      .cls-10, .cls-11, .cls-12, .cls-3, .cls-4, .cls-5, .cls-6, .cls-7, .cls-8, .cls-9 {
        font-family: "Microsoft New Tai Lue";
        text-transform: uppercase;
      }

      .cls-4 {
        font-size: 50.645px;
      }

      .cls-5 {
        font-size: 48.194px;
      }

      .cls-6 {
        font-size: 56.755px;
      }

      .cls-7 {
        font-size: 51.407px;
      }

      .cls-8 {
        font-size: 46.712px;
      }

      .cls-9 {
        font-size: 49.777px;
      }

      .cls-10 {
        font-size: 48.307px;
      }

      .cls-11 {
        font-size: 55.837px;
      }

      .cls-12 {
        font-size: 58.194px;
      }
    </style>
  </defs>
  <path class="cls-1" d="M636.75,506c1.8,7.184,5,11.55,5,20l20,3c0-3.089.627-8,5-8l2,1c0,24.8,45.876,10,61,10,0,15.258,16,23.126,16,42q-9.5,24-19,48c4.928,0,11.094-2,14-2l6-21c1.294,0,30-7.068,30-2l17,16h33c0,6.7,52.184,45,58,45,0-4.037,5-16.205,5-27,6.69,0,15.95-5,20-5,0-33.909,24-42.179,24-76,6.629,0,12,.822,12-6,0-19.07,5.691-23.691,15-33v-1c4.818,0,21-8.557,21-12,0.466,0,4.781-21.781,7-24,9.233,0,56-21.8,56-33q-0.495-14.5-1-29c0-22.479,11-29.92,11-54-16.44,0-72.184-51-75-51-10.816,0-23.688.688-30,7-32.308,0-102,5.173-102,41l-8,16c-36.541,0-61.337-12-98-12l-24,14q-2,10-4,20c-16.537,0-40.3,54-52,54,0,3.852-13.149,25-18,25,0,5.578-5.878,43-7,43l-1,1"/>
  <path class="cls-2" d="M279.764,431.818c3.161-6.193,5.519-17.967,12.229-17.967,5.45-5.339,23.239,1.193,33.63-8.984l-1.019-2c-8.1,0-18.344-17.464-18.344-23.957-18.345,0-42.766-2-64.2-2l-1.019-2-2.038-1q0.51-12.975,1.019-25.952l15.286-24.955,24.459-25.953,32.611-26.951c8.626-8.449,26.678-21.96,40.763-21.96,0-1.687,8.153-3.328,8.153-1,4.344,0,14.267,57.336,14.267,64.882,34.758,0,64-8.984,97.833-8.984,5.1-5,27.516-4.672,27.516-12.976l3.057-1q-1.018-6.987-2.038-13.975v-1h5.1l10.191,14.973c0,6.466-2.524,20.962,6.115,20.962,0,34.025,15.081,64.882,52.992,64.882L580.4,384.9h1.019c0-9.834,15.275-6.987,21.4-6.987l3.057,8.984c8.628,0,17.4,3.992,22.42,3.992,0,17.669-6.114,32.723-6.114,48.911,10.691,0,18.8,38.93,10.19,38.93,0,2.688-5.885,3.992-9.171,3.992q-0.51,8.484-1.019,16.969c-11.409,0-43.821,47.969-43.821,57.9-8.858,0-23.44,15.418-23.44,23.956l-20.381-1-19.363,17.968-13.248-1L485.62,572.562c-7.156,0-88.189,3.531-94.775,9.982-6.884,0-18.794,44.361-25.478,50.907l-1.019,2v1l-1.019,1-3.057,3.992q-1.018,2.5-2.038,4.991S334.8,661.02,334.8,657.407q-1.02-22.457-2.039-44.918c5.323,0,6.115-30.2,6.115-36.933,12.874-12.609,36.687-22.778,36.687-44.918-10.23-10.02-44.84-23.1-44.84-41.924-2.718,0-9.172-1.278-9.172-3.992l-2.038-1c-8.629,0-41.783-4.818-41.783-12.977-5.022-4.92-1.814-43.92,3.058-43.92"/>
  <path class="cls-2" d="M298.5,411.5c-4.614,18.455-12.5,36.609-12.5,54l4,1,12,2.5c0-5.359,9.521-7.5,15-7.5,0,4.671,6,14.5,6,22.5,14.191,0,35.338,26.838,44,35.5l10.5,1.5-4,7.5c0,12.6,1,19.492,1,34-15.98,0-20.99,13-32,13,0,21.571-6,32.241-6,56.5L335,654.5c0,2.786-21.946,5.5-26.5,5.5l-1-.5c-18.475,0-35.369-17.5-57-17.5L211,643l-2,.5-2.5.5-3.5,1-10,7-7,7.5c0,17.205-38.36,12-53.5,12l-16,2-27.5,9-7,14-1.5,25-7,4L16,726l-4.5-8V644l11-.5L40,597l14.5-1,2.5-4.5,2-3.5,0.5-.5v-1c6.043-6.043,27.835-53.5,5-53.5l-7-8.5c0-10.951,10-22,10-22,10.552,0,25.081,1,35.5,1L119.5,492l7-8c0-18.148,16.392-30.5,35-30.5,9.1,9.1,3.5,42.494,3.5,58l4.5,7.5c25.255,0,56.377-19.5,74.5-19.5l12.5-17c0-11.21,28.716-71,43-71h-1Z"/>
  <path class="cls-1" d="M497.75,283q-1.5-24-3-48l1-1,24-1c2.668,2.668,18,13.358,18,14l4,1,62,1c7.4-7.4,25.98-21,39-21l1,1c0,4.471,4,12.99,4,15l2,1c21.072,0,25.083-10,44-10,0,4.031,1.5,9,5,9l2,1c5.126,0,35,1.574,35,5l4,1c0,18.08-5,27.477-5,43,10.037,0,30.306,36,34,36,0,5.241,2.107,24,0,24l-8,14c-17.208,0-23,6.083-23,23l8,4q-0.5,3.5-1,7l-30,8c0,29.849-55,47.845-55,75-9.129,0-23,25.195-23,36l-14,16-22-1c0,10.334-17.28,15-26,15v-7l17-27c37.056,0,20-93.416,20-121-73.669,0-116-40.113-116-116Z"/>
  <path class="cls-1" d="M628.75,233c30.5-22.873,99.678-15,144-15,7.047,7.047,17.387,18,27,18l4,3c7.253,0,12.858.858,17,5h57c0,19.128,65.782,54,92,54l15,7v3c-17.866,17.866-58.8,19-91,19l-15,8c0,9.187-29,48.684-29,65-7.6,0-14.731,1.269-19-3,0-11.678-50.328-39-68-39,0-18.167-9.164-49-30-49l-11-8c0-18.927,4-28.46,4-47h-31c-2.3,0-9-2.4-9-5-27.854,0-60.346-1-85-1"/>
  <path class="cls-1" d="M1045.75,351c6.42,0,22,4.829,22,10,14.1,0,31.63,5,49,5l29,1q-10.005,9-20,18c0,3.174-4.42,22.421-7,25q-0.495,19.5-1,39c14.35,0,25.34-4,37-4,0,2.321,1.86,3,4,3,0,8.318,3,20.447,3,30l-3,1c-10.85,10.845-51.71,10-70,10l-12,5c-0.67.333-1.33,0.667-2,1-2.33,1-4.67,2-7,3-7.06,0-29,5.271-29,10l-34,11v1c12.49,0,12.36,30,25,30q0.495,18.5,1,37h41c2.33,0.667,4.67,1.333,7,2,2.35,0,4,3.2,4,6,13.76,0,16,30.626,16,45-7.77,0-11.65,29.65-17,35-34.72,0-62.44-2-95-2,0,4.2-23.606,13-32,13l-12-21c-7.456,0-29-17.253-29-25l-1-1-1-1c-7.781,0-18-2.875-18-13,0-5.087,17.148-23,22-23,0-23.654,20-34,20-58l9-4c0-79.956,99-79.553,99-161q3.495-12.5,7-25"/>
  <path class="cls-1" d="M505.75,596c5.476,0,17-9.92,17-16,17.245,0,45-15.592,45-29l51-31,20-4c5.482,0,15-2.045,15,5l30-1c0,3.351-.38,7,3,7,5.3,5.3,46.948,3,57,3l12,19c0,13.778,3,29.967,3,41,9.535,0,48,14.753,48,19l35,3v14q-0.5,1.5-1,3c-16.065,0-21,11.671-21,28q-0.5,2.5-1,5c8.936,0,55,12.29,55,14h2l-9,27v31l9,22c0,11.2,2.828,28.172-4,35l-61,2-4-9c-20.538,0-85-21.676-85-37l-3-1c0-3.419-20-18-20-18-15.3,0-48-14.526-48-30-36.168,0-114-40.96-114-72,0,0-29-24.788-29-27Z"/>
  <path class="cls-1" d="M667.75,719c7.7,7.7,8,11.414,8,23-8.014,0-9,21.436-9,31-7.215,7.215-10,63.54-10,80q1,3,2,6c0,8.078,25,32.141,25,27l3-7,12-1c0,7.566,16.721,14,24,14,0,15.391,73,11.05,73,21,11.025,0,13.716-4,26-4,0,12.916,56,43.7,56,45,2.85,0,20,6.785,20,10h21c0-14.975,1.162-57,12-57q4-11.5,8-23c0-15.693-1-33.872-1-48l-5-1c-17.248,0-54,8.282-54,28l-7,6c-33.84,0-46-20-79-20,0-22.64-5-41.685-5-66-8.492-8.492-21.127-16-35-16,0-2.1-54-37.2-54-44l-26-1"/>
  <path class="cls-1" d="M914.75,970c-3.323,4.431-28.388,25-30,25q-0.5,16-1,32-4,3.495-8,7c-13.266,0-25.267,5-42,5,0-2.36-20-25.85-20-36-18.625,0-41.276-3-62-3l-28-15q1.5-29,3-58c-18.579-18.579-49-10.82-49-49l2-1c8.112,0,18.2-3,29-3,0,7.086,39,19.622,39,25l81,8c0,11.711,60.3,46,78,46,0,1.346,9,14,9,14Q915.251,968.5,914.75,970Z"/>
  <path class="cls-1" d="M804.75,660c0-22.043,8.914-24.914,20-36,7.654,0,32-2.784,32,6l11,3c3.591,0,18-.953,18-4l39,1,9,8c0,2.415,3.475,7,6,7,0,27.659,73.92,18,97,18q5.505,2.5,11,5,0.495,15.5,1,31c0,6.707,25,20.957,25,33-0.33.667-.67,1.333-1,2h-15c0-8.479-6.01-7-13-7l-5,2-3,4-6,12v52c0,2.773,1.16,6-2,6v2l-26-2c0-10.714-16.552-31.552-23-38l-8,2c0,7.532-11,9.351-11,20,8.3,0,11,36.22,11,46l-6,5-7-2c0-12.747-15-60-25-60l-4,11q1,28,2,56c-20.16,0-41.6,21.6-54,34h-28l-11-10c-16.067,0-31.437-15-47-15-2.6,0-6-1.8-6-4q-1-14.5-2-29c0-12.364.258-42,12-42,0-13.275-5-16.674-5-27l9-8c19.232,0,14.659-70,4-70q0.5-9.5,1-19l3-3"/>
  <text id="BANDOLOHAR" class="cls-3" transform="translate(847.5 734.974) scale(0.357)">BANDOLOHAR</text>
  <text id="BARUHATU" class="cls-4" transform="translate(598.23 350.366) scale(0.411)">BARUHATU</text>
  <text id="GOMIADIH" class="cls-5" transform="translate(770 315.972) scale(0.432)">GOMIADIH</text>
  <text id="CHOTASEGOI_" data-name="CHOTASEGOI " class="cls-6" transform="translate(793 498.524) scale(0.367)">CHOTASEGOI</text>
  <text id="PONDAKATA" class="cls-7" transform="translate(747.5 971.544) scale(0.405)">PONDAKATA</text>
  <text id="TILOPADA" class="cls-8" transform="translate(676.5 842.197) scale(0.446)">TILOPADA</text>
  <text id="ARWAN_" data-name="ARWAN " class="cls-9" transform="translate(948 622.745) scale(0.419)">ARWAN</text>
  <text id="ROLAHATU" class="cls-10" transform="translate(202 599.918) scale(0.431)">ROLAHATU</text>
  <text id="RUGUDIH_" data-name="RUGUDIH " class="cls-11" transform="translate(410.5 475.843) scale(0.373)">RUGUDIH</text>
  <text id="MARANGHATU_" data-name="MARANGHATU " class="cls-12" transform="translate(586.5 627.043) scale(0.358)">MARANGHATU</text>
</svg>
