<svg xmlns="http://www.w3.org/2000/svg" width="1200" height="1200" viewBox="0 0 1200 1200">
  <defs>
    <style>
      .cls-1, .cls-2, .cls-3 {
        fill: #eceaff;
        fill-rule: evenodd;
      }

      .cls-1, .cls-2 {
        stroke: #9e96ed;
      }

      .cls-1 {
        stroke-width: 2px;
      }

      .cls-2 {
        stroke-width: 3px;
      }

      .cls-3 {
        stroke: #111;
        stroke-width: 1px;
      }

      .cls-4 {
        font-size: 58.412px;
      }

      .cls-10, .cls-11, .cls-12, .cls-13, .cls-4, .cls-5, .cls-6, .cls-7, .cls-8, .cls-9 {
        font-family: "Microsoft New Tai Lue";
        text-transform: uppercase;
      }

      .cls-5 {
        font-size: 50.645px;
      }

      .cls-6 {
        font-size: 48.194px;
      }

      .cls-7 {
        font-size: 56.755px;
      }

      .cls-8 {
        font-size: 51.407px;
      }

      .cls-9 {
        font-size: 46.712px;
      }

      .cls-10 {
        font-size: 49.777px;
      }

      .cls-11 {
        font-size: 48.307px;
      }

      .cls-12 {
        font-size: 55.837px;
      }

      .cls-13 {
        font-size: 58.194px;
      }
    </style>
  </defs>
  <path id="RUGUDIH" class="cls-1" d="M331.5,657.5c-8.177-16.355-4.5-39.916-4.5-58.5,3.627,0,10.5-8.516,10.5-13.5H339c0.286-.286,21-24,21-24,0-13.665-18-19.461-18-43.5-24.482,0-48.881-2.381-64.5-18-5.654-16.963-4.5-34.438-4.5-54,2.644-2.644,4.5-4.281,4.5-7.5,5.242-5.242,11.68-7.18,18-13.5-9.2-9.2-41.634-15-52.5-15V342.5l9-21,4.5-4.5c9.332-4.666,18.5-28.5,31.5-28.5,2.8,0,4.5.174,4.5-3l6-3,66-24c5.119,0,28.5-2.247,28.5,3,13.493,0,9.466,40.966,21,52.5,24.563,0,53.845-3,75-3,8.247-8.247,10.165-27,24-27l21-1.5,3,3c0,12.637,3.906,33.906,12,42,0,41.022,30.151,57,72,57,6.831,6.831,18.746,22.5,30,22.5v60c11.131,11.131,9,35.546,9,52.5-10.225,10.225-33,20.411-33,34.5-18.781,0-52.5,46-52.5,60L549,632c-31.7,0-41.979-1.479-66-25.5L424.5,605l-15,9c0,25.963-39.959,63.959-55.5,79.5H321L318,665l9-4.5Z"/>
  <path id="ROLAHATU" class="cls-1" d="M298.5,411.5c-4.614,18.455-12.5,36.609-12.5,54l4,1,12,2.5c0-5.359,9.521-7.5,15-7.5,0,4.671,6,14.5,6,22.5,14.191,0,35.338,26.838,44,35.5l10.5,1.5-4,7.5c0,12.6,1,19.492,1,34-15.98,0-20.99,13-32,13,0,21.571-6,32.241-6,56.5L335,654.5c0,2.786-21.946,5.5-26.5,5.5l-1-.5c-18.475,0-35.369-17.5-57-17.5L211,643l-2,.5-2.5.5-3.5,1-10,7-7,7.5c0,17.205-38.36,12-53.5,12l-16,2-27.5,9-7,14q-0.75,12.5-1.5,25l-7,4L16,726l-4.5-8V644l11-.5L40,597l14.5-1,2.5-4.5,2-3.5,0.5-.5v-1c6.043-6.043,27.835-53.5,5-53.5l-7-8.5c0-10.951,10-22,10-22,10.552,0,25.081,1,35.5,1L119.5,492l7-8c0-18.148,16.392-30.5,35-30.5,9.1,9.1,3.5,42.494,3.5,58l4.5,7.5c25.255,0,56.377-19.5,74.5-19.5l12.5-17c0-11.21,28.716-71,43-71h-1Z"/>
  <path id="BARUHATU" class="cls-2" d="M497.75,283q-1.5-24-3-48l1-1,24-1c2.668,2.668,18,13.358,18,14l4,1,62,1c7.4-7.4,25.98-21,39-21l1,1c0,4.471,4,12.99,4,15l2,1c21.072,0,25.083-10,44-10,0,4.031,1.5,9,5,9l2,1c5.126,0,35,1.574,35,5l4,1c0,18.08-5,27.477-5,43,10.037,0,30.306,36,34,36,0,5.241,2.106,24,0,24l-8,14c-17.208,0-23,6.083-23,23l8,4q-0.5,3.5-1,7l-30,8c0,29.849-55,47.845-55,75-9.129,0-23,25.195-23,36l-14,16-22-1c0,10.334-17.28,15-26,15v-7l17-27c37.056,0,20-93.416,20-121-73.669,0-116-40.113-116-116Z"/>
  <path id="GOMIADIH" class="cls-2" d="M606,252l52.5,1.5c3.751,3.751,57.339,12,61.5,12,0,10.947,7.5,32.668,7.5,42,7.8,0,27,17.722,27,28.5,18.9,9.451,23.088,26.088,37.5,40.5l16.5,7.5c14.842,11.131,25.425,30,43.5,30,1.7,0,51-52.957,51-58.5,5.2,0,18.16-10.66,24-16.5,26.064,0,80.08-18.585,96-34.5l1.5-18-10.5-12L937.5,258c0-3.607-45.555-28.5-58.5-28.5l-43.5-6c-40.126-13.375-82.423-30-133.5-30-17.654,0-85.5,14.5-85.5,28.5L597,235.5c-6.075,0-33,17.48-33,19.5,14.711,0,26.7-6,37.5-6Z"/>
  <path id="ARWAN" class="cls-2" d="M1062,688.5c-32.92-8.23-139.5-2.9-139.5-43.5-8.86,0-16.5-43.2-16.5-52.5,4.687-9.374,14.781-13.281,22.5-21l4.5-9,1.5-43.5c6.855,0,36-31.327,36-43.5,1.6,0,13.5-13.263,13.5-18,14.114,0,34.5-50.039,34.5-64.5,3.29,0,31.78-34.273,32.25-39,9.39,5.122,23.12-1.375,29.25-7.5,20.29,0,79.5,10.376,79.5,25.5v3c-4.54,0-24,15.593-24,22.5l-3,22.5c25.02,25.023,42,8.223,42,57,0,4.139-4.34,7.5-7.5,7.5,0,4.127-17.51,9-21,9,0,3.823-23.81,10.5-28.5,10.5-16.27,0-62.39,8.395-72,18l-1.5,34.5c9.48,9.478,54,22.081,54,33l4.5,3h1.5l1.5,1.5c0,25.95,11.03,62.467-7.5,81-9.94,0-25.69,12-33,12Z"/>
  <path id="MARANGHATU" class="cls-2" d="M505.75,596c5.476,0,17-9.92,17-16,17.245,0,45-15.592,45-29l51-31,20-4c5.482,0,15-2.045,15,5l30-1c0,3.351-.38,7,3,7,5.3,5.3,46.948,3,57,3l12,19c0,13.778,3,29.967,3,41,9.535,0,48,14.753,48,19l35,3v14q-0.5,1.5-1,3c-16.065,0-21,11.671-21,28q-0.5,2.5-1,5c8.936,0,55,12.29,55,14h2l-9,27v31l9,22c0,11.2,2.828,28.172-4,35l-61,2-4-9c-20.538,0-85-21.676-85-37l-3-1c0-3.419-20-18-20-18-15.3,0-48-14.526-48-30-36.168,0-114-40.961-114-72,0,0-29-24.788-29-27Z"/>
  <path id="TILOPADA" class="cls-2" d="M925.5,982.5c-24.089-12.045-62.053-29.053-82.5-49.5l-43.5-15L774,915c-12.239-4.08-26.066-13.5-39-13.5l-9-4.5c-9.058,0-33.7-12-49.5-12,0-1.826-20.185-12-24-12l-12-22.5c0-22.911-.934-48.2,6-69,1.544-4.633-3.432-28.5,3-28.5,0-6.225,4.481-34.5,10.5-34.5,0-4.168.23-1.441,7.75,0.5,3.923-25.107,43.731-6.5,59.75-6.5L747,720l10.5,10.5c0,24.883,76.5,66.785,76.5,96H945c2.451,2.451,14.121,6,15,6,0,28.706-1.969,142.969-18,159h-9L922.5,987Z"/>
  <path id="PONDAKATA" class="cls-2" d="M914.75,970c-3.323,4.431-28.388,25-30,25q-0.5,16-1,32-4,3.495-8,7c-13.266,0-25.267,5-42,5,0-2.36-20-25.85-20-36-18.625,0-41.276-3-62-3l-28-15q1.5-29,3-58c-18.579-18.579-49-10.82-49-49l2-1c8.112,0,18.2-3,29-3,0,7.086,39,19.622,39,25l81,8c0,11.711,60.3,46,78,46,0,1.346,9,14,9,14Q915.251,968.5,914.75,970Z"/>
  <path id="CHOTASEGOI" class="cls-3" d="M697.5,556.5c-24.426,0-56.48-19.5-70.5-19.5V483c11.6-11.6,27-27.375,27-45,11.93,0,38.33-33.83,46.5-42,8.1,0,54-36.019,54-39H756c6.422-2.141,34.5-15,34.5-15,16.793,0,34.237-1.5,51-1.5,0-2.294,30.077-16.539,33-18C907.546,305.977,932.46,288,972,288c0,1.538,54.98,36,66,36,0,1.04,8.74,15,12,15l12,25.5v21c-7.12,7.122-22.5,41.52-22.5,52.5-10.25,10.252-36,26.968-36,42l-6,7.5c0,5.049-12.2,18-15,18,0,3.906-12.409,16.5-15,16.5,0,4.936-18.816,37.5-19.5,37.5,0,10.365-11.867,32.867-19.5,40.5L921,613.5c0,29.968-69.66,36-96,36,0-5.363-68.786-43.5-78-43.5,0-15.848-11.143-35.143-19.5-43.5-9.186,0-15.579-4.5-25.5-4.5Z"/>
  <path id="BANDOLOHAR" class="cls-2" d="M906,868.5c-22.715,17.036-95.145,8.564-103.5-16.5L780,814.5c0-23.364-2.975-70.525,10.5-84,0-38.214-3-72.566-3-108,7.278-7.278,12.257-15.257,19.5-22.5l55.5-1.5c0,8,61.735,16.5,75,16.5L963,643.5l52.5,1.5,25.5,12v1.5c1.72,1.724,45,33,45,33V741l-31.5,1.5c0,14.783-17.5,96-24,96,0,4.321-22.46,0-24,0,0-3.4-4.5-18-4.5-18-18.577,18.577,1.1,45-37.5,45l-15-19.5c-4.574,0-19.5,21.276-19.5,22.5H906Z"/>
  <text id="BANDOLOHAR-2" data-name="BANDOLOHAR" class="cls-4" transform="translate(847.5 734.974) scale(0.357)">BANDOLOHAR</text>
  <text id="BARUHATU-2" data-name="BARUHATU" class="cls-5" transform="translate(598.23 350.366) scale(0.411)">BARUHATU</text>
  <text id="GOMIADIH-2" data-name="GOMIADIH" class="cls-6" transform="translate(770 315.972) scale(0.432)">GOMIADIH</text>
  <text id="CHOTASEGOI_" data-name="CHOTASEGOI " class="cls-7" transform="translate(793 498.524) scale(0.367)">CHOTASEGOI</text>
  <text id="PONDAKATA-2" data-name="PONDAKATA" class="cls-8" transform="translate(747.5 971.544) scale(0.405)">PONDAKATA</text>
  <text id="TILOPADA-2" data-name="TILOPADA" class="cls-9" transform="translate(676.5 842.197) scale(0.446)">TILOPADA</text>
  <text id="ARWAN_" data-name="ARWAN " class="cls-10" transform="translate(948 622.745) scale(0.419)">ARWAN</text>
  <text id="ROLAHATU-2" data-name="ROLAHATU" class="cls-11" transform="translate(202 599.918) scale(0.431)">ROLAHATU</text>
  <text id="RUGUDIH_" data-name="RUGUDIH " class="cls-12" transform="translate(410.5 475.843) scale(0.373)">RUGUDIH</text>
  <text id="MARANGHATU_" data-name="MARANGHATU " class="cls-13" transform="translate(586.5 627.043) scale(0.358)">MARANGHATU</text>
</svg>
