<svg xmlns="http://www.w3.org/2000/svg" width="1200" height="1200" viewBox="0 0 1200 1200">
  <defs>
    <style>
      .cls-1 {
        fill: #f8d4ca;
        stroke: #df5b38;
        stroke-width: 2px;
      }

      .cls-1, .cls-2 {
        fill-rule: evenodd;
      }

      .cls-2 {
        fill: #fdc689;
        stroke: red;
        stroke-width: 1px;
      }

      .cls-3 {
        font-size: 33.546px;
        font-family: "Microsoft New Tai Lue";
        text-transform: uppercase;
      }
    </style>
  </defs>
  <path id="ICHADIH" class="cls-1" d="M327,501l63-1.5,4.5-18c4.132,0,37.5-7.392,37.5-13.5,16.617,0,37.4,3,49.5,3,0,12.952,29.594,43.5,39,43.5l7.5-6,45-1.5,1.5,33c6.735,0,58.5,24.4,58.5,34.5h1.5q0.75,23.247,1.5,46.5l-24,28.5c-7.625,5.083-19.374,9-28.5,9,0,11.722-40.5,25.228-40.5,36-5.683,5.683-4.5,26.462-4.5,36-5.459,5.459-28.5,61.524-28.5,69H493.5c0-17.789-33.033-73.5-48-73.5,0-4.7-11.953-19.5-18-19.5,0-2.049-24.167-22.5-25.5-22.5l-21-31.5c0-29.313-19.5-54.406-19.5-84-4.018-4.018-7.5-14.019-7.5-19.5-2.838,0-21-31.009-21-42Z"/>
  <path id="Tiruldih" class="cls-2" d="M400,299.75H354l-13-4-7-1c-20.738,0-42.989,1.337-62-5l-36-9-18-14c0-9.73-36-34.585-36-53-1.334,0-26-12-26-12-14.415,0-38.5,15-43,15,0,16.6,8.975,20.9,13,37q1,20.5,2,41l16,26c14.1,14.1,21.072,37,42,37l8,7,23,45q2,28,4,56l11,7c7.038,0,34,9.831,34,11,19.117,0,39.459,11,61,11,19.488-19.488,25-60.592,25-92,22.518-22.518,48-70.325,48-102v-1Z"/>
  <path id="chaura" class="cls-1" d="M363,299.75c10.356,13.809,12.627,61-8,61l-6,8c0,20.827-22,39.195-22,65q-0.5,33-1,66c0,2.661-.558,3,2,3,0,11.356,24.89,6,33,6,5.186,5.186,3.332,16.332,9,22,14.924,0,37.29-17.71,47-8,0,5.435,4.115,22,11,22,7.754,7.754,22.691-4,28-4,0-9.883,4.566-54,13-54l5-1c0,14.354,10,25.9,10,38l6,1,28-13c0-17.7,18-24.524,18-32l-4-3c-19.019,0-15-12.929-15-28,12.585,0,31-21.809,31-33l-1-1q-0.5-1-1-2l-15-12c0-23.518-13.108-25.216-21-41l-2-2c0-29.289-4.585-77.585-23-96-3.309,0-22-2.239-22-5-10.255,0-19.557,3-28,3-19.353,19.353-24.75,33-59,33,0,3.3-10.655,8-14,8Z"/>
  <path id="KUKRU" class="cls-1" d="M510,379.5c16.154,8.077,24.2,9,43.5,9,0-21.414,65.257-33,88.5-33,2.42-2.42,34.68-7.32,39-3,13.741,0,48,2.215,48,15,5.492,0,14.175,67.5-7.5,67.5l1.5,31.5c-12.211,0-28.5,26.66-28.5,39-25.976,0-74.91-7.59-93,10.5L537,514.5c-11.2,11.2-62.964,18-81,18l-9-7.5V508.5c7.716,0,15.156-16.656,21-22.5,7.081,0,4.5-20.786,4.5-27,13.611-13.611,22.5-32.967,22.5-55.5,8.2-8.2,13.5-7.48,13.5-19.5Z"/>
  <path id="letemda" class="cls-1" d="M949,615.75c-0.133,0-24.383-6-46-6l-32-3-119,2c-15.819-15.819-108.4-8-142-8l-37-11q-6-12.5-12-25c0-15.643-7-30.172-7-47l34-14c85.251,0,113-42.248,113-123l38-3c15,15,54.386,18.123,80,13,21.506-4.3,32.589-12,52-12q1,2,2,4l2,1,2,1c0,10.474,39.814,22.442,45,38l2,2,13,45c0,25.181,7,51.056,7,78,0,21.243,5,41.174,5,60q-0.5,4-1,8h1Z"/>
  <path id="janum" class="cls-2" d="M609,827.75c6.66-3.33,14-19.016,14-26,1.063,0,18.375-14.375,21-17,8.426,0,25.015-9.015,31-15,25.97,0,109-33.934,109-62-14.857,0-26.127-17.127-36-27l-13-9c-25,0-49.97-46.941-60-67l-4-3c-9.373-9.373-36-19.43-36-21-41.737,0-73,33.981-73,70l-12,8c-19.014,0-25,27.34-25,44-5.142,0-28,61.268-28,74-1.092,0-13.254,40.239-9,53q2.5,6,5,12l20,27,71,21,20-26q2.5-6.5,5-13v-23Z"/>
  <path id="Berasisirum" class="cls-1" d="M665,592.75c22.7,0,64.8,6.2,80-9l6-2c15.428,0,99.758,2.758,105,8h62l26-7c14.187,14.187,30,102.074,30,128l-13,8-68,12-30,12c0,9.1-68.321,49-77,49-25.867,0-60-41.77-60-68-2.049,0-25.14-20.28-28-26-3.861,0-13-15.435-13-19-17.872,0-22-63.12-22-85l4-1h-2Z"/>
  <path id="Paragama" class="cls-1" d="M761,791.75c7.4-1.849,8-11.878,8-19l20-21,37-15c13.81,0,33.241-5.241,42-14,22.325,0,47.894-8.894,61-22l43-2,11,7c0,6.143,6,12.112,6,16q9.5,2.5,19,5l86,6v7c0,2.258-38.85,37-44,37q-7.005,10-14,20c0,17.678-21,41.026-21,60-17.411,0-39.764,5-61,5q-7.5-12.5-15-25l-53-1c-20.062,6.687-33.116,18-56,18-7.767,0-40-19.411-40-24-23.812,0-37-15.527-37-37l5.5,3.75c-0.527-6.066-1.4-6.75,3.5-6.75l-3.5,6.75,4.5-2.75Z"/>
  <path id="ODIA" class="cls-2" d="M592,876.75c0-23.367,7-42.318,7-63,7.05-7.05,6.964-16.964,14-24l2-2c19.518,0,45.446-35,56-35l3-2c27,0,55.121-5,84-5l13,6,7,2c7.179,0,32,15.3,32,18,15.82,0,38,4.983,38,23,12.647,0,30,41.692,30,53l-27,1c0,6.278-11.295,37-13,37,0,43.2-66.011,43.8-102,51-9.17,1.834-57.849,10.151-65,3,0-8.418-5-20.89-5-29l-14-8c-21.7,0-61-6.449-61-29Q591.5,875.25,592,876.75Z"/>
  <text id="TIRULDIH_1_" data-name="TIRULDIH_1 " class="cls-3" transform="translate(223.5 348.368) scale(0.715)">TIRULDIH_1</text>
  <text id="CHAURA-2" data-name="CHAURA" class="cls-3" transform="translate(384.5 392.933) scale(0.682)">CHAURA</text>
  <text id="KUKRU-2" data-name="KUKRU" class="cls-3" transform="translate(546 459.468) scale(0.736)">KUKRU</text>
  <text id="LETEMDA_" data-name="LETEMDA " class="cls-3" transform="translate(751 532.897) scale(0.628)">LETEMDA</text>
  <text id="BERASISIRUM_" data-name="BERASISIRUM " class="cls-3" transform="translate(796.5 665.915) scale(0.716)">BERASISIRUM</text>
  <text id="JANUM-2" data-name="JANUM" class="cls-3" transform="translate(585.5 734.476) scale(0.719)">JANUM</text>
  <text id="PARGAMA_" data-name="PARGAMA " class="cls-3" transform="translate(900 783.755) scale(0.763)">PARGAMA</text>
  <text id="ODIA-2" data-name="ODIA" class="cls-3" transform="translate(662.5 851.197) scale(0.761)">ODIA</text>
  <text id="ICHADIH-2" data-name="ICHADIH" class="cls-3" transform="translate(487 615.961) scale(0.648)">ICHADIH</text>
</svg>
