<svg xmlns="http://www.w3.org/2000/svg" width="1200" height="1200" viewBox="0 0 1200 1200">
  <defs>
    <style>
      .cls-1 {
        fill: #dbfff4;
        stroke: #22acaa;
        stroke-width: 2px;
        fill-rule: evenodd;
      }

      .cls-2 {
        font-size: 33.546px;
        font-family: "Microsoft New Tai Lue";
        text-transform: uppercase;
      }
    </style>
  </defs>
  <path id="TENGADIH" class="cls-1" d="M586.5,939c-7.655-4.593-23.285-15-31.5-15l-1.5-40.5c9.131-9.131,10.5-22.1,10.5-34.5,6.536,0,19.635-24,33-24l4.5-1.5L603,822l21-4.5c17.821,0,30.4.4,40.5,10.5,27.482,0,63.283,19.2,94.5,27,30.895,7.724,87.873,5.373,108,25.5,7.179,0,31.5,11.46,31.5,19.5,2.559,0,1.5,2.13,1.5,4.5,0,18.546,3,35.473,3,55.5,0,19.877,16.929,127.5-10.5,127.5,9.419,7.06-1.9,21-12,21-6.448,6.45-50.71,1.79-55.5-3-23.662,0-69-19.17-69-43.5l-10.5-15c-11.328-11.33-30-19.17-30-39l-3-1.5c0-10.615-21-11.379-21-21C671.144,985.5,585,959.307,585,942Z"/>
  <path id="TILLA" class="cls-1" d="M357,594c6.352,25.409,6,37.883,6,67.5-6.332,6.332-10.5,38.04-10.5,46.5-2.276,0-28.5,48.99-28.5,54-19.224,19.224-52.5,53.379-52.5,81l1.5,3c20.367,0,32.914,12,54,12,0,0,17.647-46.147,19.5-48,15.477-15.477,35.547-15,60-15,0-12.473,68.9-9,82.5-9,0-18.668,13.28-16.28,21-24,0-7.007,3-15.461,3-19.5,9.4,0,22.221-4.221,28.5-10.5,0-31.191,20.371-36.871,39-55.5,0-17.371,8.835-26.835,19.5-37.5,0-17.682,6-37.3,6-55.5,11.3-11.3,28.154-39.346,15-52.5-16.875,0-31.954-7.651-49.5-13.5-39.978-13.326-69-8.082-69-61.5l-9-10.5c-36.994,0-58.5,5.406-58.5,43.5-4.475,4.475-9,20.171-9,27-10.032,10.031-22.5,41.228-22.5,52.5l-3,3c-0.476,0-42,22.5-42,22.5H357Z"/>
  <path id="LAKRI" class="cls-1" d="M370.5,609c-12.831-12.831-7.5-41.912-7.5-60-24.342-24.342-34.634-94.366-7.5-121.5,0-3.954,10.3-53.8,15-58.5l1.5-3c0-27.748,3.531-56.655,9-84,3.335-16.673,19.5-42.964,19.5-55.5l27-22.5c6.86-3.43,27-15.112,27-19.5l48-22.5c15.084,0,28.787-4.5,45-4.5h27l25.5,6c1.391,1.391,25.5,18,25.5,18,0,6.034,21,22.421,21,34.5,0,2.8-.174,4.5,3,4.5q3,17.248,6,34.5c6.318,18.953,19.458,45.084,9,66-29.06,29.06-30,11.5-63,22.5C554.007,359.331,498,377.839,498,438l-1.5,1.5c0,14.786-15,28.91-15,43.5l-3,6c-4.8,4.8-21.5,29.258-27,37.5L450,531c-5.953,5.953-42,45.4-42,51-7.633,0-39,13.5-39,13.5v15Z"/>
  <path id="LUPUNGDIH" class="cls-1" d="M301.5,765c4.877-9.753,43.5-50.193,43.5-54,3.765,0,19.5-15.767,19.5-19.5l3-1.5c0-10.716,24-13.764,24-21,14.144,0,19.613-22.5,34.5-22.5l3-3L477,609c6.369,0,77.886-38.886,81-42l39-9c21.579-7.193,45.438,10.5,64.5,10.5,2.94,2.94,8.281,7.5,12,7.5,0,6.992,6.278,21.278,10.5,25.5,0,11.025,4.5,21.737,4.5,34.5l-6,9c-15.169,0-18.017,52.517-25.5,60-7.99,0-22.516,60.024-31.5,73.5-2.968,4.452-14.128,17.128-18,21,0,18.726-22.884,103.884-33,114l-3,3-3,3c-3.619,0-15,7.248-15,9-10.785,0-27.565,4.266-40.5,7.5-11.321,2.83-63-8.23-63-15-6.926,0-20.586-2.586-25.5-7.5-22.909,0-59.924-8.924-75-24-17.788,0-33.365-6-49.5-6L267,861c-30.333-30.333-2.607-96,30-96h4.5Z"/>
  <path id="JHIMRI" class="cls-1" d="M173.75,333q0.5-5,1-10c-4.805,0-10.7-5.7-14-9,0-15.72,9.057-12,23-12l10-6c0-29.33,52.85-25,80-25,0,5.045,36.755,17,49,17l7-8c0-14.243-5-19.986-5-33l2-1c20.717,0,45-8.146,45-30,2.978,0,7-5.911,7-9l22-8c11.471,0,23.856-3,37-3,0,4.883,10,3.66,10,10,4.2,0-1.027,26.027-3,28l-1,3c-5.119,0-12.849,14-21,14,0,8.765-28.688,46-36,46,0,17.189-8,28.22-8,47l2,3c0,16.22,14.251,36.246,8,55-6.378,19.133-12,35.391-12,57l-12,18-18-3c0-2.607-7.381-14-10-14,0-23.885-35-41.415-35-72-11.845,0-85-25.393-85-37l-42-21Z"/>
  <path id="CHIGRAPARKIDIH" class="cls-1" d="M652.75,264v17l44,26,17,26q2.5,16,5,32c0,4.837.825,15.3,0.937,26.021,0.164,15.707-1.2,31.979-8.937,31.979-13.2,13.2-44.436,9-63,9l-15,5c0,8.663-14.264,26.264-21,33q-1,21-2,42h-8l-7-3V474l-8-11c-7.427,0-14.391-4-19-4q-1,3-2,6h-10c-7.671-3.836-22-38.066-22-47l-23-12c0-11.049-6-14.316-6-24,0-10.125,6-16.963,6-24,3.365,0,26-7.946,26-12,22.808,0,32.783-13,55-13l26-15c0-5.844,35-51,35-51v-3Z"/>
  <path id="ADARDIH" class="cls-1" d="M813,457.5C786.1,484.4,750.1,501,712.5,501l-3,3c-12.844,0-25.436,16.5-39,16.5C643.006,547.994,563.709,540,519,540l-1.5-1.5-3-3V534c-3.5,0-36.932-40.5-46.5-40.5L460.5,474c-9.2-27.608,16.5-49.566,16.5-66l21-19.5c7.026,0,18.021-4.5,28.5-4.5,0,4.342,39,25.5,39,25.5h60L678,390h24c22.425-7.475,103.5-23.816,103.5,13.5,12.906,0,22.5,32.241,22.5,48l-12,6h-3Z"/>
  <path id="HEVEN" class="cls-1" d="M84,423c4.087-16.35,16.5-30.587,16.5-45l39-3c0-2.362,10.918-12,13.5-12,4.634-4.634,12.378-31.5,19.5-31.5,0-6.787,27.714,3,28.5,3L222,348c19.156,19.156,60.342,25.5,91.5,25.5v39L333,426c0,35.566,38.055,60.555,57,79.5v54h-1.5l-21,37.5-3,1.5H354c0-14.639-22.335-25.5-37.5-25.5,0,0-21.962-19.5-27-19.5,0-5.333-32-6-39-6-39.079,0-79.376-3-120-3-4.7-4.7-66.7-37.5-69-37.5,0-23.325,7.5-41.411,7.5-63l15-25.5V423Z"/>
  <path id="GORDIH" class="cls-1" d="M862.5,535.5c-5.235,6.98-40.5,44.713-40.5,45L793.5,594c-6.625,0-50.793,8.793-54,12,0,14.605-15.828,22.5-31.5,22.5,0,2.277-10.222,25.5-13.5,25.5,0,24.489-54,62.709-54,64.5h-24C591.938,693.938,594,667.666,594,633c1.157,0,10.5-27.1,10.5-33-17-17-19.5-46.263-19.5-76.5l4.5-4.5c39.765,0,69.745-37.5,112.5-37.5,0-2.006,17.258-9,21-9,10.68-10.68,52.749-24.278,67.5-21,11.147,2.477,40.756-13.244,51-3,0,28.9,60.55,56.45,34.5,82.5l-10.5,3Z"/>
  <path id="SAMANPUR" class="cls-1" d="M897,898.5c-16.295,4.656-39.619,14.119-48,22.5-28.12,0-55.888-.388-73.5-18-40.745,0-73.657-17.289-112.5-27-48.677-12.169-65.75,1.75-100.5-33,0-38.381-1.538-61.462,24-87,0-5.359,6.351-16.851,10.5-21,0-15,22.96-46.5,37.5-46.5,13.333-13.333,9.888-31.5,30-31.5l84,40.5c3.135,2.09,28.5,36.938,28.5,37.5,4.252,2.126,38.391,21.891,40.5,24,14.284,0,63,16.479,63,24,4.782,0,46.5,36.873,46.5,37.5,0,26.3-13.5,46.612-13.5,69-2.983,2.983-7.5,4.814-7.5,9h-9Z"/>
  <path id="CHALIYAMA" class="cls-1" d="M904.5,796.5c-6.589,0-46.5,1.012-46.5-9H789c-0.136-.136-45-21-45-21-6.757-13.514-9-27.556-9-43.5-12.51-12.51-10.5-37.611-10.5-57,38.219,0,83.416-15,124.5-15,9.736,0,48.106-.106,54-6l33,1.5c0,0.72,16.5,13.5,16.5,13.5,0,17.538,15,46.507,15,63,0,5.454.475,25.5-6,25.5,0,4.244-16.321,12-21,12-7.573,7.573-15,17.974-15,31.5-7.154,0-10.132,7.5-19.5,7.5Z"/>
  <path id="CHIGRAPARKIDIH-2" data-name="CHIGRAPARKIDIH" class="cls-1" d="M840,534c10.249,0,19.833,3,33,3,14.553-14.553,63.685-19.5,88.5-19.5,0,5.833-.6,8.4,3,12,0,35.419-3,69.012-3,105-4.623,4.623-15,11.929-15,16.5-26.182,0-52.076,10.859-78,19.5h-36L810,678c-15.911,0-28.043-6-42-6-18.738,18.738-68.484,12-99,12,0-.705-11.441-14.441-13.5-16.5v-18c6.043-6.043,13.436-11.936,21-19.5,0-6.749,5.045-18.545,9-22.5,5.665,0,27-11.791,27-18,10.455,0,32.456-8.456,39-15L786,573c0-3.036,35.33-19.5,40.5-19.5l12-19.5H840Z"/>
  <path id="BADEDA" class="cls-1" d="M963,589.5c21.012,42.024,108.63,40.5,165,40.5,0,23.228,3,53.5,3,81-18.19,18.19-34.83,24-72,24,0-4.5-17.73-7.5-24-7.5-9.02,0-10.7,19.5-24,19.5l-1.5,3L975,748.5l-19.5-9V693c-5.3,0-25.5-36.894-25.5-42l7.5-9c0-4.691,11.2-25.5,15-25.5,0-7.445,3-16.2,3-27L963,588v1.5Z"/>
  <text id="JHIMRI-2" data-name="JHIMRI" class="cls-2" transform="translate(273 334.616) scale(0.653)">JHIMRI</text>
  <text id="HEVEN-2" data-name="HEVEN" class="cls-2" transform="translate(117.5 498.529) scale(0.685)">HEVEN</text>
  <text id="LAKRI-2" data-name="LAKRI" class="cls-2" transform="translate(426 351.356) scale(0.697)">LAKRI</text>
  <text id="CHIGRAPARKIDIH-3" data-name="CHIGRAPARKIDIH" class="cls-2" transform="translate(766.5 624.498) scale(0.649)">CHIGRAPARKIDIH</text>
  <text id="BADEDA-2" data-name="BADEDA" class="cls-2" transform="translate(1011 686.74) scale(0.675)">BADEDA</text>
  <text id="SAMANPUR-2" data-name="SAMANPUR" class="cls-2" transform="translate(735.5 829.175) scale(0.708)">SAMANPUR</text>
  <text id="TENGADIH-2" data-name="TENGADIH" class="cls-2" transform="translate(757 964.618) scale(0.671)">TENGADIH</text>
  <text id="LUPUNGDIH-2" data-name="LUPUNGDIH" class="cls-2" transform="translate(398.5 785.281) scale(0.624)">LUPUNGDIH</text>
  <text id="TILLA-2" data-name="TILLA" class="cls-2" transform="translate(374.5 629.712) scale(0.709)">TILLA</text>
  <text id="ADARDIH_" data-name="ADARDIH " class="cls-2" transform="translate(623 482.563) scale(0.634)">ADARDIH</text>
  <text id="CHIGRAPARKIDIH-4" data-name="CHIGRAPARKIDIH" class="cls-2" transform="translate(519.5 400.146) scale(0.619)">CHIGRAPARKIDIH</text>
  <text id="CHALIYAMA-2" data-name="CHALIYAMA" class="cls-2" transform="translate(810 722.898) scale(0.593)">CHALIYAMA</text>
  <text id="GORDIH-2" data-name="GORDIH" class="cls-2" transform="translate(711 545.282) scale(0.624)">GORDIH</text>
</svg>
