<svg xmlns="http://www.w3.org/2000/svg" width="1200" height="1200" viewBox="0 0 1200 1200">
  <defs>
    <style>
      .cls-1 {
        fill: #dbfff4;
        stroke: #22acaa;
        stroke-width: 2px;
        fill-rule: evenodd;
      }

      .cls-2, .cls-3 {
        font-size: 33.546px;
        font-family: "Microsoft New Tai Lue";
        text-transform: uppercase;
      }

      .cls-3 {
        font-weight: 700;
      }
    </style>
  </defs>
  <path id="TENGADIH" class="cls-1" d="M892.5,1087.5c-7.043-14.09-10.5-56-10.5-72,0-7.03,1.378-25.5,4.5-25.5,0-10.971.2-36.2,7.5-43.5,0-20.961-7.5-29.365-7.5-49.5-10.055,0-19.854-9-34.5-9l-3-1.5c-19.358,0-39.129-.043-57-6H756c-14.979-4.993-70.5-26.245-70.5-28.5-4.432,0-15.487-1.987-19.5-6-28.48,0-52.606-4.5-81-4.5-11.253-11.253-23.182-21-45-21v15c0,18.116,22.5,18.781,22.5,37.5-4.582,0,3,25.46,3,31.5L588,915c27.359,0,56.413,9,84,9l40.5,15c10.281,10.281,34.5,11.532,34.5,30,3,0,7.5,4.5,7.5,7.5l6,6c0,12.218,25.042,106.04,33,114h87l4.5-3c0-4.56,6-14.52,6-18"/>
  <path id="TILLA" class="cls-1" d="M357,594c6.352,25.409,6,37.883,6,67.5-6.332,6.332-10.5,38.04-10.5,46.5-2.276,0-28.5,48.99-28.5,54-19.224,19.224-52.5,53.379-52.5,81l1.5,3c20.367,0,32.914,12,54,12,0,0,17.647-46.147,19.5-48,15.477-15.477,35.547-15,60-15,0-12.472,68.9-9,82.5-9,0-18.668,13.28-16.28,21-24,0-7.006,3-15.461,3-19.5,9.4,0,22.221-4.221,28.5-10.5,0-31.191,20.371-36.871,39-55.5,0-17.371,8.835-26.835,19.5-37.5,0-17.682,6-37.3,6-55.5,11.3-11.3,28.154-39.346,15-52.5-16.875,0-31.954-7.651-49.5-13.5-39.977-13.326-69-8.082-69-61.5l-9-10.5c-36.994,0-58.5,5.406-58.5,43.5-4.475,4.475-9,20.171-9,27-10.031,10.031-22.5,41.228-22.5,52.5l-3,3c-0.476,0-42,22.5-42,22.5H357Z"/>
  <path id="LAKRI" class="cls-1" d="M398.75,199c16.336,0,88-16.4,88-28l19-7c7.972,0,66.587-18.587,70-22h28l40,22,21,31c0,35.9-18,74.464-18,113-6.471,0-54.138,31.138-59,36l-7,3-36,5-2,1c-5.507,0-30,5.98-30,10-5.488,0-6,17.7-6,22,0,7.388-8.923,38-15,38l-3,18-2,4q-14,21-28,42c-7.178,10.767-16.127,16.816-21,29-21.265,53.161-24.313,80-82,80,0-17.6,25-47.784,25-68l-14-40c-3.117,0-19-9.112-19-12,0-3.956,14.321-40.321,18-44l2-4c0-8.544,2.675-16.026,5-23V295c5.937-5.937,37-36.925,37-41l3-6q-1-20-2-40l-8-7"/>
  <path id="LUPUNGDIH" class="cls-1" d="M312,854l26,2c0,2.009,31.129,16,38,16,2.667,0,4-1.133,4,2,12.37,0,54.005,6,62,14,6.9,0,42,14.779,42,20,8.372,0,21.843,1.843,28,8,17.219,0,68,8.509,68-12,5.252,0,4-22.466,4-28,0-23.555,18-39.657,18-66,0,0,16-33.238,16-34,3.072,0,4-2.631,4-6,17.882,0,14-29.853,14-44,9.476-9.476,16-26.409,16-40,12.871-12.871,14.02-38.02,28-52,0-3.709,1.93-20,4-20,0-15.94-4-25.944-4-40-2.211-2.211-6-3.736-6-6l-78-4c-13.254,13.254-80.165,46-106,46a70.241,70.241,0,0,1-26,16c-4.15,8.3-37.921,40-48,40-4.466,8.932-29.82,30-38,30,0,2.513-22.785,33.569-28,44-1.116,0-22,24.056-22,26-19.617,0-46,57.668-46,76h4c0,3.476,11.48,6,14,6"/>
  <path id="JHIMRI" class="cls-1" d="M173.75,333q0.5-5,1-10c-4.805,0-10.7-5.7-14-9,0-15.72,9.057-12,23-12l10-6c0-29.33,52.85-25,80-25,0,5.045,36.755,17,49,17l7-8c0-14.243-5-19.986-5-33l2-1c20.717,0,45-8.146,45-30,2.978,0,7-5.911,7-9l22-8c11.471,0,23.856-3,37-3,0,4.883,10,3.66,10,10,4.2,0-1.027,26.027-3,28l-1,3c-5.119,0-12.849,14-21,14,0,8.765-28.688,46-36,46,0,17.189-8,28.22-8,47l2,3c0,16.22,14.251,36.246,8,55-6.378,19.133-12,35.391-12,57l-12,18-18-3c0-2.607-7.381-14-10-14,0-23.885-35-41.415-35-72-11.845,0-85-25.393-85-37l-42-21Z"/>
  <path id="CHIGRAPARKIDIH" class="cls-1" d="M652.75,264v17l44,26,17,26q2.5,16,5,32c0,4.837.825,15.3,0.937,26.021,0.164,15.707-1.2,31.979-8.937,31.979-13.2,13.2-44.436,9-63,9l-15,5c0,8.663-14.264,26.264-21,33q-1,21-2,42h-8l-7-3V474l-8-11c-7.427,0-14.391-4-19-4q-1,3-2,6h-10c-7.671-3.836-22-38.066-22-47l-23-12c0-11.049-6-14.316-6-24,0-10.125,6-16.963,6-24,3.365,0,26-7.946,26-12,22.808,0,32.783-13,55-13l26-15c0-5.844,35-51,35-51v-3Z"/>
  <path id="ADARDIH" class="cls-1" d="M719.75,383c0,10.2-2.153,24.847,4,31h24l3-22h9l6,9c0,31.249,29,33.759,29,62l-16,19-17,9c-31.041,0-56.491,24-92,24-12.668,12.668-60.456,29-80,29-2.79-1.86-10-8.041-10-10l-68-12c0-16.445-21.7-25.7-31-35,0-33.955-6.029-58.971,16-81l4-20h12c0,11.316,19.056,29,32,29,0,25.627,34.033,38,59,38,0-23.75,66.124-35,87-35,5.073-5.073,26-8.956,26-17l2-1q0.5-5,1-10"/>
  <path id="HEVEN" class="cls-1" d="M84,423c4.087-16.35,16.5-30.587,16.5-45l39-3c0-2.362,10.918-12,13.5-12,4.634-4.634,12.378-31.5,19.5-31.5,0-6.787,27.714,3,28.5,3L222,348c19.156,19.156,60.342,25.5,91.5,25.5v39L333,426c0,35.566,38.055,60.555,57,79.5v54h-1.5l-21,37.5-3,1.5H354c0-14.639-22.335-25.5-37.5-25.5,0,0-21.961-19.5-27-19.5,0-5.333-32-6-39-6-39.079,0-79.376-3-120-3-4.7-4.7-66.7-37.5-69-37.5,0-23.325,7.5-41.411,7.5-63l15-25.5V423Z"/>
  <path id="GORDIH" class="cls-1" d="M796.5,451.5c-34.164,45.552-201,39.157-201,111l12,16.5c19.638,0,42.373,3,64.5,3,0,23.322-15,38.851-15,51l-27,27v16.5c0,3.487,8.1,7.5,12,7.5l1.5,13.5c8.573-17.147,16.5-32.882,16.5-51l13.5-1.5c0-22.442,39-18.488,39-43.5V615H717c9.633-9.633,11.84-34.5,24-34.5l33,1.5c8.8-8.8,23.946-6,36-6,9.184-9.184,17.53-33,30-33,0-37.128-12.149-67.649-36-91.5H790.5"/>
  <path id="SAMANPUR" class="cls-1" d="M886.5,901.5c-6.854-13.707,0-36.827,0-54-7.15,0-4.5-23.43-4.5-30,6.36-6.36,9.153-37.347,3-43.5,0-6.565-9-7.453-9-13.5L796.5,762l-9-6c0-29.971-40.5-62.437-40.5-76.5-19.96,0-32.38,1.5-54,1.5l-34.5-13.5L657,669c0,23.744-31.5,27.3-31.5,37.5l-3,28.5-9,10.5C582.728,776.272,588,795.8,588,840l13.5,7.5c25.816,0,124.5,9.032,124.5,27,2.89,0,7.5,1.1,7.5,4.5l13.5,4.5c13.415,0,74.118,6.618,81,13.5,4.11,0,21,2.416,21,6h24c0-4.232,6.445-7.5,10.5-7.5,4.21,0-1.323-3-3-3"/>
  <path id="CHALIYAMA" class="cls-1" d="M886.5,792c6.173-24.691,30.485-42,57-42,0-4.275,23.374-10.5,27-10.5,0-11.094,9-19.541,9-33-9.85,0-13.5-5.651-13.5-16.5,4.055-4.055,4.5-6.663,4.5-13.5-15.172,0-33-18.647-33-36-15.989,0-102.017,9.017-108,15-15.026,0-29.911,1.47-43.5,6-11.786,3.929-49.5,1.294-49.5,18C721.792,694.208,740.17,729,759,729c0,5.62,10.71,18,15,18,0,5.274,8.319,12,13.5,12,0,22.1,78.136,21,96,21,0,2.243-1.088,6,1.5,6"/>
  <path id="CHIGRAPARKIDIH-2" data-name="CHIGRAPARKIDIH" class="cls-1" d="M840,534c10.249,0,19.833,3,33,3,14.553-14.553,63.685-19.5,88.5-19.5,0,5.833-.6,8.4,3,12,0,35.419-3,69.012-3,105-4.623,4.623-15,11.929-15,16.5-26.182,0-52.076,10.859-78,19.5h-36L810,678c-15.911,0-28.043-6-42-6-18.738,18.738-68.484,12-99,12,0-.705-11.44-14.44-13.5-16.5v-18c6.043-6.043,13.436-11.936,21-19.5,0-6.749,5.045-18.545,9-22.5,5.665,0,27-11.791,27-18,10.455,0,32.456-8.456,39-15L786,573c0-3.036,35.33-19.5,40.5-19.5l12-19.5H840Z"/>
  <path id="BADEDA" class="cls-1" d="M963,589.5c21.012,42.024,108.63,40.5,165,40.5,0,23.228,3,53.5,3,81-18.19,18.19-34.83,24-72,24,0-4.5-17.73-7.5-24-7.5-9.02,0-10.7,19.5-24,19.5l-1.5,3L975,748.5l-19.5-9V693c-5.3,0-25.5-36.894-25.5-42l7.5-9c0-4.691,11.2-25.5,15-25.5,0-7.445,3-16.2,3-27L963,588v1.5Z"/>
  <text id="JHIMRI-2" data-name="JHIMRI" class="cls-2" transform="translate(273 334.616) scale(0.653)">JHIMRI</text>
  <text id="HEVEN-2" data-name="HEVEN" class="cls-2" transform="translate(117.5 498.529) scale(0.685)">HEVEN</text>
  <text id="LAKRI-2" data-name="LAKRI" class="cls-2" transform="translate(426 351.356) scale(0.697)">LAKRI</text>
  <text id="CHIGRAPARKIDIH-3" data-name="CHIGRAPARKIDIH" class="cls-2" transform="translate(766.5 624.498) scale(0.649)">CHIGRAPARKIDIH</text>
  <text id="BADEDA-2" data-name="BADEDA" class="cls-2" transform="translate(1011 686.74) scale(0.675)">BADEDA</text>
  <text id="NIMDIH" class="cls-3" transform="translate(439.168 629.299) rotate(1.345) scale(1.543)">NIMDIH</text>
  <text id="SAMANPUR-2" data-name="SAMANPUR" class="cls-2" transform="translate(735.5 829.175) scale(0.708)">SAMANPUR</text>
  <text id="TENGADIH-2" data-name="TENGADIH" class="cls-2" transform="translate(757 964.618) scale(0.671)">TENGADIH</text>
  <text id="LUPUNGDIH-2" data-name="LUPUNGDIH" class="cls-2" transform="translate(398.5 785.281) scale(0.624)">LUPUNGDIH</text>
  <text id="TILLA-2" data-name="TILLA" class="cls-2" transform="translate(374.5 629.712) scale(0.709)">TILLA</text>
  <text id="ADARDIH_" data-name="ADARDIH " class="cls-2" transform="translate(623 482.563) scale(0.634)">ADARDIH</text>
  <text id="CHIGRAPARKIDIH-4" data-name="CHIGRAPARKIDIH" class="cls-2" transform="translate(519.5 400.146) scale(0.619)">CHIGRAPARKIDIH</text>
  <text id="CHALIYAMA-2" data-name="CHALIYAMA" class="cls-2" transform="translate(810 722.898) scale(0.593)">CHALIYAMA</text>
  <text id="GORDIH-2" data-name="GORDIH" class="cls-2" transform="translate(711 545.282) scale(0.624)">GORDIH</text>
</svg>
