<svg xmlns="http://www.w3.org/2000/svg" width="1062" height="953" viewBox="0 0 1062 953">
  <defs>
    <style>
      .cls-1, .cls-2, .cls-3, .cls-4, .cls-5, .cls-6, .cls-7, .cls-8 {
        fill: #d4f4cc;
        stroke: #363636;
        fill-rule: evenodd;
      }

      .cls-1 {
        stroke-width: 0.29px;
      }

      .cls-2 {
        stroke-width: 0.37px;
      }

      .cls-3 {
        stroke-width: 0.59px;
      }

      .cls-4 {
        stroke-width: 0.22px;
      }

      .cls-5 {
        stroke-width: 0.15px;
      }

      .cls-6 {
        stroke-width: 0.51px;
      }

      .cls-7 {
        stroke-width: 0.81px;
      }

      .cls-8 {
        stroke-width: 0.73px;
      }

      .cls-9 {
        font-size: 102.167px;
      }

      .cls-10, .cls-11, .cls-12, .cls-13, .cls-14, .cls-15, .cls-16, .cls-17, .cls-18, .cls-19, .cls-20, .cls-21, .cls-22, .cls-23, .cls-24, .cls-25, .cls-26, .cls-27, .cls-28, .cls-29, .cls-30, .cls-9 {
        fill: #353535;
        font-family: "Microsoft New Tai Lue";
        text-transform: uppercase;
      }

      .cls-10 {
        font-size: 116.348px;
      }

      .cls-11 {
        font-size: 113.81px;
      }

      .cls-12 {
        font-size: 104.221px;
      }

      .cls-13 {
        font-size: 99.58px;
      }

      .cls-14 {
        font-size: 110.38px;
      }

      .cls-15 {
        font-size: 135.986px;
      }

      .cls-16 {
        font-size: 106.668px;
      }

      .cls-17 {
        font-size: 106.956px;
      }

      .cls-18 {
        font-size: 112.307px;
      }

      .cls-19 {
        font-size: 118.17px;
      }

      .cls-20 {
        font-size: 124.053px;
      }

      .cls-21 {
        font-size: 119.345px;
      }

      .cls-22 {
        font-size: 121.741px;
      }

      .cls-23 {
        font-size: 121.767px;
      }

      .cls-24 {
        font-size: 96.601px;
      }

      .cls-25 {
        font-size: 141.593px;
      }

      .cls-26 {
        font-size: 144.545px;
      }

      .cls-27 {
        font-size: 99.227px;
      }

      .cls-28 {
        font-size: 142.845px;
      }

      .cls-29 {
        font-size: 62.218px;
      }

      .cls-30 {
        font-size: 101.659px;
      }
    </style>
  </defs>
  <path id="KURMA" class="cls-1" d="M838.19,350.081L678.849,328.61c0-78.549,66.771-87.84,66.771-99.78h28.833c0,27.422,118.368,32.072,118.368,90.938l-60.7,29.05"/>
  <path id="DUMARDIH" class="cls-1" d="M559.654,95.483c33.353,0,35.863,32.3,52.3,48.739,59.913,0,287.673,114.758,287.673-21.4-18.942-18.942-73.749-20.852-82.07-18.474s-20.47.643-30.859,0.643c0-45.4-229.426-131.361-229.426-10.7l7.132,1.189"/>
  <path id="GENGERULI" class="cls-2" d="M797.722,86.182C744.729,99.43,752.55,127.34,752.55,168.205c16.02,0,149.7,28.608,158.1,20.208q1.784,19.612,3.566,39.228c19.451,0,45.652,54.682,78.457,54.682,25.885,0,53.5-106.434,53.5-142.648q-12.48-16.046-24.97-32.1c-45.51,0-230.61-53.6-230.61-16.642"/>
  <path id="HERMA" class="cls-2" d="M142.923,738.534c34.958-8.745,35.334-21.019,69.442,13.111l24.239,7.211c31.366,0,53.841-17.7,84.508-17.7,7.575,7.58,20.094,27.1,24.894,36.71,22.27,11.142,54.374,6.4,54.374,36.71l2.62,1.966c0,39.564-20.065,30.51-52.408,41.3l-41.272,17.7c-12.089,24.193-6.838,53.193-32.1,61.619-25.183,8.4-91.409-48.858-108.747-66.208L154.06,798.187l-15.722-9.833c-25.434,0-37.341-5.417-37.341-32.121,1.171,0-1.468,5.982,3.773-.573s29.365-19.092,42.084-19.092"/>
  <path id="JONBANI_" data-name="JONBANI " class="cls-3" d="M546.75,695.5c-34.883-8.721-44.393-23-89-23v2c-10.474,0-20,12-26,18l-7,18c0,25.72-39.128,58.128-54,73,0,11.007-5,24.982-5,40,1.546,0,15.347,16,36,16l2-1,6-3c0-5.315,60-21.489,60-25l5-3,28-10c13.547,0,34.456-6.456,43-15l16-22c0-16.162,1-37.387,1-55-3.157,0-15-6.96-15-10h-1Z"/>
  <path id="KATANGA_" data-name="KATANGA " class="cls-4" d="M13.158,615.169c117.707,58.853,103.038,15.844,208.028-26.152l73.7-2.378,15.453-15.453c0-44.152-1.121-90.612,9.51-133.139l32.1-74.89L304.4,354.836,255.66,371.478c0-35.663-56.953-46.36-91.533-46.36,0,50.079-132.151,42.009-135.516,48.738l-4.755,34.473c24.36,0,47.647,68.947,86.778,68.947l5.944,45.171L89.237,568.808c-15.725,0-74.89,23.458-74.89,35.662l-1.189,11.888v-1.189Z"/>
  <path id="BANDU_" data-name="BANDU " class="cls-1" d="M162.938,565.242c0,51.292,93.957,87.719,140.271,78.456,115.664-23.132,233.262-73.971,311.448-152.158q-1.188-4.16-2.377-8.321c-31.592,0-86.79-19.019-128.384-19.019q-22.583-55.272-45.171-110.553c-31.751,0-62.682-16.642-99.854-16.642l-89.155,28.53-7.133,10.7q-1.188,5.943-2.377,11.888l-11.887,49.926c-43.333,21.667-54.682,59.195-54.682,104.609q-4.755,10.7-9.51,21.4Z"/>
  <path id="BANA" class="cls-4" d="M837.982,195.216c-87.478,0-56.424,24.721-93.3,61.631,0,17.174-8.011,41.634-18.66,52.292l-69.044,5.6c-44.964,45-80.778,78.439-143.686,78.439,0,14.327-29.631,16.808-41.053,16.808-8.24-8.246-16.428-18.309-24.258-26.146,0-43.056,6.719-53.415,33.589-80.306,0-20.927,7.464-46.968,7.464-65.366,25.7,0,50.383-35.948,50.383-63.5l89.57-42.955c27.015,0,54.421-3.735,82.107-3.735,0,1.483,97.786,54.16,125.025,54.16v14.941Z"/>
  <path id="RAJNAGAR" class="cls-2" d="M547.723,699.569c-90.041,0-139.082-24.471-139.082-116.5,15.844-15.844,88.906-34.473,115.308-34.473l20.208-21.4c0-68.231,159.334-43.777,193.764-38.039,51.448,8.575,78.352-29.718,116.5-29.718l3.566-1.189,3.566,7.132c0,36.627-42.794,60.913-42.794,85.589-33.612,0-64.981,53.093-90.344,78.457l-49.927,17.831H542.968c-7.841,3.92-9.959,9.468-16.642,13.076-4.784,2.582,1.189,15.112,1.189,21.4L545.346,696Z"/>
  <path id="GOVINDPUR" class="cls-2" d="M595.66,265.635s26.393,129.852,26.062,131.431c-4.131,19.71-24.629,37.072-13.651,58.02l43.436,39.074c34.124-16.279,44.755-34.338,88.114-34.338,10.51-20.055,83.009-101.965,63.293-120.775L687.5,328.39l-1.241-1.184q1.861-26.046,3.723-52.1c0-20.251-73.221-41.442-86.872-28.417q-4.965,10.655-9.929,21.313l2.482,2.368"/>
  <path id="RAJNAGAR-2" data-name="RAJNAGAR" class="cls-2" d="M634.488,266.492c-51.877-25.938-127.828-22.586-193.763-22.586l-54.682,23.775c0,4.392-1.881,46.556-2.378,47.549-9.69,9.691-15.453,14.369-15.453,30.907,36.8,0,111.741,79.079,111.741,123.629l24.963,13.076c43.853,0,90.3-1.189,129.572-1.189,4.074-4.074-15.882-30.649-10.7-79.645,3.519-33.263,33.284-92.113,33.284-102.231q-9.508-19.018-19.02-38.04l-11.887,1.189"/>
  <path id="TINTIDIH" class="cls-4" d="M751.362,241.906q1.782,8.914,3.566,17.831c12.354,0,68.946,19.447,68.946,35.662,44.337,0,100.421-10.7,137.894-10.7,0-194.05-210.406-116.188-210.406-38.04"/>
  <path id="EDAL_" data-name="EDAL " class="cls-2" d="M620.877,647.265c24-12,36.851-57.7,36.851-84.4,40.635,0,78.093-22.585,111.741-22.585l21.4,19.019L764.714,585.45c0,54.263-94.806,63-142.648,63v-3.566Q621.472,646.076,620.877,647.265Z"/>
  <path id="TUMUNG_" data-name="TUMUNG " class="cls-2" d="M672.905,483.4l71.324-46.361,21.4-29.718c0-86.112,141.073-135.516,212.783-135.516,44.22,44.215-52.17,184.254-93.91,184.254,0,43.279-65.442,104.608-104.609,104.608,0-50.48-103.42-28.129-103.42-80.833Z"/>
  <path id="BADASIJULDA_" data-name="BADASIJULDA " class="cls-5" d="M675.813,484.78c22.851-11.426,45.307-7.485,72.435-14.267,13.591-3.4,69.729-40.683,74.63-50.485l20.853-7.683c10.977,0,58.167-5.194,58.167,6.585,0.468,0,3.837,37.315-2.2,37.315l-19.755,9.878c0,33.639-67.065,98.775-95.482,98.775-5.777-5.777-31.828-26.064-31.828-31.828-20.779,0-44.614-8.78-64.752-8.78,0-10.732-12.073-30.366-12.073-42.8v3.292Z"/>
  <path id="POTKA" class="cls-2" d="M107.949,782.683q1.782-5.349,3.566-10.7L175.707,760.1l28.529-49.927c27.825-41.737,46.361-5.977,46.361-80.834-22.768,0-65.043-162.857-159.29-162.857q5.943,32.688,11.888,65.381L79.419,565.144c-47.03,0-84.4,29.289-84.4,76.079L-2.6,644.79c0,27.716,56.432,17.2,71.324,32.1l5.944,8.322c7.8,7.8,20.553,95.1,32.1,95.1Z"/>
  <path id="_JUMAL_" data-name=" JUMAL " class="cls-2" d="M536.705,651.051c-3.723-14.892-4.939-27.465-4.939-42.8l6.037-4.39c20.341,0,71.337-4.418,71.337-29.084l21.95-6.585,26.889,1.1q2.469,21.124,4.939,42.253c-5.124,5.124-2.491,33.474-11.524,33.474q-1.1,1.371-2.2,2.744c-35.127,0-75.726-1.1-111.945-1.1q-0.823,1.647-1.646,3.293Q536.156,650.5,536.705,651.051Z"/>
  <path id="KENDMUNDI" class="cls-5" d="M775.686,369.543c27.054-5.411,59.851,13.34,76.825,7.682,26.565-8.855,43.945-23.047,69.142-23.047,4.713,4.713,14.268,14.918,14.268,21.95,47.522,0,53.777-46.923,53.777-92.19-6.486,0-18.471-27.485-40.607-21.95-7.465,1.866-50.236,21.7-54.875,26.34-36.294,0-113.043,43.616-113.043,76.825l-7.682,5.487Z"/>
  <path id="GAMAHARIA_" data-name="GAMAHARIA " class="cls-6" d="M182.292,430.789q0.683,24.981,1.363,49.966l12.268,15.466,24.534,5.949c22.305,0,38.74-1.357,58.611-7.138,14.588-4.245,32.969,3.569,43.618,3.569l9.541,19.035c19.357,50.684,91.921,36.358,126.763,5.948l32.713-11.9c31.564,0,65.011-1.189,98.139-1.189q0.681-1.191,1.363-2.38c10.4,0,17.259-54.725,9.541-54.725,0-25.156-89.392-47.092-107.68-63.054q-0.682-1.784-1.363-3.569c-14.048,0-27.44-37.036-38.165-46.4,0-14.079-14.37-22.7-20.446-33.311C411.869,270.013,378.885,257.1,329.5,257.1l-29.987,2.379c-72.349,42.1-125.4,107.9-125.4,185.591l13.63,5.948"/>
  <path id="VIJADIH" class="cls-7" d="M339.72,653.9c-8.776-1.264-44.259-9.424-44.259-13.159-3.171,0-34.517,5.056-10.246.121s-40.58,1.524-54,1.524l-14.277,9.046c0,5.3-7.611,32.9-22.843,32.9,0,27.7-11.991,63.822,21.415,83.066l9.994,8.224c0,5.2,15.435,21.383,21.416,21.383,14.625-8.425,33.283-10.692,57.109-10.692,0-1.155,42.891-17.271,47.114-17.271L354,760.811c-9.422,0-35.693-24.678-35.693-32.9l27.126-19.739V657.184l-9.994-3.289h4.283Z"/>
  <path id="DHURIPADA" class="cls-6" d="M272.057,646.17c2.746-5.161,5.361-18.651,10.506-18.651,0-6.9,33.127-7.681,40.855-7.681l21.011-2.194c14.9-14,69.109-3.066,79.375,6.583,0,36.953,49.026,30.868,49.026,62.538-2.532,0-26.848,44.748-26.848,51.567-17.369,0-43.653,14.369-53.7,28.526-10.326,14.559-2.158,40.6-30.349,40.6l-18.676,26.332c-23.532,0-46.082-19.749-51.361-19.749V799.773c3.925,0,16.342-2.488,16.342-6.583l1.167-18.652c19.847,0,10.506-29.151,10.506-39.5-5.044,0-1.167-25.881-1.167-29.623,18.506-17.394-30.372-77.877-47.859-61.441Z"/>
  <path id="KUJU_" data-name="KUJU " class="cls-8" d="M9.5,593c9.672-7.737,18.689-16.8,31.5-22,10.667-4.331,24.646-5.5,37.5-5.5l25-37.5c-3-21.181-12.5-41.868-12.5-60,55.7,3,45.726,20.726,66.5,41.5l9.5,19,9.5,21q-1.25,19.248-2.5,38.5l3.5,7.5-7,8.5,3.5,3-2.5,2,4,3c0,5.363-1.959,26.959-6.5,31.5-10.193,0-24.587,2.087-32,9.5-10.014,0-31.535-3.491-37.5-2-7.677,1.919-11.607,4-20,4-5.5-5.5-6-16.258-6-24L62,614.5c-6.16,0-25.86-4.43-32-7.5-8.747-4.373-13.245-14-20.5-13.5V593Z"/>
  <text id="HERMA-2" data-name="HERMA" class="cls-9" transform="translate(209.153 863.879) scale(0.131)">HERMA</text>
  <text id="DUMARDIH-2" data-name="DUMARDIH" class="cls-10" transform="translate(620.633 89.378) scale(0.115)">DUMARDIH</text>
  <text id="RAJNAGAR-3" data-name="RAJNAGAR" class="cls-11" transform="translate(504.878 340.593) scale(0.117)">RAJNAGAR</text>
  <text id="GOVINDPUR-2" data-name="GOVINDPUR" class="cls-12" transform="translate(648.3 395.295) scale(0.128)">GOVINDPUR</text>
  <text id="KURMA-2" data-name="KURMA" class="cls-13" transform="translate(744.341 308.78) scale(0.134)">KURMA</text>
  <text id="TINTIDIH-2" data-name="TINTIDIH" class="cls-14" transform="translate(825.755 238.671) scale(0.121)">TINTIDIH</text>
  <text id="TUMUNG_2" data-name="TUMUNG " class="cls-15" transform="translate(891.432 394.608) scale(0.098)">TUMUNG </text>
  <text id="KUJU_2" data-name="KUJU " class="cls-16" transform="translate(92.673 595.934) scale(0.125)">KUJU </text>
  <text id="POTKA-2" data-name="POTKA" class="cls-17" transform="translate(111.239 707.512) scale(0.125)">POTKA</text>
  <text id="VIJADIH-2" data-name="VIJADIH" class="cls-18" transform="translate(229.179 722.715) scale(0.119)">VIJADIH</text>
  <text id="DHURIPADA-2" data-name="DHURIPADA" class="cls-19" transform="translate(350.953 705.531) scale(0.113)">DHURIPADA</text>
  <text id="JONBANI_2" data-name="JONBANI " class="cls-20" transform="translate(436.558 782.798) scale(0.107)">JONBANI </text>
  <text id="KATANGA_2" data-name="KATANGA " class="cls-21" transform="translate(90.846 416.753) scale(0.112)">KATANGA </text>
  <text id="BANDU_2" data-name="BANDU " class="cls-22" transform="translate(302.664 578.913) scale(0.11)">BANDU </text>
  <text id="GAMAHARIA_2" data-name="GAMAHARIA " class="cls-23" transform="translate(332.277 409.561) scale(0.109)">GAMAHARIA </text>
  <text id="_JUMAL_2" data-name=" JUMAL " class="cls-24" transform="translate(573.754 632.701) rotate(-2.572) scale(0.138)"> JUMAL </text>
  <text id="BADASIJULDA_2" data-name="BADASIJULDA " class="cls-25" transform="translate(750.102 504.092) scale(0.094)">BADASIJULDA </text>
  <text id="EDAL_2" data-name="EDAL " class="cls-26" transform="translate(705.324 594.223) scale(0.092)">EDAL </text>
  <text id="BANA-2" data-name="BANA" class="cls-27" transform="translate(663.161 196.004) scale(0.134)">BANA</text>
  <text id="KENDMUNDI-2" data-name="KENDMUNDI" class="cls-28" transform="translate(858.643 331.596) scale(0.093)">KENDMUNDI</text>
  <text id="RAJNAGAR-4" data-name="RAJNAGAR" class="cls-29" transform="translate(473.819 605.662) rotate(-21.834) scale(0.382)">RAJNAGAR</text>
  <text id="GENGERULI-2" data-name="GENGERULI" class="cls-30" transform="translate(880.968 137.645) scale(0.131)">GENGERULI</text>
</svg>
