<svg xmlns="http://www.w3.org/2000/svg" width="1062" height="953" viewBox="0 0 1062 953">
  <defs>
    <style>
      .cls-1, .cls-2, .cls-3, .cls-4, .cls-5, .cls-6, .cls-7, .cls-8 {
        fill: #d4f4cc;
        stroke: #363636;
        fill-rule: evenodd;
      }

      .cls-1 {
        stroke-width: 0.29px;
      }

      .cls-2 {
        stroke-width: 0.37px;
      }

      .cls-3 {
        stroke-width: 0.59px;
      }

      .cls-4 {
        stroke-width: 0.22px;
      }

      .cls-5 {
        stroke-width: 0.15px;
      }

      .cls-6 {
        stroke-width: 0.81px;
      }

      .cls-7 {
        stroke-width: 0.51px;
      }

      .cls-8 {
        stroke-width: 0.73px;
      }

      .cls-9 {
        font-size: 102.167px;
      }

      .cls-10, .cls-11, .cls-12, .cls-13, .cls-14, .cls-15, .cls-16, .cls-17, .cls-18, .cls-19, .cls-20, .cls-21, .cls-22, .cls-23, .cls-24, .cls-25, .cls-26, .cls-27, .cls-28, .cls-29, .cls-30, .cls-9 {
        fill: #353535;
        font-family: "Microsoft New Tai Lue";
        text-transform: uppercase;
      }

      .cls-10 {
        font-size: 116.348px;
      }

      .cls-11 {
        font-size: 113.81px;
      }

      .cls-12 {
        font-size: 104.221px;
      }

      .cls-13 {
        font-size: 99.58px;
      }

      .cls-14 {
        font-size: 110.38px;
      }

      .cls-15 {
        font-size: 135.986px;
      }

      .cls-16 {
        font-size: 106.668px;
      }

      .cls-17 {
        font-size: 106.956px;
      }

      .cls-18 {
        font-size: 112.307px;
      }

      .cls-19 {
        font-size: 118.17px;
      }

      .cls-20 {
        font-size: 124.053px;
      }

      .cls-21 {
        font-size: 119.345px;
      }

      .cls-22 {
        font-size: 121.741px;
      }

      .cls-23 {
        font-size: 121.767px;
      }

      .cls-24 {
        font-size: 96.601px;
      }

      .cls-25 {
        font-size: 141.593px;
      }

      .cls-26 {
        font-size: 144.545px;
      }

      .cls-27 {
        font-size: 99.227px;
      }

      .cls-28 {
        font-size: 142.845px;
      }

      .cls-29 {
        font-size: 62.218px;
      }

      .cls-30 {
        font-size: 101.659px;
      }
    </style>
  </defs>
  <path id="KURMA" class="cls-1" d="M882,348.251c-13.674,0-38.343,12.343-47,21-11.985,0-25.466,4.093-40,7-16.1,3.22-82-7.555-82-20-15.007,0-36.152-4-48-4,0-11.59-1-24.893-1-37l3-5c0-12.844,9.768-25.768,19-35l24-16,26-10,28-1c7.386,7.386,52.992,25,64,25l5,4c0,0.367,52,31.786,52,35l4,5v23c-4.119,4.119-7,2.057-7,9v-1Z"/>
  <path id="DUMARDIH" class="cls-1" d="M715,155.251c-24.348-6.087-53.338-10-78-10-7.238-7.238-34.242-17-44-17,0-5-39-32.323-39-37l-4-8c0-9.566,3-18.882,3-27l3-4c8.347-8.347,15.316-20,29-20l3-2,20-4,68-2,54,13,13,7,27,27,14,22v33c0,2.408-21,12.46-21,26l-46,2Z"/>
  <path id="GENGERULI" class="cls-2" d="M824,192.251c-41.874,0-49.888-25.888-71-47v-34l6-19c15.1,0,26.3-13.3,35-22l68,1,52,9,56,19s25.681,24.681,26,25c0,25.313,35.04,86.961,16,106,0,5.454-7.11,32-9,32l-9,26H980c-16.359,0-33-24.855-33-43l-16-22-17-13-37,2c-11.162-2.233-55-14.832-55-17Z"/>
  <path id="HERMA" class="cls-2" d="M95,772.251c38.461,0,68.755-38,105-38l14,13c21.1,42.193,115,2.631,115,57,13.982,0,51.094-2.906,62,8,13.917,13.917,14,23.862,14,46-1.3,0-19.724,9.724-21,11-19.579,0-37.464,15-56,15l-14,11-14,29-10,18c-26.532,0-47.508-10-69-10l-25-20-40-29-3-5q-3-27.5-6-55c-7.827-7.828-51-33.451-51-35l-1-14v-2Z"/>
  <path id="JONBANI_" data-name="JONBANI " class="cls-3" d="M546.75,695.5c-34.883-8.721-44.393-23-89-23v2c-10.474,0-20,12-26,18l-7,18c0,25.72-39.128,58.128-54,73,0,11.007-5,24.982-5,40,1.546,0,15.347,16,36,16l2-1,6-3c0-5.315,60-21.489,60-25l5-3,28-10c13.547,0,34.456-6.456,43-15l16-22c0-16.162,1-37.387,1-55-3.157,0-15-6.96-15-10h-1Z"/>
  <path id="KATANGA_" data-name="KATANGA " class="cls-4" d="M13.158,615.169c117.707,58.853,103.038,15.844,208.028-26.152l73.7-2.378,15.453-15.453c0-44.152-1.121-90.612,9.51-133.139l32.1-74.89L304.4,354.836l-48.739,16.642c0-35.663-56.952-46.36-91.532-46.36,0,50.079-132.151,42.009-135.516,48.738l-4.755,34.473c24.359,0,47.647,68.947,86.778,68.947l5.944,45.171L89.237,568.808c-15.725,0-74.89,23.458-74.89,35.662l-1.189,11.887v-1.188Z"/>
  <path id="BANDU_" data-name="BANDU " class="cls-1" d="M213,623.319c0,34.454,63.232,58.924,94.4,52.7,77.84-15.539,156.982-49.69,209.6-102.211q-0.8-2.794-1.6-5.589c-21.261,0-58.409-12.776-86.4-12.776q-15.2-37.128-30.4-74.262c-21.368,0-42.184-11.18-67.2-11.18l-60,19.165-4.8,7.186L265,504.34l-8,33.537c-29.162,14.554-36.8,39.763-36.8,70.27q-3.2,7.185-6.4,14.373Z"/>
  <path id="BANA" class="cls-4" d="M837.982,195.216c-87.478,0-56.424,24.721-93.3,61.631,0,17.174-8.011,41.634-18.66,52.292l-69.044,5.6c-44.964,45-80.778,78.439-143.686,78.439,0,14.327-29.631,16.808-41.053,16.808-8.24-8.246-16.428-18.309-24.258-26.146,0-43.056,6.719-53.415,33.589-80.306,0-20.927,7.464-46.968,7.464-65.366,25.7,0,50.383-35.948,50.383-63.5l89.57-42.955c27.014,0,54.421-3.735,82.107-3.735,0,1.483,97.786,54.16,125.025,54.16v14.941Z"/>
  <path id="RAJNAGAR" class="cls-2" d="M547.723,699.569c-90.041,0-139.082-24.471-139.082-116.5,15.844-15.844,88.906-34.473,115.307-34.473l20.209-21.4c0-68.231,159.334-43.777,193.764-38.039,51.448,8.575,78.352-29.718,116.5-29.718l3.566-1.189,3.566,7.132c0,36.627-42.794,60.913-42.794,85.589-33.612,0-64.981,53.093-90.344,78.457l-49.927,17.831H542.968c-7.841,3.92-9.959,9.468-16.642,13.076-4.784,2.582,1.189,15.112,1.189,21.4L545.346,696Z"/>
  <path id="GOVINDPUR" class="cls-2" d="M707,491.251c-28.152,0-61.472,15.527-85-8q-2.5-7.5-5-15c0-27.34-7.1-49.69,2-77q2.5-9,5-18c0-6.012-.181-16.82,4-21,0-22.039,12.909-48,36-48l8,9c10.777,16.166,17.607,16.869,36,23,14.137,4.712,29.437,9.437,40,20,21.153,0,43,17.7,43,39-19.988,19.988-52,31.473-52,65q-2.5,4-5,8c-5.868,0-24,10.17-24,15v6Z"/>
  <path id="RAJNAGAR-2" data-name="RAJNAGAR" class="cls-2" d="M413,367.251c-10.675-5.338-24.466-21-36-21l-11-14c0-7.6,6.773-36,10-36,0-46,31.361-57,76-57,7.583-7.584,46.829-8,61-8,13.981,13.981,77.809,15,102,15l27,9,17,13,4,3c11.447,22.893,1.113,68.887-16,86q-4.5,15.5-9,31c0,15.808-1.129,79.128-9,87-15.948,15.948-92.088,12-119,12-1.653-1.653-23-10-23-10,0-19.922-28.87-80-43-80l-24-14c0-5-11-17-11-17"/>
  <path id="GAMAHARIYA" class="cls-2" d="M453,574.251c-22.561,0-44-10.3-44-38q-4.5-9.5-9-19s-33.357-26.357-36-29c-7.5,0-63.564-8.565-67-12l-3-2c0-17.146,2.4-38.8,11-56q4-10,8-20c7.852-7.853,24-33.654,24-45,17,0,36.6-13,58-13,21.285,21.285,87,61.626,87,93,3.71,0,9,18.223,9,22,7.4,7.4,12.852,24,26,24,0,2.515,3-.6,3,3,28.935,0,51.676-9,81-9,0,5.406,5,12.36,5,21l-19,24c-1.642,0-86.6,46.6-90,50l-3,1-3,2c-2.967,1.978-38,15.96-38,5v-2Z"/>
  <path id="TINTIDIH" class="cls-4" d="M918,289.251c-7.453,9.316-26.316,30-37,30-16.037,0-34.006-19.007-43-28l-33-11-57-11-12-6v-29l15-16c4.185,0,49.121-28.121,54-33,40.768,0,94.546-.227,131,18l21,25,7,23c0,7.865-2,18.368-2,24-18.862,0-27.275,15-44,15v-1Z"/>
  <path id="EDAL_" data-name="EDAL " class="cls-2" d="M620.877,647.265c24-12,36.851-57.7,36.851-84.4,40.635,0,78.093-22.586,111.741-22.586l21.4,19.02L764.714,585.45c0,54.263-94.806,63-142.648,63v-3.566Q621.472,646.075,620.877,647.265Z"/>
  <path id="TUMUNG_" data-name="TUMUNG " class="cls-2" d="M672.905,483.4l71.324-46.361,21.4-29.718c0-86.112,141.074-135.516,212.784-135.516,44.22,44.215-52.17,184.254-93.91,184.254,0,43.279-65.442,104.608-104.609,104.608,0-50.48-103.42-28.129-103.42-80.834Z"/>
  <path id="BADASIJULDA_" data-name="BADASIJULDA " class="cls-5" d="M675.813,484.78c22.851-11.426,45.307-7.485,72.435-14.268,13.591-3.4,69.729-40.682,74.63-50.485l20.853-7.682c10.977,0,58.167-5.194,58.167,6.585,0.468,0,3.837,37.315-2.2,37.315l-19.755,9.877c0,33.64-67.065,98.775-95.482,98.775-5.777-5.776-31.828-26.063-31.828-31.827-20.779,0-44.614-8.78-64.752-8.78,0-10.732-12.073-30.366-12.073-42.8v3.293Z"/>
  <path id="POTKA" class="cls-2" d="M107.949,782.683q1.782-5.349,3.566-10.7L175.707,760.1l28.529-49.927c27.825-41.737,46.361-5.977,46.361-80.834-22.768,0-65.043-162.857-159.29-162.857q5.943,32.688,11.888,65.381L79.419,565.144c-47.029,0-84.4,29.289-84.4,76.079L-2.6,644.79c0,27.716,56.432,17.2,71.324,32.1l5.944,8.322c7.8,7.8,20.553,95.1,32.1,95.1Z"/>
  <path id="_JUMAL_" data-name=" JUMAL " class="cls-2" d="M536.705,651.051c-3.723-14.892-4.939-27.465-4.939-42.8l6.036-4.39c20.342,0,71.338-4.419,71.338-29.084l21.95-6.585,26.889,1.1q2.469,21.126,4.938,42.254c-5.123,5.124-2.49,33.474-11.523,33.474q-1.1,1.371-2.2,2.744c-35.128,0-75.726-1.1-111.945-1.1l-1.647,3.293Z"/>
  <path id="KENDMUNDI" class="cls-5" d="M775.686,369.542c27.054-5.41,59.851,13.341,76.825,7.683,26.565-8.855,43.945-23.048,69.142-23.048,4.713,4.714,14.268,14.919,14.268,21.95,47.522,0,53.777-46.922,53.777-92.19-6.486,0-18.471-27.484-40.607-21.95-7.465,1.866-50.236,21.7-54.875,26.34-36.294,0-113.043,43.617-113.043,76.825l-7.682,5.488Z"/>
  <path id="VIJADIH" class="cls-6" d="M339.72,653.9c-8.776-1.264-44.259-9.424-44.259-13.159-3.171,0-34.517,5.056-10.246.121s-40.58,1.524-54,1.524l-14.277,9.046c0,5.3-7.611,32.9-22.843,32.9,0,27.7-11.991,63.822,21.415,83.065l9.994,8.225c0,5.2,15.435,21.383,21.416,21.383,14.625-8.425,33.283-10.692,57.109-10.692,0-1.155,42.891-17.271,47.114-17.271L354,760.811c-9.422,0-35.693-24.678-35.693-32.9l27.126-19.739V657.184l-9.994-3.289h4.283Z"/>
  <path id="DHURIPADA" class="cls-7" d="M272.057,646.17c2.746-5.161,5.361-18.652,10.506-18.652,0-6.9,33.127-7.68,40.855-7.68l21.011-2.194c14.9-14,69.109-3.066,79.375,6.583,0,36.953,49.026,30.868,49.026,62.538-2.532,0-26.848,44.748-26.848,51.567-17.369,0-43.653,14.369-53.7,28.526-10.326,14.559-2.158,40.6-30.349,40.6l-18.676,26.332c-23.532,0-46.082-19.749-51.361-19.749V799.773c3.925,0,16.342-2.488,16.342-6.583l1.167-18.652c19.847,0,10.506-29.151,10.506-39.5-5.044,0-1.167-25.881-1.167-29.623,18.506-17.394-30.372-77.877-47.859-61.441Z"/>
  <path id="KUJU_" data-name="KUJU " class="cls-8" d="M9.5,593c9.672-7.737,18.689-16.8,31.5-22,10.667-4.331,24.646-5.5,37.5-5.5l25-37.5c-3-21.181-12.5-41.868-12.5-60,55.7,3,45.726,20.726,66.5,41.5l9.5,19,9.5,21q-1.25,19.248-2.5,38.5l3.5,7.5-7,8.5,3.5,3-2.5,2,4,3c0,5.363-1.959,26.959-6.5,31.5-10.193,0-24.587,2.087-32,9.5-10.014,0-31.535-3.491-37.5-2-7.677,1.919-11.607,4-20,4-5.5-5.5-6-16.258-6-24L62,614.5c-6.16,0-25.86-4.43-32-7.5-8.747-4.373-13.245-14-20.5-13.5V593Z"/>
  <text id="HERMA-2" data-name="HERMA" class="cls-9" transform="translate(209.153 863.879) scale(0.131)">HERMA</text>
  <text id="DUMARDIH-2" data-name="DUMARDIH" class="cls-10" transform="translate(620.633 89.378) scale(0.115)">DUMARDIH</text>
  <text id="RAJNAGAR-3" data-name="RAJNAGAR" class="cls-11" transform="translate(504.878 340.593) scale(0.117)">RAJNAGAR</text>
  <text id="GOVINDPUR-2" data-name="GOVINDPUR" class="cls-12" transform="translate(648.3 395.295) scale(0.128)">GOVINDPUR</text>
  <text id="KURMA-2" data-name="KURMA" class="cls-13" transform="translate(744.341 308.78) scale(0.134)">KURMA</text>
  <text id="TINTIDIH-2" data-name="TINTIDIH" class="cls-14" transform="translate(825.755 238.671) scale(0.121)">TINTIDIH</text>
  <text id="TUMUNG_2" data-name="TUMUNG " class="cls-15" transform="translate(891.432 394.608) scale(0.098)">TUMUNG </text>
  <text id="KUJU_2" data-name="KUJU " class="cls-16" transform="translate(92.673 595.934) scale(0.125)">KUJU </text>
  <text id="POTKA-2" data-name="POTKA" class="cls-17" transform="translate(111.239 707.512) scale(0.125)">POTKA</text>
  <text id="VIJADIH-2" data-name="VIJADIH" class="cls-18" transform="translate(229.179 722.715) scale(0.119)">VIJADIH</text>
  <text id="DHURIPADA-2" data-name="DHURIPADA" class="cls-19" transform="translate(350.953 705.531) scale(0.113)">DHURIPADA</text>
  <text id="JONBANI_2" data-name="JONBANI " class="cls-20" transform="translate(436.558 782.798) scale(0.107)">JONBANI </text>
  <text id="KATANGA_2" data-name="KATANGA " class="cls-21" transform="translate(90.846 416.753) scale(0.112)">KATANGA </text>
  <text id="BANDU_2" data-name="BANDU " class="cls-22" transform="translate(302.664 578.913) scale(0.11)">BANDU </text>
  <text id="GAMAHARIA_" data-name="GAMAHARIA " class="cls-23" transform="translate(332.277 409.561) scale(0.109)">GAMAHARIA </text>
  <text id="_JUMAL_2" data-name=" JUMAL " class="cls-24" transform="translate(573.754 632.701) rotate(-2.572) scale(0.138)"> JUMAL </text>
  <text id="BADASIJULDA_2" data-name="BADASIJULDA " class="cls-25" transform="translate(750.102 504.092) scale(0.094)">BADASIJULDA </text>
  <text id="EDAL_2" data-name="EDAL " class="cls-26" transform="translate(705.324 594.223) scale(0.092)">EDAL </text>
  <text id="BANA-2" data-name="BANA" class="cls-27" transform="translate(663.161 196.004) scale(0.134)">BANA</text>
  <text id="KENDMUNDI-2" data-name="KENDMUNDI" class="cls-28" transform="translate(858.643 331.596) scale(0.093)">KENDMUNDI</text>
  <text id="RAJNAGAR-4" data-name="RAJNAGAR" class="cls-29" transform="translate(473.819 605.662) rotate(-21.834) scale(0.382)">RAJNAGAR</text>
  <text id="GENGERULI-2" data-name="GENGERULI" class="cls-30" transform="translate(880.968 137.645) scale(0.131)">GENGERULI</text>
</svg>
