<svg xmlns="http://www.w3.org/2000/svg" width="1200" height="1200" viewBox="0 0 1200 1200">
  <defs>
    <style>
      .cls-1, .cls-2 {
        fill: #edf8d1;
        stroke: #4da522;
        fill-rule: evenodd;
      }

      .cls-1 {
        stroke-width: 2px;
      }

      .cls-2 {
        stroke-width: 3px;
      }

      .cls-3 {
        font-size: 29.976px;
      }

      .cls-10, .cls-11, .cls-12, .cls-13, .cls-14, .cls-15, .cls-16, .cls-3, .cls-4, .cls-5, .cls-6, .cls-7, .cls-8, .cls-9 {
        font-family: "Microsoft New Tai Lue";
        text-transform: uppercase;
      }

      .cls-4 {
        font-size: 28.64px;
      }

      .cls-5 {
        font-size: 49.435px;
      }

      .cls-6 {
        font-size: 55.083px;
      }

      .cls-7 {
        font-size: 35.481px;
      }

      .cls-8 {
        font-size: 38.347px;
      }

      .cls-9 {
        font-size: 33.836px;
      }

      .cls-10 {
        font-size: 37.461px;
      }

      .cls-11 {
        font-size: 39.415px;
      }

      .cls-12 {
        font-size: 30.917px;
      }

      .cls-13 {
        font-size: 35.368px;
      }

      .cls-14 {
        font-size: 34.715px;
      }

      .cls-15 {
        font-size: 35.715px;
      }

      .cls-16 {
        font-size: 31.505px;
      }
    </style>
  </defs>
  <path id="Kamalpur" class="cls-1" d="M574,398.75q-0.5,7-1,14c-10.024,0-34,39.529-34,49-8.528,0-36,27-36,27-17.728,0-72.693,20.693-83,31q-0.5,18-1,36c10.055,0,11.445,29,20,29,0,4.6-1.3,10.7,2,14,9.057,0,34,9.411,34,21l-1,2c-14.267,0-23.045,14-40,14l1,2c18.121,0,95,18.751,95-4,6.247,0,9-1.952,9-9,10.18,0,16-25.48,16-34l20-1,3-11c19,0,37.846-1.846,48-12l14-3,4-10c8.147,0,19-7.213,19-15,20.03,0,22.275-22,40-22q0.5-11.5,1-23c-0.645,0-41.212-40-46-40,0-4.629-18.653-28-19-28-3.606-3.606-50.085-12-59-12-2.206,0-5-.069-5-3l-1-1v-2"/>
  <path id="Uperdugni" class="cls-1" d="M576,397.75q0.5,12,1,24l9,9c10.053,0,25.026,4,37,4,0,8.625-1.129,13.871,4,19h8c0,10.833,4,18.532,4,28,3.15,0,7.36,3,13,3,0-5.594,14.852-10,19-10v11l-3,7,27,5v8l-5,6-21,3v8c0,9.094,6,13.957,6,21,0,12.65-6,21.239-6,34,10.374,10.374,11,29.533,11,45,13.952,0,19.217,23,34,23,0-11.01,6.566-27,17-27,0-6.864-2.869-40,3-40l3-2,11-4,7-11q-2.5-15.5-5-31c-4.061,0-13-11.593-13-17h14c0,15.971,31.648,18,45,18,0-34.488-10-65.7-10-102-12.192,0-20.791-19-37-19l-6-1c-12.745,0-49,5.814-49,11l-71-2c-16.4,0-46-5.125-46-18Q576.5,399.25,576,397.75Z"/>
  <path id="Hudu" class="cls-2" d="M477,79.75c2.9-7.251,13.362-37.361,17-41,14.293,0,35.026-4,53-4,5.016,5.016,50.711,8,62,8,6.8,6.8,32.874,3,43,3,39.334,0,79.674-2,118-2l3,4,7,10c-4.33,0,3,32.951,3,47,6.943,0,12.527,3,16,3q-1,7.5-2,15l-20,8c0,13.544,6,22.05,6,37H759v41c0,4.471-6,13.372-6,16l-17-1c0-4.377-12.949-28-17-28,0,5.305-7.863,26-14,26l-10,1-9-7c0-10.33-8-26.493-8-35-7.786,0-8.18,5-17,5,0-12.43-19-31.04-19-39l-23-3q-0.5-6-1-12l-7-3-11,21-16-1q2-12,4-24c0-6-3-12.068-3-16l-4-3H483c-4.762-4.762-5-17.106-5-25Z"/>
  <path id="MUNDATAND" class="cls-1" d="M752,42.75c25,0,42.41-7,64-7,0,4,5,14.074,5,17,18.486,0,18.513-14,36-14l13,26c13.393,0,27.671-3,37-3l6,4q2.5,26.5,5,53c7.853,0,20,13.819,20,22l-11,15q-0.5,17-1,34c6.455,6.455,12,44.425,12,57,3.42,0,17,11.7,17,15q0.5,11.5,1,23l-6,14c-2.268,2.268-15,14.787-15,15l-12-1q-1-4.5-2-9H905c0-19.388-15-24.565-15-41l-20,7c-7.7,0-15.821-4-20-4l-9,12c-8.077,0-23.346,7-38,7l-9-8c0-18.092-12-29.68-12-48l1-1c11.654,0,21.067,5,36,5l4-5,3-17-2-2c-6.819,0-40.015-44-50-44q-2.5-5-5-10,1.5-34,3-68l-7-30-8-9-3-5h-2Z"/>
  <path id="Sini" class="cls-1" d="M593,242l26.5-8c10.668,0,63.386-.114,68,4.5L695,240l21,2.5,74.5-2.5,9,30.5c5.111,15.333-6,28.124-6,42,8.705,0,10,15.82,10,23.5l-3,4L765,343c-6.873,6.873-12.682,11.182-20,18.5-13.2,0-51.4,22.6-65.5,8.5q-1.249-4.5-2.5-9c14.2,0,9-25.085,9-33.5l-6-3q-1,5-2,10c-5.439,0-20.5,1.8-20.5,8-6.871,0-10.9-6.5-14-6.5L637,346l-19.5,1-6-7c-5.572,0-11.81,1.19-15.5-2.5,0-37.071,29-55.61,29-92.5-7.4,0-22.82,7.68-28,2.5l-3.5-6L595,240"/>
  <path id="Chotadawan" class="cls-1" d="M615,1028.75q7.5-.495,15-1c0,25.44,30.209,32,55,32,7.541,7.54,9.214,46,18,46,0,2.84,1.469,2,4,2,0-6.47,43.258-36,53-36h1c0,5.45,4.121,14,11,14,15.523,15.52,50.012-22.01,55-27l7-6,15-33c0-36.353-32-51.865-32-84l-18-11c-11.712,0-21.115,3-31,3q-1-3.5-2-7l-16,8H726v9c-5.85,0-23-1.662-23-8l-29,5c-12.227-3.057-15.158-7-29-7l-5,1H614l-14,9-4,3c0,14.921-16.066,92,14,92q5.5-2.505,11-5"/>
  <path id="Nuagaon" class="cls-1" d="M809,927.75c-14.881-7.44,3.456-49,14-49q0.5-2,1-4h-1c-2.1,0-2,.1-2-2h-2l-6-2s-33.5-24-43-24l-6-2c-9.277,0-24.014,1.986-30-4-8.533,0-46,7.06-46-2-2.836,0-2-1.469-2-4,0-28.882,12-42.638,12-67l-13-8-39-1c-13.98,13.98-27.425,7-46,7-7.661,0-16.842,3-22,3l-4,7v44c-3.632,3.632-9.11,10-15,10,0,15.286-6,35.9-6,54,5.816,5.816,2,29.787,2,39,0.723,0,18.935,40,23,40l3,4c4.251,0,15,3.836,15-2,2.994,0,6-17.038,6-19,1.069,0,10.91-6.91,12-8h36c9.5,9.5,99.527,15.473,110,5,11.791,0,44-4.973,44-17"/>
  <path id="Pathanmara" class="cls-1" d="M384,951.75l-6-3c0-11.363,15.332-46,19-46q0.5-29.5,1-59l-4-17-20-20v-10c9.042,0,30-7.55,30-20,26.466,0,54.328-3,83-3l13-7,8-3c2.423,0,25-4.967,25,0,7.038,0,45,10.164,45,14q1,2,2,4c0,8.491,1.992,46-5,46q-1,2-2,4-1,3.5-2,7c0,18,29,33.131,29,56l-2,2h-7c-4.2,0-6.929-9-9-9-6.676,0,1.339,13-14,13-3.287-3.287-8.6-13-12-13,0,4.357-3,9.323-3,15l12,7c0,11.726,5,49,16,49v3l-20,2-13-12-37,2-28-17c-2.366,0-19-4.058-19-7-32.273,0-55.391,23-89,23"/>
  <path id="Murkum" class="cls-1" d="M378,957.75c0,19.921,19.74,103,35,103,1.745,1.75,10,21,10,21,0,4.39-6.452,22-12,22l-9,21q-0.5,14.505-1,29l2,3c9.937,9.94,15.115,12,30,12l10-15c0-29.18-5.879-57,29-57,0.623,0,14,14,14,14h49c0-21.45,16.144-34,36-34q4,7.5,8,15,8,0.495,16,1c16.248-16.25,8.86-47.86,16-55,1-2.33,2-4.67,3-7,0-1.57,6.012-21,2-21,0-4.92-20-20.926-20-43l-9-5c-26.741,0-21.517-7.517-36-22-15.018,0-24.978,4-41,4-15.949-15.949-45.56-25-69-25-10.312,10.312-41.392,24-57,24l-7,6-1,2c0,7.631,4,10.587,4,15"/>
  <path id="Govindpur" class="cls-1" d="M432,638.75c-8.007,13.345-40.054,25-58,25-5.3,5.3-14.884,15-21,15q-1-6.5-2-13l-6-1-8,12c0,29.5-42.035,26-70,26-11.008,0-45-3.782-45,10v13s42.513,23,46,23c0,5.589,3.315,16,10,16l25,1c6.387-6.387,9-23,9-32l18-15c8.593,0,32-2.939,32,6q1,4,2,8c11.283,0,13,57.276,13,72,20.6,0,68.624-47.376,90-26,4.129,0,18,5.553,18,8l3-7,14,2v-3l-4-3,9-1c0-7.091-6.225-3.775-1-9l25-1c0,9.06,17.583,12,27,12q0.5-1,1-2l-3-29c5.068-5.068,4-12.728,4-22-9.063,0-12-36.784-12-48H537l-7-16c-11.69,0-18.627,7-28,7,0-5.48-22.9-29-28-29H431l-3,8"/>
  <path id="Pandra" class="cls-1" d="M478,647.75c10.939-5.469,34.371-17,45-17,8.555-8.555,33-37.522,33-51,10.983,0,15.968-1.968,22-8l32-1c0-17.7,47-16.612,47-32l4-3c5.036,0,18-2.118,18,3q0.5,2.5,1,5c0,15.741,5,25.8,5,43,0,9.82,6.92,30,16,30l12,24q0.5,12.5,1,25l-13,6-30-2c-5.139-5.139-41-30.737-41-37h-4c0,8.075-28.882,39-43,39,0,4.617-6.306,6-12,6,0,11.352-14.76,10-25,10l-7-4c-27.16,0-42.774-4.774-61-23,0-3.729,1-11.636,1-13h-1Z"/>
  <path id="Mohitpur" class="cls-1" d="M586,150c-6.576,26.306,4,55.748,4,80l8.5,18.5c4.456,0,23.5-.74,23.5-5h50.5c3.823,3.823,60.136,7,71,7,9.3,0,48,3.472,48-6.5,13.469,0,30.468,1.532,38.5-6.5,0-8.232,3.5-18.416,3.5-29-2.712,0-32.937-31.791-40-36.5-11.3-7.533-25.278-7.5-40.5-7.5,0,10.017-6,23.007-6,34.5-17.648,0-20.245-12-28.5-12-10.1,5.049-15.7,7.5-31.5,7.5,0-23.29-45.5-34.488-45.5-54l-14-.5c0-29.325-58.24-5.24-41.5,11.5V150Z"/>
  <path id="Murup" class="cls-1" d="M947,255.75l20,9c0,24.781-19,29.217-19,58,0,4.8-2.032,24,3,24l13,8q1,6,2,12l-35,1c-5.18,0-8.74,7.74-12,11,0,27.942,10,47.14,10,74l-12,6-38,2c-5.843-5.843-17-13.957-17-24h-4c-3.893,3.893-10,9.573-10,18l-20,12H790c0-15.883-40.633-46-54-46,0,0-12.435,12-13,12,0,5.181-26.131-3-34-3l-33,1c-17.693,0-84,11.789-84-14,0-24.314,14-33.533,14-57l11-27c24.919,0,39.939-3,63-3,0-9.007,23.022-12,31-12l3,4q3,19,6,38l15,1,11-8c21.218,0,32.826-18,55-18,0-36.994,7.5-61,45-61,13.972-13.972,39.187-19,62-19,10.715,0,52.178,11.822,61,3Z"/>
  <path id="Itakudar" class="cls-1" d="M539,697.75q4-7.5,8-15c14.636,0,48.784-36,60-36,0-7.634,11.8-17,17-17l11-1c17.124,17.124,31.957,23,66,23l20,7,11,30q0.5,29,1,58l-17,26-11,5c-6.57,0-18-5.525-18-2,0,0-15,26.107-15,37H659l-2-2-3-17-10-5a3.725,3.725,0,0,1-4,4l-21-1c-8.568-8.568-50.561-11-65-11,0-1.932-4.4-14-6-14,0-30.143-10-41.485-10-71Q538.5,696.751,539,697.75Z"/>
  <text id="HUDU_" data-name="HUDU " class="cls-3" transform="translate(665.5 122.868) scale(0.556)">HUDU</text>
  <text id="seriakela" class="cls-3" transform="translate(253 110.939) scale(1.41)">seriakela</text>
  <text id="SINI-2" data-name="SINI" class="cls-4" transform="translate(699.5 292.398) scale(0.582)">SINI</text>
  <text id="MUNDATAND-2" data-name="MUNDATAND" class="cls-5" transform="translate(813.516 175.912) rotate(-31.865) scale(0.337)">MUNDATAND</text>
  <text id="UPERDUGNI_" data-name="UPERDUGNI " class="cls-6" transform="translate(683.353 469.896) scale(0.303)">UPERDUGNI</text>
  <text id="KAMALPUR-2" data-name="KAMALPUR" class="cls-7" transform="translate(500.5 546.443) scale(0.47)">KAMALPUR</text>
  <text id="GOVINDPUR-2" data-name="GOVINDPUR" class="cls-8" transform="translate(406.5 720.049) scale(0.435)">GOVINDPUR</text>
  <text id="PATHANMARA_" data-name="PATHANMARA " class="cls-9" transform="translate(433 866.35) scale(0.493)">PATHANMARA</text>
  <text id="NUAGAON-2" data-name="NUAGAON" class="cls-10" transform="translate(650.5 902.458) scale(0.445)">NUAGAON</text>
  <text id="CHOTADAWAN_" data-name="CHOTADAWAN " class="cls-11" transform="translate(662.5 1005.582) scale(0.423)">CHOTADAWAN</text>
  <text id="MURKUM-2" data-name="MURKUM" class="cls-12" transform="translate(470.5 1023.696) scale(0.539)">MURKUM</text>
  <text id="PANDRA-2" data-name="PANDRA" class="cls-13" transform="translate(590 611.503) scale(0.471)">PANDRA</text>
  <text id="ITAKUDAR_" data-name="ITAKUDAR " class="cls-14" transform="translate(608.5 723.854) scale(0.48)">ITAKUDAR</text>
  <text id="MURUP_" data-name="MURUP " class="cls-15" transform="translate(797 386.821) scale(0.467)">MURUP</text>
  <text id="MOHITPUR-2" data-name="MOHITPUR" class="cls-16" transform="translate(630 224.298) scale(0.529)">MOHITPUR</text>
</svg>
