<svg xmlns="http://www.w3.org/2000/svg" width="1200" height="1200" viewBox="0 0 1200 1200">
  <defs>
    <style>
      .cls-1, .cls-2 {
        fill: #edf8d1;
        stroke: #4da522;
        fill-rule: evenodd;
      }

      .cls-1 {
        stroke-width: 2px;
      }

      .cls-2 {
        stroke-width: 3px;
      }

      .cls-3 {
        font-size: 29.976px;
      }

      .cls-10, .cls-11, .cls-12, .cls-13, .cls-14, .cls-15, .cls-16, .cls-3, .cls-4, .cls-5, .cls-6, .cls-7, .cls-8, .cls-9 {
        font-family: "Microsoft New Tai Lue";
        text-transform: uppercase;
      }

      .cls-4 {
        font-size: 28.64px;
      }

      .cls-5 {
        font-size: 49.435px;
      }

      .cls-6 {
        font-size: 55.083px;
      }

      .cls-7 {
        font-size: 35.481px;
      }

      .cls-8 {
        font-size: 38.347px;
      }

      .cls-9 {
        font-size: 33.836px;
      }

      .cls-10 {
        font-size: 37.461px;
      }

      .cls-11 {
        font-size: 39.415px;
      }

      .cls-12 {
        font-size: 30.917px;
      }

      .cls-13 {
        font-size: 35.368px;
      }

      .cls-14 {
        font-size: 34.715px;
      }

      .cls-15 {
        font-size: 35.715px;
      }

      .cls-16 {
        font-size: 31.505px;
      }
    </style>
  </defs>
  <path id="KAMALPUR" class="cls-1" d="M455,638.75c-9.4,0-23.041,3-29,3-7.973,7.973-6,22.61-6,36,29.846,0,58.3,1,87,1l12-4c0-9.313,22.467-24,33-24,0-25.622,78.661-62.554,107-72,24.736-8.245,36.369-48,49-48v-18c-1.562,0-34.507-45.507-42-53l-3-2c-8.123,0-37.985-20.985-44-27l-2-2H553c-2.1,0-2-.1-2,2l-4,8c-2.652,0,.935,4-3,4,0,7.646-28.884,36.884-37,45-2.355,0-6,3.115-6,5l-19,12c-20.629,0-41.456,11-60,11l-18,14c0,5.7-9.966,45,3,45,0,19.371,10.625,45.625,22,57l23,8Z"/>
  <path id="Uperdugni" class="cls-1" d="M576,397.75q0.5,12,1,24l9,9c10.053,0,25.026,4,37,4,0,8.625-1.129,13.871,4,19h8c0,10.833,4,18.532,4,28,3.15,0,7.36,3,13,3,0-5.594,14.852-10,19-10v11l-3,7,27,5v8l-5,6-21,3v8c0,9.094,6,13.957,6,21,0,12.65-6,21.239-6,34,10.374,10.374,11,29.533,11,45,13.952,0,19.217,23,34,23,0-11.01,6.566-27,17-27,0-6.864-2.869-40,3-40l3-2,11-4,7-11q-2.5-15.5-5-31c-4.061,0-13-11.593-13-17h14c0,15.971,31.648,18,45,18,0-34.488-10-65.7-10-102-12.192,0-20.791-19-37-19l-6-1c-12.745,0-49,5.814-49,11l-71-2c-16.4,0-46-5.125-46-18Q576.5,399.25,576,397.75Z"/>
  <path id="Hudu" class="cls-2" d="M477,79.75c2.9-7.251,13.361-37.361,17-41,14.292,0,35.026-4,53-4,5.016,5.016,50.711,8,62,8,6.8,6.8,32.874,3,43,3,39.334,0,79.674-2,118-2l3,4,7,10c-4.33,0,3,32.951,3,47,6.943,0,12.527,3,16,3q-1,7.5-2,15l-20,8c0,13.544,6,22.05,6,37H759v41c0,4.471-6,13.372-6,16l-17-1c0-4.377-12.949-28-17-28,0,5.305-7.863,26-14,26l-10,1-9-7c0-10.33-8-26.493-8-35-7.786,0-8.18,5-17,5,0-12.43-19-31.04-19-39l-23-3q-0.5-6-1-12l-7-3-11,21-16-1q2-12,4-24c0-6-3-12.068-3-16l-4-3H483c-4.762-4.762-5-17.106-5-25Z"/>
  <path id="MUNDATAND" class="cls-1" d="M752,42.75c25,0,42.41-7,64-7,0,4,5,14.074,5,17,18.486,0,18.513-14,36-14l13,26c13.393,0,27.671-3,37-3l6,4q2.5,26.5,5,53c7.853,0,20,13.819,20,22l-11,15q-0.5,17-1,34c6.455,6.455,12,44.425,12,57,3.42,0,17,11.7,17,15q0.5,11.5,1,23l-6,14c-2.268,2.268-15,14.787-15,15l-12-1q-1-4.5-2-9H905c0-19.388-15-24.565-15-41l-20,7c-7.7,0-15.821-4-20-4l-9,12c-8.077,0-23.346,7-38,7l-9-8c0-18.092-12-29.68-12-48l1-1c11.654,0,21.067,5,36,5l4-5,3-17-2-2c-6.819,0-40.015-44-50-44q-2.5-5-5-10,1.5-34,3-68l-7-30-8-9-3-5h-2Z"/>
  <path id="SINI" class="cls-1" d="M617,356.75c-26.5-13.25-11-30.074-11-52l-9-14c0-14.012,6-25.529,6-41,4.306,0,7.044-7.044,10-10,17.961,0,32.322-10,47-10l115,10c4.735,1.578,27,15,27,15,0,12.3,4,24.559,4,39-4.139,4.139-7,18.3-7,24-6.407,0-16,20.935-16,26-17.916,17.916-53.285,28-82,28-14.853-14.853-42.564-9-63-9l-20-6h-1Z"/>
  <path id="CHOTADAWAN" class="cls-1" d="M617,1041.75q-8-4.005-16-8c0-18.73,2.528-24.47-9-36l-3-10c0-14.475,2-30.866,2-44h1c6.745-6.745,22.409-4.409,28-10l192-4,19,13c0,14.969,11.445,32.445,21,42,0,11.683,4,22.63,4,36q-4.5,13.005-9,26l-19,30q-11.5,7.995-23,16c-14.434,0-22.2,7-38,7,0-8-17.565-10-24-10-12.166,12.17-30.442,30-51,30-8.011-8.01-11-32.84-11-43-11.875,0-65-23.13-65-33C616.333,1043.08,616.667,1042.42,617,1041.75Z"/>
  <path id="NUAGAON" class="cls-1" d="M704,832.75c0-16.416-3.509-49-17-49l-32-1c0-3.922-18.053-6-22-6-16.284,0-63-3.077-63,15-3.231,0-3,17.454-3,21q2,19,4,38c-4.628,4.628-5,19.173-5,26-1.537,0-20.63,10-27,10,0,6.155-4,13.087-4,21l18,15c0,9.8,13.517,51,25,51,11.075,11.075,37.1-4,48-4,0-7.591,22.692-13,32-13l104,3c9.59,0,38-2.361,38-12,0.915,0,4.958-17.575,9-20-9.62-3.848,5-2.95,5-22l24-16c0-3.929,1.507-19-2-19,0-6.228-26.433-15-33-15-19.676-19.676-67-22-99-22v-1Z"/>
  <path id="PATHANMARA" class="cls-1" d="M357,805.75c1.935-.484,59.678-32.678,62-35l38-6h31c40.074,0,80.806-2.194,106,23,0,45.66-11.113,63.887,18,93,0,3.283,1.438,22-2,22,0,3.18-18.872,15-21,15,0,10.825,5.212,51-8,51l-21,1c-12.216-12.216-68.987-23-89-23l-41,2c-12.052,0-49,2.813-49-4-7.111,0-5-22.893-5-28,7.53,0,10-37.786,10-49l-16-34-10-25Z"/>
  <path id="MURKUM" class="cls-1" d="M357,948.75c7.449,0,36-14.107,36-22,13.931,0,38.24-5.24,47-14l42-2c0,6.027,17.092,11.092,21,15l47,6c8.159,8.159,32.738,27,47,27l4,4c12.426,0,13.267,34,24,34,0,10.86,8.088,86-11,86,0,5.08-7.654,13-11,13q-4.5,4.005-9,8c-9.941,9.94-26.8-13-31-13-4.766,0-11.259,25.26-15,29-1,.67-2,1.33-3,2q-6.5,2.505-13,5c-20.652,0-46.438,4-65,4,0,44.46-48.423,71.58-82,38,0-10.13-6-19.51-6-31,5.26,0,19-39.38,19-47q-8-16.005-16-32v-40c-10.778-10.78-24-52.862-24-68Z"/>
  <path id="GOVINDPUR" class="cls-1" d="M357,804.75c20.87,10.435,56.6,10.4,75-8l17-5c13.081,0,33.393,8.869,39,7,20.582-6.861,32.881-13,60-13l14-6q0.5-5,1-10c0-.462-7.758-17.758-9-19,0-24.916,7-46.743,7-72-5.507-5.507-9.872-9-21-9,0-1.2-30.412-20-36-20,0-19.306-67.777-27.223-81-14-4.9,0-30,10.9-30,15l-41,2-3,2-29,34-33,5-62-1-3,2-14,18c0,20.626,19.191,42,40,42l8,8c0,28.351,53.977,8,64,8,0-3.783,15-13.588,15-20l1-1,23-2,1,1c0,22.377-6,32.129-6,52l5,4h-2Z"/>
  <path id="Pandra" class="cls-1" d="M478,647.75c10.939-5.469,34.371-17,45-17,8.555-8.555,33-37.522,33-51,10.983,0,15.968-1.968,22-8l32-1c0-17.7,47-16.612,47-32l4-3c5.036,0,18-2.118,18,3q0.5,2.5,1,5c0,15.741,5,25.8,5,43,0,9.82,6.92,30,16,30l12,24q0.5,12.5,1,25l-13,6-30-2c-5.139-5.139-41-30.737-41-37h-4c0,8.075-28.882,39-43,39,0,4.617-6.306,6-12,6,0,11.352-14.76,10-25,10l-7-4c-27.16,0-42.774-4.774-61-23,0-3.729,1-11.637,1-13h-1Z"/>
  <path id="Mohitpur" class="cls-1" d="M586,150c-6.576,26.305,4,55.748,4,80l8.5,18.5c4.456,0,23.5-.74,23.5-5h50.5c3.823,3.822,60.136,7,71,7,9.3,0,48,3.472,48-6.5,13.469,0,30.468,1.532,38.5-6.5,0-8.232,3.5-18.416,3.5-29-2.712,0-32.937-31.791-40-36.5-11.3-7.533-25.278-7.5-40.5-7.5,0,10.017-6,23.007-6,34.5-17.648,0-20.245-12-28.5-12-10.1,5.049-15.7,7.5-31.5,7.5,0-23.29-45.5-34.488-45.5-54l-14-.5c0-29.325-58.24-5.24-41.5,11.5V150Z"/>
  <path id="Murup" class="cls-1" d="M947,255.75l20,9c0,24.781-19,29.216-19,58,0,4.8-2.032,24,3,24l13,8q1,6,2,12l-35,1c-5.18,0-8.74,7.74-12,11,0,27.942,10,47.14,10,74l-12,6-38,2c-5.843-5.843-17-13.957-17-24h-4c-3.893,3.893-10,9.573-10,18l-20,12H790c0-15.883-40.633-46-54-46,0,0-12.435,12-13,12,0,5.181-26.131-3-34-3l-33,1c-17.693,0-84,11.789-84-14,0-24.314,14-33.533,14-57l11-27c24.919,0,39.939-3,63-3,0-9.007,23.022-12,31-12l3,4q3,19,6,38l15,1,11-8c21.218,0,32.826-18,55-18,0-36.994,7.5-61,45-61,13.972-13.972,39.187-19,62-19,10.715,0,52.178,11.822,61,3Z"/>
  <path id="Itakudar" class="cls-1" d="M539,697.75q4-7.5,8-15c14.636,0,48.784-36,60-36,0-7.634,11.8-17,17-17l11-1c17.124,17.124,31.957,23,66,23l20,7,11,30q0.5,29,1,58l-17,26-11,5c-6.57,0-18-5.525-18-2,0,0-15,26.107-15,37H659l-2-2-3-17-10-5a3.725,3.725,0,0,1-4,4l-21-1c-8.568-8.568-50.561-11-65-11,0-1.932-4.4-14-6-14,0-30.143-10-41.485-10-71Q538.5,696.751,539,697.75Z"/>
  <text id="HUDU_" data-name="HUDU " class="cls-3" transform="translate(665.5 122.868) scale(0.556)">HUDU</text>
  <text id="SINI-2" data-name="SINI" class="cls-4" transform="translate(699.5 292.398) scale(0.582)">SINI</text>
  <text id="MUNDATAND-2" data-name="MUNDATAND" class="cls-5" transform="translate(813.516 175.912) rotate(-31.865) scale(0.337)">MUNDATAND</text>
  <text id="UPERDUGNI_" data-name="UPERDUGNI " class="cls-6" transform="translate(683.353 469.896) scale(0.303)">UPERDUGNI</text>
  <text id="KAMALPUR-2" data-name="KAMALPUR" class="cls-7" transform="translate(500.5 546.443) scale(0.47)">KAMALPUR</text>
  <text id="GOVINDPUR-2" data-name="GOVINDPUR" class="cls-8" transform="translate(406.5 720.049) scale(0.435)">GOVINDPUR</text>
  <text id="PATHANMARA_" data-name="PATHANMARA " class="cls-9" transform="translate(433 866.35) scale(0.493)">PATHANMARA</text>
  <text id="NUAGAON-2" data-name="NUAGAON" class="cls-10" transform="translate(650.5 902.458) scale(0.445)">NUAGAON</text>
  <text id="CHOTADAWAN_" data-name="CHOTADAWAN " class="cls-11" transform="translate(662.5 1005.582) scale(0.423)">CHOTADAWAN</text>
  <text id="MURKUM-2" data-name="MURKUM" class="cls-12" transform="translate(470.5 1023.696) scale(0.539)">MURKUM</text>
  <text id="PANDRA-2" data-name="PANDRA" class="cls-13" transform="translate(590 611.503) scale(0.471)">PANDRA</text>
  <text id="ITAKUDAR_" data-name="ITAKUDAR " class="cls-14" transform="translate(608.5 723.854) scale(0.48)">ITAKUDAR</text>
  <text id="MURUP_" data-name="MURUP " class="cls-15" transform="translate(797 386.821) scale(0.467)">MURUP</text>
  <text id="MOHITPUR-2" data-name="MOHITPUR" class="cls-16" transform="translate(630 224.298) scale(0.529)">MOHITPUR</text>
</svg>
