<svg xmlns="http://www.w3.org/2000/svg" viewBox="0 0 747 746" width="747" height="746">
	<style>
		tspan { white-space:pre }
		.shp0 { fill: #79d4ff;stroke: #363636;stroke-width: 0.66 } 
		.shp1 { fill: #79d4ff;stroke: #363636;stroke-width: 0.51 } 
		.shp2 { fill: #79d4ff;stroke: #363636;stroke-width: 0.88 } 
		.shp3 { fill: #79d4ff;stroke: #363636;stroke-width: 0.95 } 
		.shp4 { fill: #79d4ff;stroke: #363636;stroke-width: 0.73 } 
		.shp5 { fill: #79d4ff;stroke: #363636;stroke-width: 0.81 } 
		.shp6 { fill: #79d4ff;stroke: #111111 } 
		.shp7 { fill: #79d4ff;stroke: #363636;stroke-width: 0.59 } 
		.shp8 { fill: #79d4ff;stroke: #363636;stroke-width: 0.29 } 
		.txt9 { font-size: 41px;fill: #000000;font-family: "" Microsoft  New  Tai  Lue"" } 
		.txt10 { font-size: 50px;fill: #000000;font-family: "" Microsoft  New  Tai  Lue"" } 
		.txt11 { font-size: 61px;fill: #000000;font-family: "" Microsoft  New  Tai  Lue"" } 
		.txt12 { font-size: 51px;fill: #000000;font-family: "" Microsoft  New  Tai  Lue"" } 
		.txt13 { font-size: 77px;fill: #000000;font-family: "" Microsoft  New  Tai  Lue"" } 
		.txt14 { font-size: 56px;fill: #000000;font-family: "" Microsoft  New  Tai  Lue"" } 
		.txt15 { font-size: 42px;fill: #000000;font-family: "" Microsoft  New  Tai  Lue"" } 
		.txt16 { font-size: 39px;fill: #000000;font-family: "" Microsoft  New  Tai  Lue"" } 
		.txt17 { font-size: 48px;fill: #000000;font-family: "" Microsoft  New  Tai  Lue"" } 
		.txt18 { font-size: 57px;fill: #000000;font-family: "" Microsoft  New  Tai  Lue"" } 
		.txt19 { font-size: 47px;fill: #000000;font-family: "" Microsoft  New  Tai  Lue"" } 
		.txt20 { font-size: 60px;fill: #000000;font-family: "" Microsoft  New  Tai  Lue"" } 
		.txt21 { font-size: 40px;fill: #000000;font-family: "" Microsoft  New  Tai  Lue"" } 
		.txt22 { font-size: 53px;fill: #000000;font-family: "" Microsoft  New  Tai  Lue"" } 
		.txt23 { font-size: 79px;fill: #000000;font-family: "" Microsoft  New  Tai  Lue"" } 
		.txt24 { font-size: 73px;fill: #000000;font-family: "" Microsoft  New  Tai  Lue"" } 
	</style>
	<path id="DUMRA" fill-rule="evenodd" class="shp0" d="M206.74 51.39C228.08 44.79 249.44 44.43 262.35 28.44C266.17 28.44 278.24 23.98 278.24 20.8C309.22 20.8 343.08 12.06 377.11 12.06C382.84 19.16 395.55 31.73 406.24 31.73C406.24 41.21 419.31 57.75 425.66 65.6C427.72 90 429.78 114.4 431.84 138.81L423.01 151.92L417.71 166.12C417.42 178.5 417.12 190.89 416.83 203.27L405.35 203.27C401.51 203.27 390.35 195.22 390.35 192.35C370.59 192.35 347.98 170.49 325.02 170.49L292.36 178.14C281.76 191.27 253.39 209.83 241.17 209.83L241.17 206.55C240.87 205.83 240.58 205.1 240.28 204.37C237.24 200.6 246.17 173.04 249.11 169.4C249.11 148.38 254.41 133.69 254.41 112.58C254.41 96.69 249.11 82.85 249.11 65.6C236.44 65.6 212.54 60.75 204.97 51.39L206.74 51.39Z" />
	<path id="DUGNI" fill-rule="evenodd" class="shp1" d="M240.09 273.78C240.09 277.58 235.72 296.44 239.2 296.44C239.2 299.52 251.38 306.15 254.39 306.15C254.39 316.37 263.33 322.26 263.33 336.91C262.36 336.94 261.39 337.06 260.43 337.25C259.48 337.44 258.54 337.71 257.63 338.05C256.72 338.4 255.84 338.81 255 339.3C254.16 339.79 253.36 340.34 252.6 340.96L246.35 359.57L268.69 374.94L286.56 380.61C294.99 380.61 300.68 375.75 306.23 375.75C306.23 370.78 308.91 361.77 308.91 358.76C313.05 358.76 331.25 341.76 331.25 341.76C350.29 341.76 369 336.09 387.55 336.09C387.55 325.54 404.53 327.39 404.53 319.91C407.16 319.91 406.32 315.14 406.32 313.43C406.32 301.5 403.75 293.3 395.6 285.91C395.6 281.19 396.62 275.5 392.92 272.15C383.79 272.15 363.7 258.64 356.28 251.92C336.35 251.92 282.57 235.3 267.8 248.68C262.4 248.68 249.93 254.85 249.93 258.39C244.01 258.39 239.2 271.75 239.2 277.01" />
	<path id="BURIDIH" fill-rule="evenodd" class="shp1" d="M524.08 195.5C514.88 195.5 488.35 189.58 488.35 181.37C481.45 181.37 451.78 169.69 451.78 168.07C439.19 168.07 422.55 166.41 412.72 166.41C411.34 162.26 409.95 158.1 408.57 153.95L408.57 126.52C416.85 118.24 415.22 95.9 415.22 84.14L409.4 56.72C409.4 45.96 399.19 28.71 408.57 19.32L420.2 14.34L466.74 14.34L484.19 7.69L487.52 5.2L524.91 6.86C528.39 3.38 545.06 0 550.67 1.87C559.28 4.74 568.5 6.86 578.09 6.86C578.09 7.87 564.84 37.57 563.14 39.27C563.14 53.59 563.62 102.42 557.32 102.42C557.32 120.21 558.87 138.43 552.33 154.78C547.62 166.57 532.68 193.84 522.42 193.84L524.08 195.5Z" />
	<path id="DUGDHA" fill-rule="evenodd" class="shp2" d="M213.91 189.89C235.54 189.89 246.23 184.16 258.78 171.61C262.62 171.61 266.95 170.08 269.58 167.45C292.93 167.45 343.63 140.94 362.66 159.97C365.98 159.97 377.61 166.03 377.61 168.28C392.51 168.28 403.38 182.25 403.38 196.54C408.17 201.33 412.52 214.24 412.52 223.13C396.5 223.13 395.9 257.15 395.9 272.16L392.57 275.48C389.03 275.48 382.69 276.31 378.45 276.31C375.67 276.31 370.97 268.65 370.97 265.51L347.7 265.51C341.45 259.26 337.26 255.9 331.91 250.55L294.51 251.38L268.75 257.2C256.83 269.12 251.07 279.64 232.19 279.64L208.09 258.86C206.43 246.67 204.77 234.49 203.1 222.3C210.65 222.3 210.58 198.72 210.58 192.38L215.57 190.72L213.91 189.89Z" />
	<path id="KALIKAPUR" fill-rule="evenodd" class="shp3" d="M562.1 65.24C566.01 62.3 568.28 62.74 572.9 62.74C572.9 73.08 589.75 110.11 598.66 110.11C600.88 117.31 603.09 124.52 605.31 131.72C605.31 148.8 607.26 183.24 588.69 183.24L583.7 192.38C582.87 204.29 582.04 216.2 581.21 228.11L583.7 233.1C588.98 233.1 595.66 240.58 599.49 240.58L599.49 250.55L578.72 252.21C578.72 256.23 574.56 258.49 574.56 264.68L579.55 268.83L579.55 284.62L578.72 285.45L555.45 287.12L547.14 297.09C547.14 306.43 552.13 313.29 552.13 325.34C521.92 325.34 508.93 363.57 475.67 363.57C469.78 369.46 458.92 371.81 449.08 366.89L442.43 356.09L404.21 355.26C404.21 334.95 397.56 319.72 397.56 300.41C412.38 300.41 409.96 298.82 417.5 291.27C422.89 291.27 449.08 291.46 449.08 287.95C457 280.03 451.57 264.75 451.57 253.88C454.48 250.97 474.01 244.34 474.01 242.24C474.57 238.36 475.12 234.49 475.67 230.61C480.34 230.61 487.31 227.07 487.31 223.13C487.58 213.43 487.86 203.74 488.14 194.04C502.8 194.04 498.16 165.79 516.39 165.79C516.39 159.99 527.02 148.34 533.01 148.34L538.83 128.39C550.02 117.2 551.29 102.98 551.29 82.69L562.1 64.41L562.1 65.24Z" />
	<path id="RAPCHA" fill-rule="evenodd" class="shp3" d="M578.01 248.06C595.75 248.06 618.68 250.39 618.68 271.79C620.45 275.11 622.22 278.43 623.99 281.75L638.13 287.45C673.69 300.17 676.15 283.73 676.15 332.53C673.65 335.06 671.14 337.59 668.64 340.13C649.29 340.13 633.35 353.31 615.59 340.6L600.56 334.91C593.53 334.91 570.94 331.56 570.94 321.14C563.82 321.14 544.85 314.43 544.85 307.85L546.18 285.55C548.36 285.55 571.38 264.65 571.38 252.81L574.47 248.06L578.01 248.06Z" />
	<path id="JAGGANATHPUR" fill-rule="evenodd" class="shp2" d="M518.91 331.29C528.21 293.41 608.62 322.35 636.76 327.12C657.26 330.6 672.21 316.94 682.72 316.94L682.72 317.86L683.64 322.03C679.09 332.06 674.54 342.09 669.98 352.12C670.14 367.09 670.29 382.06 670.44 397.03C660.82 406.82 637.02 425.06 622.66 410.45C620.38 405.05 618.11 399.65 615.83 394.25C595.76 394.25 573.09 413.73 553.49 393.79L536.65 384.99C530.95 384.99 502.98 385.47 502.98 378.97C498.54 378.97 506.62 359.07 506.62 359.07C517.65 359.07 534.51 348.42 545.3 348.42C545.45 347.49 545.6 346.57 545.75 345.64L543.93 343.79L541.66 342.4C541.66 330.68 523.74 338.06 518.45 332.68L518.45 330.36C518.6 330.67 518.75 330.98 518.91 331.29Z" />
	<path id="BIRBANSH" fill-rule="evenodd" class="shp2" d="M384.97 358.04C393.57 365.04 410.94 355.77 410.94 346.66L422.93 341.24C449.97 341.24 471.74 352.62 497.86 352.62C504.32 345.61 555.25 321.19 564.8 321.19C564.8 337.11 555.71 337.77 552.31 348.83C552.81 355.87 553.31 362.92 553.81 369.96L552.31 371.59C532.27 393.33 486.76 397.73 465.39 420.91C454.63 420.91 439.96 419.87 432.42 411.69C396.48 411.69 384.47 397.14 384.47 358.58L384.97 358.04Z" />
	<path id="BANDHDIH" fill-rule="evenodd" class="shp0" d="M382.6 370.22C367.82 370.22 367.09 378.53 351.85 378.53L330.25 369.39L330.25 382.68C330.25 384.55 334.4 387.73 334.4 393.48C330.39 393.48 308.64 396.19 308.64 399.3C308.64 407.4 306.15 419.96 306.15 430.88C309.22 430.88 309.47 448.37 309.47 451.66C313.8 451.66 317.78 471.71 317.78 476.59C299.84 476.59 287.99 493.21 282.88 493.21C282.88 496.73 271.75 511.49 269.58 511.49L255.46 512.32L246.32 528.94C246.32 532.24 249.64 532.19 249.64 533.92C257.8 542.09 255.68 554.1 262.94 561.35L264.6 563.84C264.87 568.83 265.15 573.81 265.43 578.8C265.43 580.79 266.95 582.95 268.75 582.95L272.08 584.62L285.37 586.28C293.64 578.01 311.65 576.31 324.43 576.31C324.43 567.63 322.72 551.43 327.75 546.39C334.95 539.19 339.46 538.08 351.02 538.08L355.18 540.57L355.18 543.9L347.7 549.71L352.68 569.66C377.26 569.66 385.53 550.54 407.53 550.54L407.53 547.22C402.51 547.22 390.08 515.28 390.08 509.83C391.61 509.83 393.13 509.99 394.63 510.28C396.13 510.57 397.6 511.01 399.02 511.57C400.44 512.14 401.8 512.84 403.09 513.66C404.38 514.48 405.59 515.43 406.7 516.47C435.94 516.47 448.9 536.42 474.01 536.42C474.01 545.34 485.64 552.21 494.79 552.21C494.79 540.87 525.14 512.32 539.66 512.32C539.66 515.86 543.55 515.64 547.14 515.64L549.63 513.98C549.63 509.8 553.79 495.03 553.79 484.9C558.48 480.21 562.1 478.26 562.1 471.6C562.1 467.13 561.88 450.82 557.94 450.82C557.94 446.27 560.5 435.03 556.28 435.03L538 428.39L538 425.06L556.28 416.75C558.83 414.2 569.58 397.1 569.58 393.48L567.08 387.67L550.46 383.51L486.48 383.51L449.08 405.95L432.46 405.95C424.41 405.95 382.6 379.05 382.6 376.03C382.32 374.37 382.05 372.71 381.77 371.05L382.6 370.22Z" />
	<path id="DUMRA-2" fill-rule="evenodd" class="shp4" d="M717.5 501.52C713.51 496.2 705.86 491.07 705.86 484.9C699.39 484.9 670.96 479.08 670.96 479.08C656.4 493.64 647.94 494.87 626.92 494.87L617.78 480.74L597 478.25C591.52 483.72 574 494.04 563.76 494.04C563.48 494.59 563.21 495.14 562.93 495.7C558.18 500.45 557.11 529.82 557.11 538.91L567.91 563.01L592.01 572.15C592.01 586.52 600.21 602.78 609.47 612.04C620.32 612.04 656.92 621.93 665.97 612.87L688.41 612.04C694.08 612.04 716.66 614 716.66 607.88C719.9 607.88 718.59 601.24 715.83 601.24C715.83 599.02 710.27 580.71 707.52 577.97L707.52 528.11C709.45 526.18 719.99 501.6 719.99 499.85L718.33 499.85C718.33 497.34 717.38 498.91 715.83 497.36" />
	<path id="YASHPUR" fill-rule="evenodd" class="shp0" d="M512.68 427.67L518.55 427.14L524.42 424.48C524.42 409.84 552.98 397.96 564.44 394.15L567.11 392.56L588.45 387.77L617.27 383.51C617.27 397.4 663.15 391.44 663.15 402.67L663.69 403.2C663.69 439.57 615.67 462.84 615.67 488.33C613.17 492.05 610.68 495.77 608.19 499.5L556.97 518.65L539.36 558.02L536.69 558.02C528.43 549.78 539.04 472.16 543.63 467.58C543.63 459.04 539.89 447.1 539.89 442.04C531.88 442.04 522.37 429.8 511.61 429.8L511.61 428.2L513.21 427.14L512.68 427.67Z" />
	<path id="ITAGARH" fill-rule="evenodd" class="shp5" d="M573.73 538.08C560.6 534.8 563.88 516.47 549.63 516.47C549.08 515.37 548.52 514.26 547.97 513.15L545.48 509.83L527.2 508.99C517.88 518.31 489.8 529.27 489.8 545.56L483.98 545.56C483.98 538.34 470.14 536.42 463.21 536.42C457.89 541.74 450.74 546.33 450.74 556.36C463.27 556.36 451.42 613.7 471.52 613.7C471.52 616.32 473.44 622.01 476.5 622.01C476.5 624.14 476.79 623.67 479 623.67C487.8 623.67 520.55 622.66 520.55 634.48C522.12 634.48 526.36 635.09 526.36 636.97C529.91 636.97 542.98 636.4 542.98 641.12C543.26 641.96 543.54 642.79 543.82 643.62C543.82 653.28 541.32 666.82 541.32 675.2L609.47 676.03C611.69 676.03 616.11 676.84 616.11 673.53C621.39 668.26 617.78 661.95 617.78 653.59C617.78 640.06 619.44 626.01 619.44 611.21C618.76 611.21 603.65 572.93 603.65 563.84C595.92 556.11 572.07 544.69 572.07 535.59L573.73 538.08Z" />
	<path id="MURIYA" fill-rule="evenodd" class="shp6" d="M156.77 446.46C164.23 453.91 184.02 450.62 195 450.62L199.16 449.79C210.97 449.79 215.96 430.11 219.1 420.7C218.82 406.57 218.55 392.45 218.27 378.32C230.63 365.96 239.04 317.16 239.04 296.05C242.15 292.94 241.01 291.06 246.52 291.06C247.3 291.84 263.97 306.85 263.97 306.85C265.36 312.67 266.74 318.49 268.13 324.3C268.13 336.35 265.38 358.12 273.95 366.68C285.07 366.68 302.02 361.05 309.68 353.39L372.84 330.95C389.54 325.38 399.41 348.4 409.4 348.4C409.4 353.69 408.57 361.5 408.57 366.68C407.89 366.68 368.62 400.76 353.72 400.76L335.44 413.22L329.62 425.69C329.62 440.36 325.47 457.22 325.47 471.39L323.81 473.88C321.74 480.09 312.17 490.09 312.17 494.66L309.68 497.98C307.06 497.98 284.75 524.77 284.75 527.07C274.91 536.91 245.23 551.17 234.06 551.17C218.36 566.86 167.65 571.19 150.13 553.66L150.13 531.22C157.26 524.09 168.41 508.26 168.41 498.81L155.11 485.52C154.84 477.76 154.56 470.01 154.28 462.25C155.67 458.37 157.05 454.49 158.44 450.62C156.32 450.62 156.77 450.08 156.77 448.12L156.77 446.46Z" />
	<path id="JAIKAN" fill-rule="evenodd" class="shp7" d="M620.48 680.8L608.01 674.16C607.73 671.66 607.46 669.17 607.18 666.68C620.34 653.52 611.33 645.56 611.33 627.62L619.64 611L641.25 602.69C652.34 602.69 711.06 591.35 711.06 611C718.4 611 724.12 617.19 727.68 624.3C729.06 641.47 730.45 658.64 731.83 675.82C727.07 675.82 723.77 687.29 718.53 690.78C708.18 697.68 671.6 711.55 659.53 711.55C652.47 706.84 618.81 683.02 618.81 682.47L618.81 678.31L620.48 680.8Z" />
	<path id="NUWAGARH" fill-rule="evenodd" class="shp1" d="M413.56 596.87C426.42 590.44 440.13 573.6 457.6 579.42C467.53 582.73 494.99 603.82 494.99 614.32L543.19 621.8L550.67 625.96C554.51 633.64 574.81 659.16 560.64 673.33C560.64 677.01 544.81 679.14 541.53 679.14L531.56 684.13C513.14 702.54 477.58 683.3 457.6 683.3C457.6 671.78 445.87 651.72 433.5 651.72C433.5 650.59 427.95 644.24 426.02 644.24L421.03 635.1C421.03 620.91 413.56 608.24 413.56 597.7L413.56 596.87Z" />
	<path id="DUGNI-2" fill-rule="evenodd" class="shp8" d="M200.61 434.2C188.41 431.15 143.04 415.85 132.47 431.71L127.48 435.03L119.17 437.53C106.37 437.53 93.88 428.39 91.75 428.39C87.13 428.39 79.28 449.76 79.28 455.81C82.12 458.65 95.9 467.16 95.9 470.77C98.3 470.77 96.42 479.39 95.07 480.74L93.41 481.57C78.54 481.57 69.33 473.26 61 473.26C61 478.09 56.85 482.53 56.85 489.05C62.61 494.82 65.99 494.58 65.99 504.01C60.72 519.24 55.46 534.48 50.2 549.71L58.51 563.01C82.5 563.01 67.65 617.17 67.65 632.81L68.48 633.65C77.64 633.65 85.96 629.49 94.24 629.49C94.24 634.61 95.9 642 95.9 645.28C104.36 645.28 121.85 650.08 128.31 643.62C128.31 628.29 155.18 616.19 168.2 616.19C172.11 608.38 182.81 592.09 189.81 592.09C189.81 576.27 183.16 568.76 183.16 554.7C193.55 554.7 199.78 528.35 199.78 517.3C181.26 517.3 187.68 454.15 195.62 454.15L201.44 435.03L200.61 434.2Z" />
	<path id="TENTOPOSI" fill-rule="evenodd" class="shp7" d="M466.53 533.09C456.71 528.18 395.55 497.71 385.92 507.33C384.54 513.43 383.15 519.52 381.77 525.61L352.68 525.61C345.38 532.92 331.64 533.92 320.28 533.92C320.28 549.92 300.04 567.16 282.05 567.16L264.6 580.46C264.6 589.3 246.72 605.39 238.01 605.39L237.17 606.22C229.99 613.4 178.17 668.72 178.17 675.2L178.17 677.69L185.65 677.69C192.16 671.18 211.23 666.05 218.89 666.05L221.39 668.55L223.88 670.21C229.63 675.96 238.82 686.83 246.32 686.83L249.64 689.32L310.3 688.49L334.4 681.84C334.4 677.78 363.19 626.46 367.64 622.01L415.01 612.04C415.01 594.03 441.56 584.62 458.22 584.62C458.22 572.91 469.09 558.67 472.35 548.88C474.41 542.69 468.19 535.86 468.19 532.26L466.53 533.09Z" />
	<path id="KANDRA" fill-rule="evenodd" class="shp7" d="M412.72 313.5C401.72 313.5 390.48 309.54 383.64 302.7C383.64 287.64 374.83 265.15 380.32 248.68C383.61 238.8 389.1 234.8 391.95 226.24C392.5 217.38 393.06 208.52 393.61 199.65C394.4 195.72 398.91 187.19 401.92 187.19C401.92 164.72 428.15 159.33 446.8 153.12C462.21 147.98 478.92 161.43 490.84 161.43L499.15 179.71L513.28 198.82C513.28 213.26 486.57 250.34 473.39 250.34L464.25 260.32C464.25 274.75 453.44 295.98 453.44 304.36L430.18 314.33L411.89 314.33L412.72 313.5Z" />
	<path id="NARAYANPUR" fill-rule="evenodd" class="shp7" d="M147.63 657.54C147.63 643.41 137.66 641.02 137.66 626.79C146.98 617.47 161.68 587.73 173.39 587.73C173.39 557.7 186.25 549.51 214.95 549.51C219.96 544.49 248.93 542.86 258.16 542.86L267.3 547.84L276.44 563.63C276.72 572.77 276.99 581.92 277.27 591.06C269.63 598.7 242.37 619.33 242.37 628.45L225.75 632.61L217.44 639.25C217.44 664.21 189.83 711.55 163.42 711.55C163.42 707.71 140.15 694.35 140.15 686.62L139.32 684.13C139.6 677.76 139.88 671.39 140.15 665.02L146.8 657.54L147.63 657.54Z" />
	<path id="BARAKANKRA" fill-rule="evenodd" class="shp5" d="M53.52 552.21C49 552.21 44.22 558.85 41.06 558.85L37.73 566.33L37.73 596.25C45.88 604.39 42.72 645.92 42.72 658.58L35.24 671.04C19.44 671.04 10.09 703.66 2 711.76C2.28 717.02 2.55 722.29 2.83 727.55C18.16 742.88 59.34 745 84.27 745C84.27 736.1 90.97 721.67 97.57 715.08C101.68 715.08 108.05 714.25 112.52 714.25L121.66 721.73C121.66 721.08 142.88 694.7 144.93 692.65L146.59 691.82C146.59 688.56 150.18 673.53 153.24 673.53C154.63 667.16 156.01 660.79 157.4 654.42C157.4 649.8 162.54 622.01 158.23 622.01C158.23 619.17 143.73 618.69 140.78 618.69C129.57 629.9 117.67 631.15 100.89 631.15C81.9 612.16 79.94 552.21 52.69 552.21L53.52 552.21Z" />
	<path id="CHOTAGAMAHARIA" fill-rule="evenodd" class="shp7" d="M671.79 376.86C690.13 372.28 682.51 360.24 711.68 360.24C711.68 366.15 714.17 372.89 714.17 376.86C723.65 376.86 739.77 382.52 744.92 387.67C745.19 411.77 745.47 435.87 745.75 459.97C743.81 468 741.87 476.03 739.93 484.06C736.97 484.06 717.5 524.37 717.5 504.01L712.51 495.7L703.37 493.21C698.65 493.21 695.26 499.02 687.58 499.02C685.36 497.91 683.42 496.69 683.42 494.87C683.42 492.99 682.96 484.9 680.93 484.9L679.27 487.39C679.27 492.35 675.29 505.67 670.96 505.67L667.64 507.33C653.05 507.33 648.48 510.67 636.06 514.81C629.99 516.83 624 512.32 619.44 512.32C619.44 494.85 610.3 492.71 610.3 477.42C612.43 477.42 621.93 461.35 621.93 457.47L623.59 454.98C624.56 454.98 656 402.97 656 390.99C657.01 390.99 672.62 377.27 672.62 376.03L671.79 376.86Z" />
	<path id="CHAMARU" fill-rule="evenodd" class="shp6" d="M367.85 412.39C352.01 412.39 330.19 415.17 316.33 408.23C310.81 402.71 299.77 372.5 294.72 372.5L294.72 370.01L304.69 365.85C304.69 363.54 302.42 340.92 305.52 340.92C305.52 337.39 326.02 329.29 330.45 329.29L345.41 323.47C345.41 318.7 361.74 320.15 365.36 320.15C382.81 320.15 391.9 304.36 406.91 304.36C432.44 329.89 421.68 385.15 395.27 411.56C387.58 411.56 375.66 413.22 367.02 413.22L367.85 412.39Z" />
	<text id="DUMRA-3" style="transform: matrix(0.268,0,0,0.268,297.215,99.479)" >
		<tspan x="0" y="0" class="txt9">DUMRA</tspan>
	</text>
	<text id="YASHPUR_" style="transform: matrix(0.221,0,0,0.221,565.214,435.997)" >
		<tspan x="0" y="0" class="txt10">YASHPUR</tspan>
	</text>
	<text id="CHAMARU-2" style="transform: matrix(0.182,0,0,0.182,322.145,379.081)" >
		<tspan x="0" y="0" class="txt11">CHAMARU</tspan>
	</text>
	<text id="BURUDIH_" style="transform: matrix(0.215,0,0,0.215,450.535,99.169)" >
		<tspan x="0" y="0" class="txt12">BURUDIH</tspan>
	</text>
	<text id="CHOTAGAMAHARIA_" style="transform: matrix(0.118,0,0,0.118,654.279,441.304)" >
		<tspan x="0" y="0" class="txt13">CHOTAGAMAHARIA</tspan>
	</text>
	<text id="JAGGANATHPUR-2" style="transform: matrix(0.197,0,0,0.197,555.865,364.092)" >
		<tspan x="0" y="0" class="txt14">JAGGANATHPUR</tspan>
	</text>
	<text id="BANDHDIH-2" style="transform: matrix(0.266,0,0,0.266,404.622,469.985)" >
		<tspan x="0" y="0" class="txt15">BANDHDIH</tspan>
	</text>
	<text id="MURIA" style="transform: matrix(0.285,0,0,0.285,235.928,429.423)" >
		<tspan x="0" y="0" class="txt16">MURIA</tspan>
	</text>
	<text id="DUGNI_" style="transform: matrix(0.232,0,0,0.232,294.929,301.118)" >
		<tspan x="0" y="0" class="txt17">DUGNI</tspan>
	</text>
	<text id="BIRBANSH_" style="transform: matrix(0.195,0,0,0.195,434.538,383.109)" >
		<tspan x="0" y="0" class="txt18">BIRBANSH</tspan>
	</text>
	<text id="DUGDHA-2" style="transform: matrix(0.235,0,0,0.235,274.154,215.697)" >
		<tspan x="0" y="0" class="txt19">DUGDHA</tspan>
	</text>
	<text id="RAPCHA-2" style="transform: matrix(0.183,0,0,0.183,570.823,295.234)" >
		<tspan x="0" y="0" class="txt20">RAPCHA</tspan>
	</text>
	<text id="KANDRA-2" style="transform: matrix(0.278,0,0,0.278,405.661,238.315)" >
		<tspan x="0" y="0" class="txt21">KANDRA</tspan>
	</text>
	<text id="JAIKAN-2" style="transform: matrix(0.236,0,0,0.236,637.719,654.533)" >
		<tspan x="0" y="0" class="txt19">JAIKAN</tspan>
	</text>
	<text id="DUMRA-4" style="transform: matrix(0.197,0,0,0.197,626.916,567.678)" >
		<tspan x="0" y="0" class="txt14">DUMRA</tspan>
	</text>
	<text id="ITAGARH_" style="transform: matrix(0.193,0,0,0.193,520.547,587.436)" >
		<tspan x="0" y="0" class="txt18">ITAGARH</tspan>
	</text>
	<text id="KALIKAPUR-2" style="transform: matrix(0.21,0,0,0.21,472.765,270.064)" >
		<tspan x="0" y="0" class="txt22">KALIKAPUR</tspan>
	</text>
	<text id="TENTOPOSI_" style="transform: matrix(0.185,0,0,0.185,324.43,582.026)" >
		<tspan x="0" y="0" class="txt20">TENTOPOSI</tspan>
	</text>
	<text id="BARAKANKRA-2" style="transform: matrix(0.14,0,0,0.14,60.725,673.594)" >
		<tspan x="0" y="0" class="txt23">BARAKANKRA</tspan>
	</text>
	<text id="DUGNI_2" style="transform: matrix(0.219,0,0,0.219,115.155,520.148)" >
		<tspan x="0" y="0" class="txt12">DUGNI</tspan>
	</text>
	<text id="NARAYANPUR-2" style="transform: matrix(0.143,0,0,0.143,189.115,589.788)" >
		<tspan x="0" y="0" class="txt13">NARAYANPUR</tspan>
	</text>
	<text id="NUWAGARH-2" style="transform: matrix(0.15,0,0,0.15,484.191,644.362)" >
		<tspan x="0" y="0" class="txt24">NUWAGARH</tspan>
	</text>
</svg>