<svg xmlns="http://www.w3.org/2000/svg" viewBox="0 0 752 697" width="752" height="697">
	<style>
		tspan { white-space:pre }
		.shp0 { fill: #fff8ae;stroke: #ecbc2b;stroke-width: 2 } 
		.txt1 { font-size: 28px;fill: #000000;font-family: "" Microsoft  New  Tai  Lue"" } 
		.txt2 { font-size: 29px;fill: #000000;font-family: "" Microsoft  New  Tai  Lue"" } 
		.txt3 { font-size: 30px;fill: #000000;font-family: "" Microsoft  New  Tai  Lue"" } 
		.txt4 { font-size: 31px;fill: #000000;font-family: "" Microsoft  New  Tai  Lue"" } 
		.txt5 { font-size: 34px;fill: #000000;font-family: "" Microsoft  New  Tai  Lue"" } 
		.txt6 { font-size: 32px;fill: #000000;font-family: "" Microsoft  New  Tai  Lue"" } 
		.txt7 { font-size: 21px;fill: #000000;font-family: "" Microsoft  New  Tai  Lue"" } 
		.txt8 { font-size: 27px;fill: #000000;font-family: "" Microsoft  New  Tai  Lue"" } 
	</style>
	<path id="PATKUM" fill-rule="evenodd" class="shp0" d="M471.56 479.49C471.3 474.36 471.03 469.23 470.76 464.11C490.71 444.15 520.43 442.38 550.06 434.98C565.44 431.13 579.56 413.13 587.29 413.13L591.34 410.7C642.34 410.7 635.85 446.89 635.85 485.15C596.22 485.15 510.33 553.86 472.37 515.9L472.37 478.68L471.56 479.49Z" />
	<path id="TIKAR" fill-rule="evenodd" class="shp0" d="M258.53 632.64C258.53 644.33 260.95 657.73 260.95 671.48L267.43 677.96L309.51 677.96C327.27 672.04 348.63 663.39 373.44 663.39C378.26 658.57 392.16 657.73 400.15 657.73L401.77 656.11L432.52 649.63C436.07 646.08 492.99 625.36 499.69 625.36C499.96 623.47 500.23 621.58 500.5 619.69C490.68 619.69 487.55 609.48 487.55 600.27C464.73 577.45 496.45 538.96 496.45 504.77L491.59 499.11C484.58 499.11 472.35 502.17 468.13 506.39L433.33 506.39C427.7 512.02 415.52 521.55 415.52 531.48L405.81 536.34C398.96 543.19 394.78 550.6 388.01 557.38L388.01 558.19L366.16 559C366.16 553.26 352.7 546.86 345.12 546.86L341.88 548.48L340.26 550.9C340.26 556.85 343.5 562.2 343.5 571.13C340.95 571.13 337.83 594.22 337.83 599.46L323.27 599.46C313.75 594.7 289.55 584.89 281.19 584.89C263.62 584.89 260.14 619.03 260.14 635.07L258.53 632.64Z" />
	<path id="MAISDA" fill-rule="evenodd" class="shp0" d="M592.95 426.07C577.85 433.63 566.29 437.37 555.73 447.92C534.26 447.92 505.74 461.23 484.51 466.54C474.15 469.13 463.49 461.68 456.19 461.68C456.19 453.96 450.72 442.48 453.76 433.36C459.42 416.39 470.76 412.3 470.76 393.7L474.8 388.04C487.25 388.04 505.12 357.7 518.5 353.24L522.55 350.81L538.73 352.43L552.49 364.57C552.49 369.96 571.91 388.85 577.58 388.85C577.58 404.03 594.57 413.43 594.57 426.07L592.15 426.88L592.95 426.07Z" />
	<path id="TIRULDIH-2" fill-rule="evenodd" class="shp0" d="M58.03 434.98C55.58 434.98 45.89 436.28 45.89 432.55C33.52 432.55 33.75 407.35 33.75 398.56L35.37 396.13L53.98 383.99C53.98 378.85 58.87 327.31 59.65 326.53C73.03 313.15 82.32 296.58 94.45 284.45C112.93 284.45 130.67 274.74 150.29 274.74C165.84 290.3 201.49 294.97 223.12 294.97L257.11 315.2C257.11 333.57 269.25 350.49 269.25 370.23C246.67 392.82 250.7 432.7 227.17 450.35L219.88 458.44C210.23 458.44 195.26 463.76 187.51 456.02L187.51 454.4C187.24 446.84 186.97 439.29 186.7 431.74L185.89 431.74L174.56 445.5C165.55 460.52 163.69 471.75 151.1 484.34L147.86 486.77C139.72 486.77 131.14 485.15 123.58 485.15C105.32 466.89 75.69 458.3 58.84 441.45C58.57 439.56 58.3 437.67 58.03 435.78L58.03 434.98Z" />
	<path id="SODO" fill-rule="evenodd" class="shp0" d="M563.62 376.91C556.36 367.24 551.65 335.64 538.53 335.64L525.58 317.83C525.58 313.46 512.25 296.79 511.02 296.79C511.02 288.27 487.66 247.43 487.55 247.43C483.77 231.51 479.99 215.6 476.22 199.68L473.79 198.06C473.79 189.52 456.67 184.99 451.94 180.26C444.45 180.26 408.46 160.25 403.38 155.17L382.34 156.79C382.34 157.53 365.72 172.17 362.92 172.17C362.92 186.15 339.45 197.38 339.45 211.82C331.9 211.82 326.97 217.83 322.46 222.34L294.13 228.01C284.44 228.01 272.42 225.58 265 225.58L259.33 223.96C255.26 223.96 248.46 222.7 245.58 225.58C245.04 228.55 244.5 231.51 243.96 234.48C250.53 241.05 263.54 250.67 272.28 250.67C272.28 259.65 293.12 272.52 303.04 272.52C303.04 280.65 309.7 284.04 314.37 288.7L328.93 288.7L333.79 280.61C333.79 285.87 336.22 291.7 336.22 295.18C344.98 295.18 354.41 303.27 364.54 303.27C364.54 310.61 375.87 317.71 375.87 321.88C384.53 321.88 406.62 324.97 406.62 332.4C412.99 332.4 426.85 330.62 426.85 337.26L461.65 337.26C461.65 345.08 493.95 359.92 503.73 359.92L512.64 371.25L524.77 374.48C531.48 374.48 562.81 384.58 562.81 376.91L564.43 376.1L563.62 376.91Z" />
	<path id="CHIMITIYA" fill-rule="evenodd" class="shp0" d="M270.87 419.6C259.28 404.14 257.11 387.42 257.11 367L243.35 342.72C222.94 322.31 222.31 298.88 222.31 269.89C238.52 261.78 243.21 228.61 250.64 228.61C254.86 224.39 264.86 230.27 268.44 232.66C291.5 248.04 286.94 248.61 313.76 255.32L333.18 259.37C333.18 265.98 375.26 282.63 375.26 298.21C401.03 298.21 437.07 323.6 452.95 339.48C452.95 353.26 454.14 365.92 451.33 379.95C449.55 388.85 452.53 396.97 448.91 404.22C421.01 432.12 381.84 433.36 340.46 433.36L321.04 437.4C305.55 437.4 271.68 436.09 271.68 420.41L270.87 419.6Z" />
	<path id="LEPATAND" fill-rule="evenodd" class="shp0" d="M210.78 551.71L196.21 551.71C196.21 539.61 193.49 522.87 201.07 515.3C199.45 505.04 197.83 494.79 196.21 484.54C197.02 471.86 197.83 459.19 198.64 446.51C209.26 446.51 211.75 431.94 223.73 431.94L225.35 429.51L226.16 428.7L228.58 418.99C224.96 418.99 224.54 386.62 224.54 377.72C236.19 366.07 252.26 366.39 269.05 366.39C273.68 371.03 274.33 397.95 277.95 397.95C277.95 400.66 296.86 399.57 300.61 399.57C318.77 399.57 333.59 409.28 350.78 409.28L358.07 414.14L364.54 425.47C364.54 433.5 366.27 467.44 362.92 470.79C362.65 476.72 362.38 482.65 362.11 488.59C360.66 491.5 362.17 506.39 358.87 506.39C358.87 512.26 353.22 535.53 348.35 535.53C341.05 542.83 321.24 541.19 311.13 541.19L252.05 542C248.54 545.51 215.72 552.52 209.97 552.52L210.78 551.71Z" />
	<path id="TUTA" fill-rule="evenodd" class="shp0" d="M107.4 337.05C88.94 337.05 88.78 301.26 88.78 286.88C58.92 257.02 67.74 213.11 67.74 171.16C73.18 165.72 81.42 133.12 87.97 133.12L88.78 131.5C100.13 131.5 155.95 102.31 155.95 98.32L176.99 82.95C190.93 82.95 200.04 73.63 212.6 86.18C214.94 86.18 219.07 88.9 219.07 91.04L219.88 93.47C219.88 106.14 232.83 113.7 232.83 134.74C239.39 141.29 242.54 159.31 242.54 170.35C246.17 170.35 256.3 190.8 256.3 196.24C268.34 208.28 271.55 250.04 265.2 269.08L257.11 295.78L231.21 317.63L211.79 330.58C202.66 330.58 166.47 332.58 166.47 340.29C146.62 340.29 127.47 337.05 108.2 337.05L107.4 337.05Z" />
	<path id="GUDRI" fill-rule="evenodd" class="shp0" d="M338.85 517.52C330.25 534.7 341.27 550.28 341.27 566.08C358.13 566.08 377.45 574.79 396.3 568.5C400.42 567.13 423.82 547.25 423.82 545.04C439.23 545.04 457.81 531.65 457.81 515.9L477.23 503.76L480.47 494.86C480.47 476.3 475.61 466.33 475.61 447.92C496.37 427.17 510.41 384.46 510.41 354.86C503.13 347.58 485.5 340.29 471.56 340.29C465.67 334.4 456.59 328.96 446.48 328.96C431.12 336.64 410.87 361.85 410.87 379.14L397.11 395.32C388.57 399.59 370.33 423.65 362.31 423.65L352.6 439.02L342.08 473.82L342.08 515.09L338.04 517.52L338.85 517.52Z" />
	<path id="DEWALTAND" fill-rule="evenodd" class="shp0" d="M40.23 423.65C14.1 444.54 36.18 454.16 36.18 477.06L3 545.04L3.81 545.85L11.9 546.65C16.23 546.65 17.08 540.18 24.04 540.18C25.12 546.38 26.2 552.59 27.28 558.79C45.58 558.79 44.42 598.45 53.17 598.45L75.02 598.45L81.5 603.3C88.61 624.64 121.72 630.13 143 619.49L151.9 608.16C151.9 596.78 157.09 589.22 164.85 581.45L177.8 573.36L193.18 565.27C193.18 561.11 209.43 542.61 210.98 542.61C210.98 522.03 215.03 502.49 215.03 481.1C215.03 477.61 215.8 461.68 211.79 461.68L202.08 443.07C202.08 431.33 192.37 425.26 180.23 425.26C151.46 454.04 107.51 433.36 69.36 433.36L41.04 423.65L40.23 423.65Z" />
	<path id="SITU" fill-rule="evenodd" class="shp0" d="M308.7 7.89C297.29 7.89 280.38 14.78 280.38 26.5L268.24 32.97C237.81 32.97 208.6 68.58 194.59 68.58C194.59 93.57 190.55 123.5 190.55 147.08C190.82 148.43 191.09 149.78 191.36 151.13C191.36 156.64 205.11 165.49 205.11 172.98C215.41 172.98 236.68 176.07 236.68 185.11C242.74 185.11 239.91 223.89 239.91 230.43C251.78 230.43 257.31 228.82 269.86 228.82C274.77 233.73 312.75 236.91 323.27 236.91C323.27 225.28 332.9 217.49 345.12 217.49C347.65 214.95 351.59 205.3 351.59 201.3C365.59 194.3 372.63 187.34 372.63 171.36C375.35 171.36 384.77 169.48 384.77 166.5C385.04 165.42 385.31 164.34 385.58 163.26C385.58 153.19 388.82 144.87 388.82 134.13L387.2 131.7C379.62 131.7 354.33 105.81 350.78 105.81C350.78 104.97 338.52 53.89 337.83 53.2C337.02 45.65 336.22 38.1 335.41 30.55C335.41 23.25 335.11 4.65 328.12 4.65C328.12 0.62 306.27 1.39 306.27 6.27L308.7 7.89Z" />
	<path id="BANDU" fill-rule="evenodd" class="shp0" d="M748.13 479.69C719.01 479.69 656.41 427.36 628.36 455.41C627.82 460.27 627.28 465.12 626.74 469.98C631.26 469.98 632.41 478.7 632.41 482.92L641.31 486.97L641.31 492.64C638.49 495.45 634.24 499.11 630.79 499.11C630.79 502.12 628.55 511.25 631.6 511.25L637.26 512.06C641.16 508.16 643.66 503.97 648.59 503.97C649.94 507.47 651.29 510.98 652.64 514.49L672.87 519.34L718.19 518.53C718.19 521.7 728.2 525.82 731.95 525.82L734.37 524.2C739.5 509.9 744.62 495.6 749.75 481.31C749.21 480.77 748.67 480.23 748.13 479.69Z" />
	<path id="GORANGKOCHA" fill-rule="evenodd" class="shp0" d="M494.83 620.5C475.31 600.98 475.41 585.32 475.41 552.52L491.59 517.72L503.73 511.25C530.78 511.25 602.16 488.09 617.03 473.21C628.25 473.21 633.08 480.5 640.5 480.5C640.5 492.03 646.73 496.44 653.45 503.16L668.82 505.58C679.13 505.58 695.53 512.87 695.53 512.87C700.62 512.87 717.38 515.05 717.38 519.34C724.06 519.34 717.38 552.48 717.38 553.33C717.11 554.14 716.84 554.95 716.57 555.76C709.37 562.96 687.47 570.33 675.3 570.33C675.3 574.52 660.08 589.75 656.68 589.75C655.34 592.18 653.99 594.6 652.64 597.03C652.64 609.71 658.14 629.56 651.83 635.88L648.59 636.69C643.43 641.84 616.03 651.25 607.32 651.25C605.48 651.25 601.65 652.2 601.65 649.63C595.41 649.63 592.09 631.17 588.71 627.78C568.58 627.78 543.14 622.12 520.73 622.12C513.14 622.12 498.08 624.56 493.21 619.69L494.83 620.5Z" />
	<path id="NADISAI" fill-rule="evenodd" class="shp0" d="M142.19 677.76C146.94 654.01 147.05 630.85 147.05 604.92C151.57 604.92 155.14 580.41 155.14 574.98L156.76 570.93C160.12 564.22 172.14 550.52 172.14 545.85L174.56 544.23C184.9 544.23 228.98 527.84 235.26 521.57L249.83 518.33C257.74 516.35 288.09 523.22 297.57 524.8C304.36 525.94 337.23 521.49 337.23 528.85C345.56 528.85 355.84 587.2 355.84 597.64C359.61 601.41 364.74 611.95 364.74 616.25L363.12 618.68L340.46 621.11C340.46 614.77 296.35 588.34 283.01 601.68L277.34 623.53L269.25 627.58L228.79 632.44L224.74 635.67C218.39 635.67 216.26 668.85 209.36 668.85L194.8 674.52C185.5 693.11 163.59 694.75 141.38 694.75L140.58 693.94C140.58 687.7 142.19 679.13 142.19 675.33L142.19 677.76Z" />
	<text id="TIKAR-2" style="transform: matrix(0.479,0,0,0.479,376.476,622.794)" >
		<tspan x="0" y="0" class="txt1">TIKAR</tspan>
	</text>
	<text id="LEPATAND_" style="transform: matrix(0.549,0,0,0.549,244.161,468.608)" >
		<tspan x="0" y="0" class="txt1">LEPATAND</tspan>
	</text>
	<text id="GUDRI-2" style="transform: matrix(0.488,0,0,0.488,388.615,525.583)" >
		<tspan x="0" y="0" class="txt1">GUDRI</tspan>
	</text>
	<text id="MAISDA_" style="transform: matrix(0.468,0,0,0.468,509.6,427.37)" >
		<tspan x="0" y="0" class="txt2">MAISDA</tspan>
	</text>
	<text id="PATKUM-2" style="transform: matrix(0.447,0,0,0.447,531.451,480.057)" >
		<tspan x="0" y="0" class="txt3">PATKUM</tspan>
	</text>
	<text id="BANDU-2" style="transform: matrix(0.458,0,0,0.458,658.101,494.211)" >
		<tspan x="0" y="0" class="txt2">BANDU</tspan>
	</text>
	<text id="NADISAI-2" style="transform: matrix(0.435,0,0,0.435,172.946,601.419)" >
		<tspan x="0" y="0" class="txt4">NADISAI</tspan>
	</text>
	<text id="TIRULDIH_2" style="transform: matrix(0.402,0,0,0.402,95.661,379.775)" >
		<tspan x="0" y="0" class="txt5">TIRULDIH_2</tspan>
	</text>
	<text id="CHIMTIYA_" style="transform: matrix(0.415,0,0,0.415,297.168,350.704)" >
		<tspan x="0" y="0" class="txt6">CHIMTIYA</tspan>
	</text>
	<text id="DEWALTAND-2" style="transform: matrix(0.401,0,0,0.401,68.551,527.43)" >
		<tspan x="0" y="0" class="txt5">DEWALTAND</tspan>
	</text>
	<text id="SODO_" style="transform: matrix(0.435,0,0,0.435,397.922,267.615)" >
		<tspan x="0" y="0" class="txt4">SODO</tspan>
	</text>
	<text id="SITU-2" style="transform: matrix(0.639,0,0,0.639,263.584,128.62)" >
		<tspan x="0" y="0" class="txt7">SITU</tspan>
	</text>
	<text id="TUTA-2" style="transform: matrix(0.507,0,0,0.507,129.245,225.231)" >
		<tspan x="0" y="0" class="txt8">TUTA</tspan>
	</text>
	<text id="GORANGKOCHA-2" style="transform: matrix(0.488,0,0,0.488,528.82,562.286)" >
		<tspan x="0" y="0" class="txt2">GORANGKOCHA</tspan>
	</text>
</svg>