<svg xmlns="http://www.w3.org/2000/svg" viewBox="0 0 754 737" width="754" height="737">
	<style>
		tspan { white-space:pre }
		.shp0 { fill: #fcdab3;stroke: #fb7000;stroke-width: 3 } 
		.shp1 { fill: #fcdab3;stroke: #6b3900 } 
		.txt2 { font-size: 47px;fill: #000000;font-family: "" Microsoft  New  Tai  Lue"" } 
	</style>
	<path id="Kharsawan" fill-rule="evenodd" class="shp0" d="M484.39 231.02C493.01 231.02 495.5 233.3 502.7 233.3C502.7 230.58 521.58 215.94 525.58 211.94C525.58 169.59 562.78 168.46 601.11 168.46C620.08 187.43 588.14 208.51 588.14 225.67L626.29 225.67C626.29 221.39 643.48 225.67 645.36 225.67C645.36 229.18 664.41 227.96 669.01 227.96C682.2 227.96 716.31 240.17 716.31 248.56C716.82 260.26 717.32 271.96 717.83 283.65C716.68 287.11 709.77 295.86 705.63 295.86L697.23 308.07L675.11 356.13L672.82 358.42C672.82 363.42 651.46 374.44 651.46 374.44C627.58 374.44 608.41 376.73 584.33 376.73L572.88 369.1C572.88 352.52 571.36 332.68 571.36 316.46L569.83 314.17C569.64 314.17 543.13 285.04 543.13 283.65L534.74 279.84C504.28 279.84 485.15 257.71 485.15 229.49C484.9 230 484.64 230.51 484.39 231.02Z" />
	<path id="Dalaikela" fill-rule="evenodd" class="shp0" d="M373.77 366.05C373.77 356.4 375.15 340.26 380.63 334.77C386.91 334.77 397.22 331.15 401.23 327.14C401.74 326.12 402.25 325.11 402.76 324.09L400.47 322.56C390.66 322.56 380.63 291 380.63 278.31L382.92 278.31L385.97 276.79C394.62 276.79 403.4 270.69 411.15 270.69C411.15 258.23 414.2 241.84 414.2 227.96C415.21 227.96 425.58 218.88 427.17 217.28C427.17 193.68 442.67 186.77 462.26 186.77C462.26 190.53 466.2 210.42 469.13 210.42C469.13 213.51 491.25 211.65 491.25 216.52C491.51 217.03 491.76 217.54 492.02 218.05C492.02 236.69 508.8 245.92 508.8 265.35C517.19 265.35 533.97 266.98 533.97 274.5L555.34 274.5C555.34 285.44 573.65 311.12 573.65 311.12L571.36 312.64C560.01 312.64 549.28 319.51 540.84 319.51L534.74 330.19C534.74 356.47 517.93 372.91 491.25 372.91C491.25 364.06 483.12 359.18 473.71 359.18C473.71 364.05 467.6 369.72 467.6 377.49L474.47 379.78L474.47 402.67C474.47 415.47 465.91 433.18 451.58 433.18L451.58 424.03C451.58 413.55 453.87 400.52 453.87 388.17C452.08 388.17 439.72 356.89 437.09 356.89C436.58 355.88 436.07 354.86 435.56 353.84C423.44 353.84 418.25 375.2 403.52 375.2L379.11 374.44C377.21 374.44 376.82 374.05 376.82 372.15C376.31 369.35 375.8 366.56 375.29 363.76L373.77 366.05Z" />
	<path id="Burudih" fill-rule="evenodd" class="shp0" d="M344.01 622.38C344.01 621.42 381.35 579.71 387.5 573.55C387.75 564.15 388.01 554.74 388.26 545.33C381.19 538.26 373.77 526.5 373.77 514.05L375.29 514.05L376.82 513.29C382.26 513.29 400.47 520.62 400.47 514.81C405.04 510.24 399.15 483.53 403.52 483.53C403.77 482.77 404.03 482.01 404.28 481.24C411 481.24 425.46 464.46 429.46 464.46C429.46 464.46 442.24 433.95 446.24 433.95L447 433.18L466.08 426.32L469.13 425.55C479.23 425.55 487.34 429.37 495.83 429.37L497.36 430.13C513.83 430.13 524.94 427.96 533.97 437L577.46 434.71L591.19 448.44C590.94 460.14 590.68 471.84 590.43 483.53C590.43 485.99 596.24 491.16 598.06 491.16C598.06 510.27 627.81 526.85 627.81 540.75C615.91 552.65 570.71 572.79 550 572.79C550 575.36 539.29 579.66 535.5 579.66L535.5 578.13C532.77 575.4 533.97 568.3 533.97 564.4C529.87 564.4 524.01 566.69 522.53 566.69C522.53 574.14 518.12 587.12 512.61 592.63C492.21 592.63 468.47 598.73 446.24 598.73C446.24 605.22 427.93 608.44 427.93 616.28C418.96 616.28 403.52 629.38 403.52 639.16C390.35 639.16 350.88 639.52 350.88 627.72C347.15 627.72 342.49 626.45 342.49 623.14L342.49 620.85L345.54 620.09L344.01 622.38Z" />
	<path id="Jordiha" fill-rule="evenodd" class="shp0" d="M177.7 584.24C185.4 591.93 200.59 587.21 200.59 600.26C200.59 606.56 195.13 615.63 191.44 619.33C191.44 626.9 193.21 655.18 186.86 655.18C186.86 668.32 190.67 677.74 190.67 693.33C186.12 693.33 176.18 712.65 176.18 715.45C165.59 715.45 136.51 728.77 136.51 733C98.97 733 70.46 718.07 46.49 694.09C45.98 681.89 45.47 669.68 44.96 657.47L53.35 645.27L65.56 638.4L106.75 626.96L126.59 614.75C131.7 614.75 151.76 605.47 151.76 601.78C156.22 601.78 178.47 585.98 178.47 583.47L177.7 584.24Z" />
	<path id="BADAAMDA" fill-rule="evenodd" class="shp0" d="M297.67 597.2L262.19 568.6L253.04 554.86C253.04 545.88 267.66 519.39 275.93 519.39L283.94 502.22C284.7 490.4 285.46 478.58 286.22 466.75L293.09 451.87C298.14 451.87 308.59 433.98 310.26 428.99C313.31 419.82 317.12 402.67 317.12 393.51L327.42 380.92L345.73 375.2C345.73 374.26 367.09 350.41 369.76 347.74C382.28 347.74 395.35 348.88 408.67 348.88C418.43 339.12 431.01 337.44 444.14 337.44C454.28 337.44 454.44 355.16 454.44 363.76C465 374.31 464.74 417.86 464.74 434.71L457.88 449.58L426.98 480.48C422.02 501.08 417.06 521.68 412.1 542.28C408.99 546.94 391.04 582.33 389.22 582.33C389.22 603.01 379.89 634.97 358.32 634.97C352.13 634.97 338.57 633.53 334.29 629.25C311.33 629.25 295.38 622.58 295.38 599.49L297.67 597.2Z" />
	<path id="Telaidih" fill-rule="evenodd" class="shp0" d="M10.63 545.33C24.66 545.33 72.42 541.81 72.42 556.01L138.8 556.01C143.62 560.83 179.11 586.52 185.33 586.52L184.57 588.81C175 598.38 136.82 624.67 120.49 624.67C120.49 627.46 111.21 642.98 106.75 642.98C97.48 642.98 89.22 643.74 80.05 643.74C80.05 648.94 66.19 654.42 58.69 654.42C51.36 661.75 50.65 689.51 47.25 689.51C45.72 689.77 44.2 690.03 42.67 690.28C42.67 684.79 32.62 656.71 28.18 656.71C28.18 642.02 25.81 626.88 17.5 618.57L15.21 617.04L3 598.73C3 586.8 4.22 546.09 12.15 546.09L10.63 545.33Z" />
	<path id="KRISHNAPUR" fill-rule="evenodd" class="shp0" d="M174.84 683.79C164.92 678.83 166.83 668.17 166.83 657.47C174.43 649.88 178.28 599.64 178.28 584.24C196.61 584.24 224.05 580.89 224.05 560.2C226.61 560.2 233.2 547.1 233.2 543.04C233.2 543.04 242.36 530.74 242.36 530.45C245.83 530.45 250.24 529.43 252.66 527.02C270.6 527.02 291.02 529.31 306.44 529.31C306.44 541.65 320.42 586.52 330.47 586.52C330.47 591.31 336.27 608.27 340.77 608.27C340.77 611.12 342.25 619.71 345.35 619.71C345.35 632.61 343.06 640.59 343.06 652.9C348.81 652.9 347.64 667.5 347.64 673.49C347.58 673.49 335.98 678.29 335.05 679.22C328.33 679.22 304.15 678 304.15 673.49C295.01 673.49 286.75 676.93 278.98 676.93L257.23 704.39C257.23 707.51 237.34 707.82 233.2 707.82L197.73 707.82L195.44 705.54C187.64 702.93 175.06 687.23 172.55 687.23L174.84 683.79Z" />
	<path id="Jojodih" fill-rule="evenodd" class="shp0" d="M249.42 539.99C255.6 531.74 258.57 518.79 258.57 507.18C260.81 507.18 268.49 493.41 268.49 490.4C282.21 490.4 279.17 423.12 279.17 407.24C279.17 397.68 279.85 356.13 286.03 356.13L286.8 356.13L294.43 369.86C294.43 385.48 302.05 395.42 302.05 409.53C306.31 409.53 309.29 414.87 316.55 414.87C316.55 398.19 315.02 387.16 315.02 370.62L320.36 358.42L329.52 359.18L356.22 386.65L366.9 387.41L369.19 383.59L374.53 371.39L384.45 372.15C384.96 377.24 385.46 382.32 385.97 387.41C382.44 387.41 363.85 402.64 363.85 405.72L353.93 412.58C333.61 412.58 340.1 434.8 329.52 445.39C329.52 449.09 324.45 465.99 321.13 465.99L321.13 502.61L315.02 504.89C315.02 512.69 315.39 530.07 323.42 530.07C323.42 546.6 308.26 562.87 294.43 562.87C294.43 554.51 286.03 550.71 286.03 544.56C272.45 544.56 262.38 539.99 251.7 539.99L249.42 539.99Z" />
	<path id="SIMLA" fill-rule="evenodd" class="shp0" d="M559.72 451.49C554.77 451.49 531.11 445.19 531.11 444.63L487.63 440.05C487.63 439.7 468.44 433.18 463.6 433.18C459.27 428.86 450.85 426.16 445.29 420.59L443 419.45L441.86 417.16C441.86 404.06 449.24 363.38 460.16 363.38C460.16 360.56 464.48 349.65 468.18 349.65C468.18 346.15 496.3 347.36 502.51 347.36C506.96 342.91 514.23 344.36 519.67 341.63L525.39 335.91C525.39 309.51 563.03 308.45 583.75 308.45C584.02 308.45 607.79 332.34 607.79 334.77L620.37 342.78C637.37 342.78 652.5 359.94 668.44 359.94C670.86 362.37 674.27 365.67 677.59 365.67L679.88 369.1C685.54 369.1 697.04 383.55 697.04 388.55C697.04 407.99 668.97 424.03 651.27 424.03L638.68 429.75L630.67 442.34L623.81 448.06C615.66 448.06 614.75 459.5 604.35 459.5L603.21 461.79C595.28 461.79 559.72 464.04 559.72 454.92L559.72 451.49Z" />
	<path id="HARIBHANJA" fill-rule="evenodd" class="shp1" d="M370.14 123.45C386.97 119.24 421.49 119.02 430.79 109.71L435.37 107.43C437.94 107.43 449.1 106.09 449.1 102.85C458.26 102.85 479.44 102.27 485.72 95.98C496.48 95.98 528.06 82.22 528.06 74.24L534.93 75.38C537.98 79.58 541.03 83.78 544.08 87.97C544.08 89.93 545.2 95.98 547.52 95.98C547.52 124.06 577.38 139.47 607.02 139.47L608.17 140.61C608.17 143.91 620.75 144.65 620.75 152.06L623.04 153.2C623.04 171.2 638.14 188.67 605.88 188.67C605.88 189.61 599.09 194.4 596.72 194.4L581.85 209.27C581.85 212.42 565.14 249.32 561.25 249.32C542.29 249.32 492.59 241.71 492.59 220.72C484.86 220.72 447.96 213.56 447.96 228.73L422.78 228.73L411.34 223C411.34 185 378.3 194.69 366.71 171.51L366.71 134.89C370.36 134.89 372.43 126.87 372.43 122.3L370.14 123.45Z" />
	<path id="Riding" fill-rule="evenodd" class="shp0" d="M474.47 92.93C474.47 88.12 472.18 80.51 472.18 78.44C462.34 78.44 450.86 71.57 439.38 71.57C439.38 68.23 438.07 57.08 434.8 57.08C435.05 47.67 435.31 38.26 435.56 28.85C438.93 25.48 450.53 5.2 455.4 5.2L456.92 3.67C460.96 3.67 462.25 3.66 464.55 5.96C464.55 18.13 472.94 30.39 472.94 39.53L485.15 53.26L502.7 60.13L553.81 62.42L551.52 65.47C547.4 65.47 542.37 102.06 542.37 108.19C546.98 112.8 561.22 125.95 551.52 135.65L539.32 141.76C524.47 141.76 501.17 145.26 501.17 126.5L492.78 108.19C488.96 102.59 485.15 97 481.34 91.41L475.23 91.41C474.98 91.91 474.72 92.42 474.47 92.93Z" />
	<path id="Bitapur" fill-rule="evenodd" class="shp0" d="M539.32 59.36L625.52 60.13C633.58 60.13 650.7 58.33 650.7 68.52C653.88 68.52 652.99 82.33 652.99 85.3C652.99 92 649.42 112 643.83 112C644.09 117.6 644.34 123.19 644.59 128.79C645.67 128.79 658.41 132.69 659.85 134.13C683.39 134.13 711.17 137.18 733.85 137.18C731.82 152.18 729.78 167.19 727.75 182.19C723.42 272.6 727.77 244.81 712.49 257.72C709.1 254.32 698.76 245.41 698.76 240.93L696.47 240.17C692.37 236.07 676.31 233.3 669.77 233.3L665.96 232.54C654.19 232.54 646.54 236.36 635.44 236.36C635.44 233.49 630.1 232.02 630.1 227.96C612.65 227.96 601.15 232.54 585.09 232.54L585.09 211.18C589.09 211.18 601.87 183.16 601.87 176.09L600.35 173.8C585.57 173.8 566.58 160.83 557.62 160.83C557.62 158.18 552.94 154.73 550 154.73C550 154.52 539.32 138.7 539.32 138.7C539.32 132.12 539.23 120.48 543.13 116.58C543.13 111.64 541.07 100.79 537.79 97.51C537.79 84.63 540.84 69.99 540.84 60.13L539.32 59.36Z" />
	<path id="CHILKU" fill-rule="evenodd" class="shp0" d="M668.44 394.27C657.88 380.2 655.85 356.09 655.85 339.35C669.01 339.35 665 314.74 665 301.58C677.73 288.85 698.19 279.07 698.19 254.66C701.47 251.38 707.34 241.93 707.34 237.5C711.06 235.64 723.36 216.52 723.36 214.61L730.23 214.61L739.38 228.34C739.38 238.49 741.16 271.32 746.25 276.41C746.63 293.19 747.01 309.97 747.39 326.76C752 331.36 750.68 368.1 746.25 372.53C746.25 383 701.69 396.5 693.61 404.57L692.47 405.72C685.46 405.72 677.8 404.57 671.87 404.57L670.72 396.56L668.44 394.27Z" />
	<text id="TELAIDIH_" style="transform: matrix(0.393,0,0,0.393,44.769,610.363)" >
		<tspan x="0" y="0" class="txt2">TELAIDIH</tspan>
	</text>
	<text id="JORDIHA-2" style="transform: matrix(0.34,0,0,0.34,90.924,687.985)" >
		<tspan x="0" y="0" class="txt2">JORDIHA</tspan>
	</text>
	<text id="KRISHNAPUR-2" style="transform: matrix(0.329,0,0,0.329,218.327,635.266)" >
		<tspan x="0" y="0" class="txt2">KRISHNAPUR</tspan>
	</text>
	<text id="JOJODIH_" style="transform: matrix(0.062,-0.362,0.362,0.062,298.487,502.763)" >
		<tspan x="0" y="0" class="txt2">JOJODIH</tspan>
	</text>
	<text id="BADAAMDA_" style="transform: matrix(0.29,-0.183,0.183,0.29,352.937,475.737)" >
		<tspan x="0" y="0" class="txt2">BADAAMDA</tspan>
	</text>
	<text id="CHILKU_" style="transform: matrix(0.224,-0.274,0.274,0.224,683.277,363.725)" >
		<tspan x="0" y="0" class="txt2">CHILKU</tspan>
	</text>
	<text id="BITAPUR-2" style="transform: matrix(0.398,0,0,0.398,618.847,178.384)" >
		<tspan x="0" y="0" class="txt2">BITAPUR</tspan>
	</text>
	<text id="KHARSAWAn-2" style="transform: matrix(0.333,0,0,0.333,569.259,274.575)" >
		<tspan x="0" y="0" class="txt2">KHARSAWAn</tspan>
	</text>
	<text id="BURUDIH_" style="transform: matrix(0.372,0,0,0.372,460.928,530.166)" >
		<tspan x="0" y="0" class="txt2">BURUDIH</tspan>
	</text>
	<text id="HARIBHANJA-2" style="transform: matrix(0.323,0,0,0.323,425.453,165.472)" >
		<tspan x="0" y="0" class="txt2">HARIBHANJA</tspan>
	</text>
	<text id="RIDING-2" style="transform: matrix(0.291,0,0,0.291,482.67,83.714)" >
		<tspan x="0" y="0" class="txt2">RIDING</tspan>
	</text>
	<text id="DALAIKELA-2" style="transform: matrix(0.361,0,0,0.361,426.979,310.02)" >
		<tspan x="0" y="0" class="txt2">DALAIKELA</tspan>
	</text>
	<text id="SIMLA-2" style="transform: matrix(0.391,0,0,0.391,519.289,403.931)" >
		<tspan x="0" y="0" class="txt2">SIMLA</tspan>
	</text>
</svg>