<svg xmlns="http://www.w3.org/2000/svg" viewBox="0 0 750 675" width="750" height="675">
	<style>
		tspan { white-space:pre }
		.shp0 { fill: #000000 } 
		.txt1 { font-size: 13px;fill: #000000;font-family: "Liberation Sans";font-weight: 400 } 
	</style>
	<g id="Layer">
		<path id="Layer" class="shp0" d="M211.54 429.52C206.33 419 208.67 403.84 208.67 391.88C210.99 391.88 215.37 386.4 215.37 383.19L216.33 383.19C216.51 383.01 229.73 367.75 229.73 367.75C229.73 358.96 218.25 355.23 218.25 339.76C202.62 339.76 187.05 338.23 177.08 328.18C173.48 317.26 174.21 306.02 174.21 293.43C175.9 291.73 177.08 290.67 177.08 288.6C180.43 285.23 184.54 283.98 188.57 279.92C182.7 274 162 270.26 155.07 270.26L155.07 226.83L160.81 213.32L163.68 210.42C169.64 207.42 175.49 192.08 183.79 192.08C185.57 192.08 186.66 192.2 186.66 190.15L190.49 188.22L232.6 172.78C235.87 172.78 250.79 171.33 250.79 174.71C259.4 174.71 256.83 201.07 264.19 208.49C279.87 208.49 298.55 206.56 312.05 206.56C317.32 201.26 318.54 189.19 327.37 189.19L340.77 188.22L342.68 190.15C342.68 198.29 345.18 211.97 350.34 217.18C350.34 243.58 369.58 253.86 396.29 253.86C400.65 258.25 408.25 268.33 415.43 268.33L415.43 306.94C422.53 314.1 421.17 329.81 421.17 340.72C414.65 347.3 400.12 353.86 400.12 362.92C388.13 362.92 366.61 392.52 366.61 401.53L350.34 413.11C330.11 413.11 323.55 412.16 308.22 396.7L270.89 395.74L261.32 401.53C261.32 418.24 235.82 442.68 225.9 452.68L204.84 452.68L202.93 434.35L208.67 431.45L211.54 429.52Z" />
		<text id="Rugudih" style="transform: matrix(0.638,0,0,0.643,287.165,328.176)" >
			<tspan x="0" y="0" class="txt1">Rugudih</tspan>
		</text>
	</g>
	<g id="Layer">
		<path id="Layer" class="shp0" d="M190.49 271.23C187.54 283.1 182.51 294.79 182.51 305.98L185.06 306.62L192.72 308.23C192.72 304.78 198.8 303.4 202.29 303.4C202.29 306.41 206.12 312.73 206.12 317.88C215.18 317.88 228.67 335.15 234.2 340.72L240.9 341.69L238.35 346.51C238.35 354.62 238.98 359.06 238.98 368.39C228.79 368.39 225.59 376.76 218.56 376.76C218.56 390.64 214.74 397.5 214.74 413.11L213.78 427.59C213.78 429.38 199.77 431.13 196.87 431.13L196.23 430.81C184.44 430.81 173.66 419.55 159.86 419.55L134.65 420.19L133.37 420.51L131.78 420.83L129.54 421.48L123.16 425.98L118.69 430.81C118.69 441.88 94.22 438.53 84.55 438.53L74.34 439.82L56.79 445.61L52.33 454.62C52.01 459.98 51.69 465.34 51.37 470.7L46.9 473.28L10.21 473.6L7.34 468.45L7.34 420.83L14.36 420.51L25.53 390.59L34.78 389.95L36.37 387.05L37.65 384.8L37.97 384.48L37.97 383.83C41.83 379.95 55.73 349.41 41.16 349.41L36.69 343.94C36.69 336.89 43.07 329.78 43.07 329.78C49.81 329.78 59.08 330.43 65.73 330.43L76.26 323.03L80.73 317.88C80.73 306.2 91.19 298.25 103.06 298.25C108.87 304.11 105.29 325.6 105.29 335.58L108.17 340.4C124.28 340.4 144.14 327.85 155.71 327.85L163.68 316.92C163.68 309.7 182.01 271.23 191.12 271.23L190.49 271.23Z" />
		<text id="Rolahatu" style="transform: matrix(0.638,0,0,0.643,0,6.446)" >
			<tspan x="0" y="0" class="txt1">Rolahatu</tspan>
		</text>
	</g>
	<g id="Layer">
		<path id="Layer" class="shp0" d="M317.64 188.55C317 178.25 316.36 167.95 315.72 157.66L316.36 157.02L331.68 156.37C333.38 158.09 343.16 164.97 343.16 165.38L345.71 166.02L385.28 166.67C390 161.91 401.86 153.15 410.17 153.15L410.81 153.8C410.81 156.68 413.36 162.16 413.36 163.45L414.63 164.09C428.08 164.09 430.64 157.66 442.71 157.66C442.71 160.25 443.67 163.45 445.9 163.45L447.18 164.09C450.45 164.09 469.51 165.11 469.51 167.31L472.07 167.95C472.07 179.59 468.88 185.63 468.88 195.62C475.28 195.62 488.22 218.79 490.57 218.79C490.57 222.16 491.92 234.23 490.57 234.23L485.47 243.24C474.49 243.24 470.79 247.15 470.79 258.04L475.9 260.61C475.68 262.11 475.47 263.62 475.26 265.12L456.11 270.26C456.11 289.47 421.02 301.05 421.02 318.52C415.19 318.52 406.34 334.74 406.34 341.69L397.4 351.98L383.36 351.34C383.36 357.99 372.34 360.99 366.77 360.99L366.77 356.49L377.62 339.11C401.27 339.11 390.38 279.01 390.38 261.26C343.37 261.26 316.36 235.44 316.36 186.61L317.64 188.55Z" />
		<text id="Baruhatu" style="transform: matrix(0.638,0,0,0.643,0,6.446)" >
			<tspan x="0" y="0" class="txt1">Baruhatu</tspan>
		</text>
	</g>
	<g id="Layer">
		<path id="Layer" class="shp0" d="M386.72 168.6L420.22 169.56C422.61 171.98 456.81 177.28 459.46 177.28C459.46 184.33 464.25 198.31 464.25 204.31C469.23 204.31 481.48 215.71 481.48 222.65C493.54 228.73 496.21 239.44 505.41 248.71L515.94 253.53C525.41 260.7 532.16 272.84 543.7 272.84C544.78 272.84 576.24 238.76 576.24 235.2C579.56 235.2 587.83 228.34 591.56 224.58C608.19 224.58 642.66 212.62 652.82 202.38L653.78 190.8L647.08 183.08L598.26 172.46C598.26 170.14 569.19 154.12 560.93 154.12L533.17 150.26C507.56 141.65 480.57 130.96 447.98 130.96C436.71 130.96 393.42 140.29 393.42 149.29L380.97 157.98C377.1 157.98 359.91 169.23 359.91 170.53C369.3 170.53 376.95 166.67 383.84 166.67L386.72 168.6Z" />
		<text id="Gomiadih" style="transform: matrix(0.638,0,0,0.643,0,6.446)" >
			<tspan x="0" y="0" class="txt1">Gomiadih</tspan>
		</text>
	</g>
	<g id="Layer">
		<path id="Layer" class="shp0" d="M677.71 449.47C656.7 444.17 588.69 447.6 588.69 421.48C583.03 421.48 578.16 393.68 578.16 387.7C581.15 381.66 587.59 379.15 592.52 374.18L595.39 368.39L596.35 340.4C600.72 340.4 619.32 320.24 619.32 312.41C620.34 312.41 627.93 303.88 627.93 300.83C636.94 300.83 649.95 268.63 649.95 259.33C652.05 259.33 670.23 237.27 670.53 234.23C676.52 237.53 685.28 233.35 689.2 229.4C702.14 229.4 739.93 236.08 739.93 245.81L739.93 247.74C737.03 247.74 724.61 257.78 724.61 262.22L722.7 276.7C738.66 292.8 749.5 281.99 749.5 313.38C749.5 316.04 746.73 318.2 744.71 318.2C744.71 320.86 733.54 323.99 731.31 323.99C731.31 326.45 716.12 330.75 713.13 330.75C702.74 330.75 673.31 336.15 667.18 342.33L666.22 364.53C672.27 370.63 700.68 378.74 700.68 385.77L703.55 387.7L704.51 387.7L705.47 388.66C705.47 405.36 712.51 428.86 700.68 440.78C694.34 440.78 684.29 448.5 679.62 448.5L677.71 449.47Z" />
		<text id="Arwan" style="transform: matrix(0.638,0,0,0.643,0,6.446)" >
			<tspan x="0" y="0" class="txt1">Arwan</tspan>
		</text>
	</g>
	<g id="Layer">
		<path id="Layer" class="shp0" d="M322.74 389.95C326.24 389.95 333.59 383.56 333.59 379.65C344.59 379.65 362.31 369.62 362.31 360.99L394.85 341.04L407.61 338.47C411.11 338.47 417.19 337.16 417.19 341.69L436.33 341.04C436.33 343.2 436.09 345.55 438.25 345.55C441.63 348.96 468.2 347.48 474.62 347.48L482.28 359.71C482.28 368.57 484.19 378.99 484.19 386.09C490.28 386.09 514.82 395.58 514.82 398.31L537.16 400.24L537.16 409.25C536.94 409.89 536.73 410.54 536.52 411.18C526.27 411.18 523.12 418.69 523.12 429.2C522.91 430.27 522.69 431.34 522.48 432.42C528.18 432.42 557.58 440.32 557.58 441.42L558.85 441.42L553.11 458.8L553.11 478.75L558.85 492.9C558.85 500.11 560.66 511.03 556.3 515.42L517.38 516.71L514.82 510.92C501.72 510.92 460.58 496.97 460.58 487.11L458.67 486.47C458.67 484.27 445.9 474.88 445.9 474.88C436.14 474.88 415.27 465.54 415.27 455.58C392.19 455.58 342.52 429.22 342.52 409.25C342.52 409.25 324.02 393.3 324.02 391.88L322.74 389.95Z" />
		<text id="Maranghatu" style="transform: matrix(0.638,0,0,0.643,0,6.446)" >
			<tspan x="0" y="0" class="txt1">Maranghatu</tspan>
		</text>
	</g>
	<g id="Layer">
		<path id="Layer" class="shp0" d="M590.6 638.64C575.23 630.89 551 619.95 537.96 606.79L510.2 597.14L493.92 595.21C486.11 592.59 477.29 586.52 469.04 586.52L463.29 583.63C457.51 583.63 441.79 575.91 431.7 575.91C431.7 574.73 418.82 568.19 416.39 568.19L408.73 553.71C408.73 538.97 408.14 522.69 412.56 509.31C413.55 506.33 410.37 490.97 414.47 490.97C414.47 486.97 417.33 468.77 421.17 468.77C421.17 466.09 421.32 467.84 426.12 469.09C428.62 452.94 454.03 464.91 464.25 464.91L476.69 469.74L483.39 476.49C483.39 492.5 532.21 519.47 532.21 538.27L603.05 538.27C604.61 539.84 612.06 542.13 612.62 542.13C612.62 560.6 611.36 634.12 601.13 644.44L595.39 644.44L588.69 641.54L590.6 638.64Z" />
		<text id="Tilopada" style="transform: matrix(0.638,0,0,0.643,0,6.446)" >
			<tspan x="0" y="0" class="txt1">Tilopada</tspan>
		</text>
	</g>
	<g id="Layer">
		<path id="Layer" class="shp0" d="M583.74 630.6C581.62 633.45 565.63 646.69 564.6 646.69C564.39 653.55 564.17 660.41 563.96 667.28C562.26 668.78 560.56 670.28 558.85 671.78C550.39 671.78 542.73 675 532.05 675C532.05 673.48 519.29 658.37 519.29 651.84C507.4 651.84 492.95 649.91 479.72 649.91L461.86 640.25C462.49 627.81 463.13 615.37 463.77 602.93C451.91 590.98 432.5 595.97 432.5 571.4L433.78 570.76C438.95 570.76 445.39 568.83 452.28 568.83C452.28 573.39 477.17 581.46 477.17 584.92L528.86 590.06C528.86 597.6 567.34 619.66 578.64 619.66C578.64 620.53 584.38 628.67 584.38 628.67C584.17 629.31 583.96 629.96 583.74 630.6Z" />
		<text id="Pondakata" style="transform: matrix(0.638,0,0,0.643,0,6.446)" >
			<tspan x="0" y="0" class="txt1">Pondakata</tspan>
		</text>
	</g>
	<g id="Layer">
		<path id="Layer" class="shp0" d="M445.11 364.53C429.52 364.53 409.06 351.98 400.12 351.98L400.12 317.24C407.52 309.77 417.35 299.62 417.35 288.28C424.96 288.28 441.81 266.51 447.02 261.26C452.19 261.26 481.48 238.08 481.48 236.16L482.44 236.16C486.53 234.78 504.45 226.51 504.45 226.51C515.17 226.51 526.3 225.54 537 225.54C537 224.07 556.19 214.9 558.06 213.96C579.14 203.33 595.04 191.76 620.28 191.76C620.28 192.75 655.36 214.93 662.39 214.93C662.39 215.6 667.97 224.58 670.05 224.58L677.71 240.99L677.71 254.5C673.17 259.08 663.35 281.22 663.35 288.28C656.81 294.88 640.38 305.63 640.38 315.31L636.55 320.13C636.55 323.38 628.76 331.71 626.98 331.71C626.98 334.23 619.06 342.33 617.4 342.33C617.4 345.51 605.4 366.46 604.96 366.46C604.96 373.13 597.39 387.61 592.52 392.52L587.73 401.21C587.73 420.49 543.28 424.37 526.47 424.37C526.47 420.92 482.57 396.38 476.69 396.38C476.69 386.18 469.58 373.77 464.25 368.39C458.39 368.39 454.31 365.5 447.98 365.5L445.11 364.53Z" />
		<text id="Chotasegoi" style="transform: matrix(0.638,0,0,0.643,0,6.446)" >
			<tspan x="0" y="0" class="txt1">Chotasegoi</tspan>
		</text>
	</g>
	<g id="Layer">
		<path id="Layer" class="shp0" d="M578.16 565.29C563.66 576.25 517.44 570.8 512.11 554.67L497.75 530.54C497.75 515.51 495.85 485.16 504.45 476.49C504.45 451.9 502.54 429.8 502.54 407C507.18 402.32 510.36 397.18 514.98 392.52L550.4 391.56C550.4 396.7 589.79 402.17 598.26 402.17L614.53 420.51L648.04 421.48L664.31 429.2L664.31 430.16C665.41 431.27 693.02 451.4 693.02 451.4L693.02 483.25L672.92 484.21C672.92 493.73 661.76 545.99 657.61 545.99C657.61 548.77 643.27 545.99 642.29 545.99C642.29 543.8 639.42 534.4 639.42 534.4C627.57 546.36 640.12 563.36 615.49 563.36L605.92 550.81C603 550.81 593.47 564.5 593.47 565.29L578.16 565.29Z" />
		<text id="Bandolohar" style="transform: matrix(0.638,0,0,0.643,0,6.446)" >
			<tspan x="0" y="0" class="txt1">Bandolohar</tspan>
		</text>
	</g>
</svg>