<svg xmlns="http://www.w3.org/2000/svg" viewBox="0 0 753 673" width="753" height="673">
	<style>
		tspan { white-space:pre }
		.shp0 { fill: #dbfff4;stroke: #22acaa;stroke-width: 2 } 
		.txt1 { font-size: 34px;fill: #000000;font-family: "" Microsoft  New  Tai  Lue"" } 
	</style>
	<path id="TENGADIH" fill-rule="evenodd" class="shp0" d="M369.67 549.74C364.31 546.52 353.36 539.24 347.61 539.24L346.56 510.87C352.96 504.48 353.91 495.4 353.91 486.71C358.49 486.71 367.67 469.9 377.03 469.9L380.18 468.85L381.23 467.8L395.93 464.65C408.41 464.65 417.22 464.93 424.3 472.01C443.54 472.01 468.62 485.45 490.48 490.91C512.11 496.32 552.02 494.68 566.11 508.77C571.14 508.77 588.17 516.8 588.17 522.43C589.97 522.43 589.22 523.92 589.22 525.58C589.22 538.57 591.33 550.42 591.33 564.45C591.33 578.37 603.18 653.74 583.97 653.74C590.57 658.68 582.64 668.45 575.57 668.45C571.05 672.96 540.05 669.7 536.7 666.35C520.13 666.35 488.38 652.92 488.38 635.88L481.02 625.38C473.09 617.44 460.01 611.95 460.01 598.06L457.91 597.01C457.91 589.58 443.21 589.04 443.21 582.31C428.95 582.31 368.62 563.96 368.62 551.84L369.67 549.74Z" />
	<path id="TILLA" fill-rule="evenodd" class="shp0" d="M208.95 308.13C213.4 325.92 213.15 334.66 213.15 355.4C208.71 359.84 205.8 382.04 205.8 387.97C204.2 387.97 185.84 422.28 185.84 425.78C172.37 439.25 149.07 463.17 149.07 482.51L150.12 484.61C164.38 484.61 173.17 493.02 187.94 493.02C187.94 493.02 200.3 460.7 201.59 459.4C212.43 448.56 226.49 448.89 243.61 448.89C243.61 440.16 291.87 442.59 301.39 442.59C301.39 429.52 310.69 431.19 316.1 425.78C316.1 420.88 318.2 414.96 318.2 412.13C324.78 412.13 333.76 409.17 338.16 404.77C338.16 382.93 352.42 378.95 365.47 365.91C365.47 353.74 371.66 347.11 379.13 339.64C379.13 327.26 383.33 313.52 383.33 300.78C391.24 292.86 403.05 273.22 393.83 264.01C382.02 264.01 371.45 258.65 359.17 254.55C331.17 245.22 310.84 248.89 310.84 211.48L304.54 204.13C278.63 204.13 263.57 207.92 263.57 234.59C260.44 237.73 257.27 248.72 257.27 253.5C250.24 260.53 241.51 282.38 241.51 290.27L239.41 292.37C239.08 292.37 210 308.13 210 308.13L208.95 308.13Z" />
	<path id="LAKRI" fill-rule="evenodd" class="shp0" d="M218.4 318.63C209.42 309.65 213.15 289.28 213.15 276.61C196.1 259.57 188.89 210.53 207.9 191.52C207.9 188.76 215.11 153.85 218.4 150.56L219.45 148.45C219.45 129.02 221.92 108.78 225.75 89.63C228.09 77.95 239.41 59.54 239.41 50.76L258.32 35C263.12 32.6 277.23 24.42 277.23 21.34L310.84 5.59C321.41 5.59 331 2.44 342.36 2.44L361.27 2.44L379.13 6.64C380.1 7.61 396.98 19.24 396.98 19.24C396.98 23.47 411.69 34.95 411.69 43.4C411.69 45.37 411.57 46.56 413.79 46.56C415.19 54.61 416.59 62.66 417.99 70.72C422.42 83.99 431.62 102.29 424.3 116.94C403.95 137.29 403.29 124.99 380.18 132.7C346.92 143.78 307.69 156.75 307.69 198.88L306.64 199.93C306.64 210.28 296.14 220.17 296.14 230.39L294.04 234.59C290.67 237.96 278.98 255.08 275.13 260.86L274.08 264.01C269.91 268.18 244.66 295.8 244.66 299.72C239.32 299.72 217.35 309.18 217.35 309.18L217.35 319.68L218.4 318.63Z" />
	<path id="LUPUNGDIH" fill-rule="evenodd" class="shp0" d="M170.08 427.88C173.49 421.05 200.54 392.73 200.54 390.07C203.18 390.07 214.2 379.02 214.2 376.41L216.3 375.36C216.3 367.86 233.11 365.72 233.11 360.65C243.01 360.65 246.84 344.9 257.27 344.9L259.37 342.79L292.99 318.63C297.45 318.63 347.53 291.4 349.71 289.22L377.03 282.92C392.14 277.88 408.85 290.27 422.2 290.27C424.26 292.33 428 295.52 430.6 295.52C430.6 300.42 435 310.42 437.95 313.38C437.95 321.1 441.11 328.6 441.11 337.54L436.9 343.85C426.28 343.85 424.29 380.62 419.04 385.87C413.45 385.87 403.28 427.9 396.98 437.34C394.91 440.46 387.09 449.33 384.38 452.05C384.38 465.16 368.35 524.8 361.27 531.88L359.17 533.98L357.07 536.09C354.53 536.09 346.56 541.16 346.56 542.39C339.01 542.39 327.26 545.38 318.2 547.64C310.27 549.62 274.08 541.88 274.08 537.14C269.23 537.14 259.66 535.32 256.22 531.88C240.17 531.88 214.25 525.63 203.69 515.08C191.24 515.08 180.33 510.87 169.03 510.87L145.92 495.12C124.67 473.87 144.09 427.88 166.93 427.88L170.08 427.88Z" />
	<path id="JHIMRI" fill-rule="evenodd" class="shp0" d="M80.61 125.34C80.85 123.01 81.08 120.67 81.31 118.34C77.95 118.34 73.82 114.35 71.51 112.04C71.51 101.03 77.85 103.63 87.62 103.63L94.62 99.43C94.62 78.89 131.63 81.92 150.64 81.92C150.64 85.46 176.38 93.83 184.96 93.83L189.86 88.23C189.86 78.25 186.36 74.23 186.36 65.12L187.76 64.41C202.27 64.41 219.28 58.71 219.28 43.4C221.36 43.4 224.18 39.27 224.18 37.1L239.59 31.5C247.62 31.5 256.29 29.4 265.5 29.4C265.5 32.82 272.5 31.96 272.5 36.4C275.44 36.4 271.78 54.63 270.4 56.01L269.7 58.11C266.12 58.11 260.7 67.92 254.99 67.92C254.99 74.05 234.9 100.13 229.78 100.13C229.78 112.17 224.18 119.89 224.18 133.05L225.58 135.15C225.58 146.51 235.56 160.53 231.18 173.67C226.72 187.07 222.78 198.45 222.78 213.58L214.37 226.19L201.77 224.09C201.77 222.26 196.6 214.28 194.77 214.28C194.77 197.56 170.25 185.28 170.25 163.86C161.96 163.86 110.73 146.08 110.73 137.95L81.31 123.24L80.61 125.34Z" />
	<path id="CHIGRAPARKIDIH" fill-rule="evenodd" class="shp0" d="M416.07 77.02L416.07 88.93L446.88 107.13L458.79 125.34C459.96 132.81 461.12 140.28 462.29 147.75C462.29 151.14 462.87 158.47 462.95 165.98C463.06 176.98 462.11 188.37 456.69 188.37C447.44 197.62 425.57 194.68 412.57 194.68L402.06 198.18C402.06 204.24 392.07 216.57 387.36 221.29C386.89 231.09 386.42 240.9 385.95 250.7L380.35 250.7L375.45 248.6L375.45 224.09L369.85 216.39C364.65 216.39 359.77 213.58 356.54 213.58C356.07 214.99 355.61 216.39 355.14 217.79L348.14 217.79C342.76 215.1 332.73 191.13 332.73 184.87L316.62 176.47C316.62 168.73 312.42 166.44 312.42 159.66C312.42 152.57 316.62 147.78 316.62 142.85C318.98 142.85 334.83 137.29 334.83 134.45C350.8 134.45 357.79 125.34 373.35 125.34L391.56 114.84C391.56 110.75 416.07 79.12 416.07 79.12L416.07 77.02Z" />
	<path id="ADARDIH" fill-rule="evenodd" class="shp0" d="M528.3 212.53C509.46 231.37 484.25 243 457.91 243L455.81 245.1C446.82 245.1 438 256.65 428.5 256.65C409.24 275.91 353.71 270.31 322.4 270.31L321.35 269.26L319.25 267.16L319.25 266.11C316.8 266.11 293.38 237.75 286.68 237.75L281.43 224.09C274.99 204.75 292.99 189.38 292.99 177.87L307.69 164.21C312.61 164.21 320.31 161.06 327.65 161.06C327.65 164.1 354.96 178.92 354.96 178.92L396.98 178.92L433.75 165.26L450.56 165.26C466.26 160.03 523.04 148.58 523.04 174.72C532.08 174.72 538.8 197.3 538.8 208.33L530.4 212.53L528.3 212.53Z" />
	<path id="HEVEN" fill-rule="evenodd" class="shp0" d="M17.76 188.37C20.62 176.92 29.31 166.95 29.31 156.86L56.63 154.76C56.63 153.1 64.27 146.35 66.08 146.35C69.33 143.11 74.75 124.29 79.74 124.29C79.74 119.54 99.15 126.39 99.7 126.39L114.4 135.85C127.82 149.26 156.66 153.71 178.48 153.71L178.48 181.02L192.14 190.47C192.14 215.38 218.79 232.88 232.06 246.15L232.06 283.97L231.01 283.97L216.3 310.23L214.2 311.28L206.85 311.28C206.85 301.03 191.2 293.42 180.58 293.42C180.58 293.42 165.2 279.77 161.67 279.77C161.67 276.03 139.26 275.56 134.36 275.56C106.99 275.56 78.77 273.46 50.32 273.46C47.03 270.17 3.61 247.2 2 247.2C2 230.87 7.25 218.2 7.25 203.08L17.76 185.22L17.76 188.37Z" />
	<path id="GORDIH" fill-rule="evenodd" class="shp0" d="M562.96 267.16C559.3 272.05 534.6 298.47 534.6 298.67L514.64 308.13C510 308.13 479.07 314.29 476.82 316.53C476.82 326.76 465.74 332.29 454.76 332.29C454.76 333.88 447.6 350.15 445.31 350.15C445.31 367.3 407.49 394.07 407.49 395.32L390.68 395.32C373.48 378.12 374.92 359.72 374.92 335.44C375.73 335.44 382.28 316.46 382.28 312.33C370.37 300.43 368.62 279.93 368.62 258.76L371.77 255.6C399.62 255.6 420.62 229.34 450.56 229.34C450.56 227.94 462.65 223.04 465.27 223.04C472.75 215.56 502.21 206.04 512.54 208.33C520.35 210.07 541.08 199.06 548.26 206.23C548.26 226.47 590.66 245.76 572.42 264.01L565.06 266.11L562.96 267.16Z" />
	<path id="SAMANPUR" fill-rule="evenodd" class="shp0" d="M587.12 521.38C575.71 524.64 559.38 531.27 553.51 537.14C533.81 537.14 514.37 536.86 502.03 524.53C473.5 524.53 450.45 512.42 423.25 505.62C389.16 497.1 377.2 506.85 352.86 482.51C352.86 455.63 351.79 439.47 369.67 421.58C369.67 417.83 374.12 409.78 377.03 406.87C377.03 396.37 393.1 374.31 403.29 374.31C412.62 364.97 410.21 352.25 424.3 352.25L483.12 380.61C485.32 382.08 503.08 406.48 503.08 406.87C506.06 408.36 529.97 422.21 531.45 423.68C541.45 423.68 575.57 435.22 575.57 440.49C578.92 440.49 608.13 466.31 608.13 466.75C608.13 485.17 598.68 499.4 598.68 515.08C596.59 517.16 593.43 518.45 593.43 521.38L587.12 521.38Z" />
	<path id="CHALIYAMA" fill-rule="evenodd" class="shp0" d="M592.38 449.94C587.76 449.94 559.81 450.65 559.81 443.64L511.49 443.64C511.39 443.55 479.97 428.94 479.97 428.94C475.24 419.47 473.67 409.64 473.67 398.47C464.91 389.71 466.32 372.13 466.32 358.55C493.08 358.55 524.74 348.05 553.51 348.05C560.33 348.05 587.2 347.97 591.33 343.85L614.44 344.9C614.44 345.4 625.99 354.35 625.99 354.35C625.99 366.63 636.5 386.92 636.5 398.47C636.5 402.29 636.83 416.33 632.29 416.33C632.29 419.3 620.86 424.73 617.59 424.73C612.28 430.04 607.08 437.32 607.08 446.79C602.07 446.79 599.99 452.05 593.43 452.05L592.38 449.94Z" />
	<path id="CHIGRAPARKIDIH-2" fill-rule="evenodd" class="shp0" d="M547.2 266.11C554.38 266.11 561.09 268.21 570.32 268.21C580.51 258.02 614.92 254.55 632.29 254.55C632.29 258.64 631.87 260.44 634.4 262.96C634.4 287.76 632.29 311.29 632.29 336.49C629.06 339.73 621.79 344.85 621.79 348.05C603.45 348.05 585.32 355.65 567.16 361.7L541.95 361.7L526.19 366.96C515.05 366.96 506.56 362.75 496.78 362.75C483.66 375.88 448.82 371.16 427.45 371.16C427.45 370.66 419.44 361.04 417.99 359.6L417.99 347C422.23 342.76 427.4 338.64 432.7 333.34C432.7 328.61 436.23 320.35 439 317.58C442.97 317.58 457.91 309.33 457.91 304.98C465.23 304.98 480.64 299.06 485.23 294.47L509.39 293.42C509.39 291.3 534.13 279.77 537.75 279.77L546.15 266.11L547.2 266.11Z" />
	<path id="BADEDA" fill-rule="evenodd" class="shp0" d="M633.35 304.98C648.06 334.41 709.42 333.34 748.9 333.34C748.9 349.61 751 370.81 751 390.07C738.26 402.81 726.61 406.87 700.58 406.87C700.58 403.72 688.16 401.62 683.77 401.62C677.45 401.62 676.28 415.28 666.96 415.28L665.91 417.38L641.75 416.33L628.09 410.03L628.09 377.46C624.38 377.46 610.23 351.62 610.23 348.05L615.49 341.74C615.49 338.46 623.33 323.89 625.99 323.89C625.99 318.67 628.09 312.54 628.09 304.98L633.35 303.93L633.35 304.98Z" />
	<text id="JHIMRI-2" style="transform: matrix(0.457,0,0,0.457,150.119,126.475)" >
		<tspan x="0" y="0" class="txt1">JHIMRI</tspan>
	</text>
	<text id="HEVEN-2" style="transform: matrix(0.48,0,0,0.48,41.218,241.268)" >
		<tspan x="0" y="0" class="txt1">HEVEN</tspan>
	</text>
	<text id="LAKRI-2" style="transform: matrix(0.488,0,0,0.488,257.269,138.198)" >
		<tspan x="0" y="0" class="txt1">LAKRI</tspan>
	</text>
	<text id="CHIGRAPARKIDIH-3" style="transform: matrix(0.455,0,0,0.455,495.731,329.487)" >
		<tspan x="0" y="0" class="txt1">CHIGRAPARKIDIH</tspan>
	</text>
	<text id="BADEDA-2" style="transform: matrix(0.473,0,0,0.473,666.961,373.077)" >
		<tspan x="0" y="0" class="txt1">BADEDA</tspan>
	</text>
	<text id="SAMANPUR-2" style="transform: matrix(0.496,0,0,0.496,474.021,472.828)" >
		<tspan x="0" y="0" class="txt1">SAMANPUR</tspan>
	</text>
	<text id="TENGADIH-2" style="transform: matrix(0.47,0,0,0.47,489.078,567.683)" >
		<tspan x="0" y="0" class="txt1">TENGADIH</tspan>
	</text>
	<text id="LUPUNGDIH-2" style="transform: matrix(0.437,0,0,0.437,238.01,442.088)" >
		<tspan x="0" y="0" class="txt1">LUPUNGDIH</tspan>
	</text>
	<text id="TILLA-2" style="transform: matrix(0.497,0,0,0.497,221.202,333.139)" >
		<tspan x="0" y="0" class="txt1">TILLA</tspan>
	</text>
	<text id="ADARDIH_" style="transform: matrix(0.444,0,0,0.444,395.234,230.086)" >
		<tspan x="0" y="0" class="txt1">ADARDIH</tspan>
	</text>
	<text id="CHIGRAPARKIDIH-4" style="transform: matrix(0.434,0,0,0.434,322.75,172.367)" >
		<tspan x="0" y="0" class="txt1">CHIGRAPARKIDIH</tspan>
	</text>
	<text id="CHALIYAMA-2" style="transform: matrix(0.415,0,0,0.415,526.195,398.399)" >
		<tspan x="0" y="0" class="txt1">CHALIYAMA</tspan>
	</text>
	<text id="GORDIH-2" style="transform: matrix(0.437,0,0,0.437,456.863,274.01)" >
		<tspan x="0" y="0" class="txt1">GORDIH</tspan>
	</text>
</svg>