<svg xmlns="http://www.w3.org/2000/svg" viewBox="0 0 745 670" width="745" height="670">
	<style>
		tspan { white-space:pre }
		.shp0 { fill: #d4f4cc;stroke: #363636;stroke-width: 0.29 } 
		.shp1 { fill: #d4f4cc;stroke: #363636;stroke-width: 0.37 } 
		.shp2 { fill: #d4f4cc;stroke: #363636;stroke-width: 0.59 } 
		.shp3 { fill: #d4f4cc;stroke: #363636;stroke-width: 0.22 } 
		.shp4 { fill: #d4f4cc;stroke: #363636;stroke-width: 0.15 } 
		.shp5 { fill: #d4f4cc;stroke: #363636;stroke-width: 0.81 } 
		.shp6 { fill: #d4f4cc;stroke: #363636;stroke-width: 0.51 } 
		.shp7 { fill: #d4f4cc;stroke: #363636;stroke-width: 0.73 } 
		.txt8 { font-size: 102px;fill: #353535;font-family: "" Microsoft  New  Tai  Lue"" } 
		.txt9 { font-size: 116px;fill: #353535;font-family: "" Microsoft  New  Tai  Lue"" } 
		.txt10 { font-size: 114px;fill: #353535;font-family: "" Microsoft  New  Tai  Lue"" } 
		.txt11 { font-size: 104px;fill: #353535;font-family: "" Microsoft  New  Tai  Lue"" } 
		.txt12 { font-size: 100px;fill: #353535;font-family: "" Microsoft  New  Tai  Lue"" } 
		.txt13 { font-size: 110px;fill: #353535;font-family: "" Microsoft  New  Tai  Lue"" } 
		.txt14 { font-size: 136px;fill: #353535;font-family: "" Microsoft  New  Tai  Lue"" } 
		.txt15 { font-size: 107px;fill: #353535;font-family: "" Microsoft  New  Tai  Lue"" } 
		.txt16 { font-size: 112px;fill: #353535;font-family: "" Microsoft  New  Tai  Lue"" } 
		.txt17 { font-size: 118px;fill: #353535;font-family: "" Microsoft  New  Tai  Lue"" } 
		.txt18 { font-size: 124px;fill: #353535;font-family: "" Microsoft  New  Tai  Lue"" } 
		.txt19 { font-size: 119px;fill: #353535;font-family: "" Microsoft  New  Tai  Lue"" } 
		.txt20 { font-size: 122px;fill: #353535;font-family: "" Microsoft  New  Tai  Lue"" } 
		.txt21 { font-size: 97px;fill: #353535;font-family: "" Microsoft  New  Tai  Lue"" } 
		.txt22 { font-size: 142px;fill: #353535;font-family: "" Microsoft  New  Tai  Lue"" } 
		.txt23 { font-size: 145px;fill: #353535;font-family: "" Microsoft  New  Tai  Lue"" } 
		.txt24 { font-size: 99px;fill: #353535;font-family: "" Microsoft  New  Tai  Lue"" } 
		.txt25 { font-size: 143px;fill: #353535;font-family: "" Microsoft  New  Tai  Lue"" } 
		.txt26 { font-size: 62px;fill: #353535;font-family: "" Microsoft  New  Tai  Lue"" } 
	</style>
	<path id="KURMA" fill-rule="evenodd" class="shp0" d="M645.14 236.88C635.21 236.88 617.29 245.84 611.01 252.13C602.3 252.13 592.51 255.1 581.96 257.21C570.27 259.55 522.41 251.73 522.41 242.69C511.51 242.69 496.16 239.78 487.55 239.78C487.55 231.37 486.82 221.71 486.82 212.91L489 209.28C489 199.95 496.1 190.57 502.8 183.86L520.23 172.25L539.11 164.98L559.45 164.26C564.81 169.62 597.93 182.41 605.92 182.41L609.56 185.32C609.56 185.58 647.32 208.4 647.32 210.73L650.22 214.37L650.22 231.07C647.23 234.06 645.14 232.56 645.14 237.6L645.14 236.88Z" />
	<path id="DUMARDIH" fill-rule="evenodd" class="shp0" d="M523.86 96.72C506.18 92.3 485.13 89.46 467.22 89.46C461.96 84.2 442.35 77.11 435.26 77.11C435.26 73.48 406.94 53.64 406.94 50.24L404.04 44.43C404.04 37.48 406.21 30.72 406.21 24.82L408.39 21.92C414.46 15.86 419.52 7.39 429.45 7.39L431.63 5.94L446.16 3.04L495.54 1.58L534.75 11.03L544.2 16.11L563.8 35.72L573.97 51.69L573.97 75.66C573.97 77.41 558.72 84.71 558.72 94.54L525.31 95.99L523.86 96.72Z" />
	<path id="GENGERULI" fill-rule="evenodd" class="shp1" d="M603.02 123.59C572.61 123.59 566.79 104.79 551.46 89.46L551.46 64.77L555.82 50.97C566.78 50.97 574.91 41.31 581.23 34.99L630.62 35.72L668.38 42.25L709.05 56.05C709.05 56.05 727.7 73.97 727.93 74.21C727.93 92.59 753.38 137.36 739.55 151.19C739.55 155.15 734.38 174.42 733.01 174.42L726.48 193.31L716.31 193.31C704.43 193.31 692.34 175.26 692.34 162.08L680.72 146.1L668.38 136.66L641.51 138.11C633.4 136.49 601.57 127.34 601.57 125.77L603.02 123.59Z" />
	<path id="HERMA" fill-rule="evenodd" class="shp1" d="M73.61 544.79C101.54 544.79 123.54 517.2 149.86 517.2L160.03 526.64C175.35 557.28 243.54 528.55 243.54 568.03C253.7 568.03 280.65 565.92 288.57 573.84C298.67 583.95 298.73 591.17 298.73 607.25C297.79 607.25 284.41 614.31 283.48 615.24C269.27 615.24 256.28 626.13 242.82 626.13L232.65 634.12L222.48 655.18L215.22 668.25C195.95 668.25 180.72 660.99 165.11 660.99L146.96 646.46L117.91 625.4L115.73 621.77C114.28 608.46 112.82 595.15 111.37 581.83C105.69 576.15 74.33 557.54 74.33 556.41L73.61 546.25L73.61 544.79Z" />
	<path id="JONBANI_" fill-rule="evenodd" class="shp2" d="M401.68 489.06C376.34 482.72 369.44 472.35 337.04 472.35L337.04 473.81C329.44 473.81 322.52 482.52 318.16 486.88L313.08 499.95C313.08 518.63 284.66 542.16 273.86 552.96C273.86 560.96 270.23 571.11 270.23 582.01C271.35 582.01 281.38 593.63 296.37 593.63L297.83 592.91L302.18 590.73C302.18 586.87 345.76 575.12 345.76 572.57L349.39 570.39L369.72 563.13C379.56 563.13 394.74 558.44 400.95 552.24L412.57 536.26C412.57 524.52 413.3 509.11 413.3 496.32C411 496.32 402.4 491.26 402.4 489.06L401.68 489.06Z" />
	<path id="KATANGA_" fill-rule="evenodd" class="shp3" d="M14.17 430.72C99.65 473.46 89 442.22 165.25 411.73L218.77 410L229.99 398.78C229.99 366.71 229.18 332.97 236.9 302.09L260.21 247.7L225.68 241.66L190.28 253.75C190.28 227.85 148.92 220.08 123.81 220.08C123.81 256.45 27.84 250.59 25.4 255.47L21.94 280.51C39.63 280.51 56.55 330.58 84.96 330.58L89.28 363.38L69.42 397.05C58 397.05 15.04 414.09 15.04 422.95L14.17 431.58L14.17 430.72L14.17 430.72Z" />
	<path id="BANDU_" fill-rule="evenodd" class="shp0" d="M159.3 436.64C159.3 461.66 205.22 479.43 227.86 474.91C284.38 463.62 341.86 438.82 380.07 400.68C379.68 399.33 379.3 397.98 378.91 396.62C363.47 396.62 336.49 387.34 316.16 387.34C308.8 369.37 301.45 351.39 294.09 333.41C278.57 333.41 263.45 325.3 245.29 325.3L201.71 339.21L198.23 344.43L197.06 350.23L191.25 374.59C170.08 385.16 164.53 403.46 164.53 425.62C162.98 429.1 161.43 432.58 159.88 436.06L159.3 436.64Z" />
	<path id="BANA" fill-rule="evenodd" class="shp3" d="M613.17 125.74C549.65 125.74 572.2 143.69 545.42 170.5C545.42 182.97 539.6 200.73 531.87 208.47L481.73 212.54C449.07 245.22 423.06 269.51 377.38 269.51C377.38 279.91 355.86 281.71 347.56 281.71C341.58 275.72 335.63 268.42 329.95 262.72C329.95 231.46 334.83 223.93 354.34 204.4C354.34 189.21 359.76 170.3 359.76 156.93C378.43 156.93 396.35 130.83 396.35 110.82L461.4 79.63C481.02 79.63 500.92 76.91 521.03 76.91C521.03 77.99 592.04 116.24 611.82 116.24L611.82 127.1L613.17 125.74Z" />
	<path id="RAJNAGAR" fill-rule="evenodd" class="shp1" d="M402.38 492.01C336.99 492.01 301.38 474.24 301.38 407.41C312.89 395.9 365.94 382.37 385.12 382.37L399.79 366.83C399.79 317.28 515.5 335.04 540.51 339.21C577.87 345.43 597.41 317.63 625.11 317.63L627.7 316.76L630.29 321.94C630.29 348.54 599.21 366.18 599.21 384.1C574.8 384.1 552.02 422.65 533.6 441.07L497.35 454.02L398.93 454.02C393.24 456.87 391.7 460.9 386.84 463.52C383.37 465.39 387.71 474.49 387.71 479.06L400.66 489.42L402.38 492.01Z" />
	<path id="GOVINDPUR" fill-rule="evenodd" class="shp1" d="M518.05 340.73C497.61 340.73 473.41 352 456.32 334.92C455.11 331.29 453.9 327.66 452.69 324.02C452.69 304.17 447.54 287.94 454.15 268.11C455.36 263.75 456.57 259.39 457.78 255.03C457.78 250.67 457.64 242.82 460.68 239.78C460.68 223.78 470.06 204.93 486.82 204.93L492.63 211.46C500.46 223.2 505.42 223.71 518.78 228.16C529.04 231.59 540.16 235.02 547.83 242.69C563.19 242.69 579.05 255.54 579.05 271.01C564.54 285.53 541.29 293.87 541.29 318.21C540.08 320.15 538.87 322.09 537.66 324.02C533.4 324.02 520.23 331.41 520.23 334.92L520.23 339.28L518.05 340.73Z" />
	<path id="RAJNAGAR-2" fill-rule="evenodd" class="shp1" d="M304.54 250.68C296.79 246.8 286.78 235.43 278.4 235.43L270.41 225.26C270.41 219.74 275.33 199.12 277.67 199.12C277.67 165.71 300.45 157.72 332.87 157.72C338.37 152.21 366.87 151.91 377.17 151.91C387.32 162.06 433.67 162.8 451.24 162.8L470.85 169.34L483.19 178.78L486.1 180.96C494.41 197.59 486.91 230.99 474.48 243.41C472.3 250.92 470.12 258.42 467.94 265.93C467.94 277.41 467.12 323.39 461.41 329.11C449.83 340.69 394.53 337.82 374.99 337.82C373.79 336.62 358.28 330.56 358.28 330.56C358.28 316.09 337.32 272.46 327.06 272.46L309.63 262.3C309.63 258.67 301.64 249.95 301.64 249.95" />
	<path id="GAMAHARIYA" fill-rule="evenodd" class="shp1" d="M333.59 401C317.21 401 301.64 393.52 301.64 373.41C299.46 368.81 297.28 364.21 295.1 359.61C295.1 359.61 270.88 340.47 268.96 338.55C263.51 338.55 222.8 332.33 220.3 329.83L218.12 328.38C218.12 315.93 219.87 300.2 226.11 287.71C228.05 282.87 229.99 278.03 231.92 273.19C237.63 267.49 249.35 248.75 249.35 240.51C261.7 240.51 275.93 231.07 291.47 231.07C306.93 246.53 354.65 275.82 354.65 298.61C357.35 298.61 361.19 311.84 361.19 314.58C366.56 319.96 370.52 332.01 380.07 332.01C380.07 333.84 382.25 331.58 382.25 334.19C403.26 334.19 419.78 327.66 441.07 327.66C441.07 331.58 444.7 336.63 444.7 342.91L430.91 360.34C429.71 360.34 368.02 394.18 365.55 396.65L363.37 397.37L361.19 398.82C359.03 400.26 333.59 410.42 333.59 402.46L333.59 401Z" />
	<path id="TINTIDIH" fill-rule="evenodd" class="shp3" d="M671.28 194.03C665.87 200.8 652.17 215.82 644.41 215.82C632.77 215.82 619.72 202.02 613.19 195.48L589.22 187.5L547.83 179.51L539.11 175.15L539.11 154.09L550.01 142.47C553.04 142.47 585.68 122.05 589.22 118.51C618.83 118.51 657.88 118.34 684.36 131.58L699.61 149.73L704.69 166.44C704.69 172.15 703.24 179.77 703.24 183.86C689.54 183.86 683.43 194.76 671.28 194.76L671.28 194.03Z" />
	<path id="EDAL_" fill-rule="evenodd" class="shp1" d="M455.51 454.03C472.94 445.31 482.27 412.12 482.27 392.73C511.78 392.73 538.98 376.33 563.42 376.33L578.96 390.15L559.96 409.14C559.96 448.54 491.12 454.89 456.37 454.89L456.37 452.3C456.08 452.87 455.8 453.45 455.51 454.03Z" />
	<path id="TUMUNG_" fill-rule="evenodd" class="shp1" d="M493.29 335.03L545.09 301.36L560.63 279.78C560.63 217.24 663.08 181.36 715.16 181.36C747.27 213.47 677.27 315.17 646.96 315.17C646.96 346.6 599.43 391.14 570.99 391.14C570.99 354.48 495.88 370.71 495.88 332.44L493.29 335.03Z" />
	<path id="BADASIJULDA_" fill-rule="evenodd" class="shp4" d="M495.4 336.03C512 327.73 528.31 330.59 548.01 325.67C557.88 323.2 598.65 296.12 602.2 289L617.35 283.42C625.32 283.42 659.59 279.65 659.59 288.21C659.93 288.21 662.38 315.31 657.99 315.31L643.65 322.48C643.65 346.91 594.94 394.21 574.31 394.21C570.11 390.02 551.19 375.28 551.19 371.1C536.1 371.1 518.79 364.72 504.17 364.72C504.17 356.93 495.4 342.67 495.4 333.64L495.4 336.03L495.4 336.03Z" />
	<path id="POTKA" fill-rule="evenodd" class="shp1" d="M83.01 552.37C83.87 549.78 84.74 547.19 85.6 544.6L132.22 535.97L152.94 499.71C173.14 469.4 186.6 495.37 186.6 441.01C170.07 441.01 139.37 322.74 70.93 322.74C73.8 338.57 76.68 354.39 79.56 370.22L62.29 394.39C28.14 394.39 1 415.66 1 449.64L2.73 452.23C2.73 472.36 43.71 464.72 54.53 475.54L58.84 481.59C64.51 487.25 73.77 550.65 82.15 550.65L83.01 552.37Z" />
	<path id="_JUMAL_" fill-rule="evenodd" class="shp1" d="M394.38 456.78C391.68 445.96 390.79 436.83 390.79 425.69L395.18 422.51C409.95 422.51 446.98 419.3 446.98 401.39L462.92 396.6L482.45 397.4C483.65 407.63 484.84 417.86 486.04 428.09C482.32 431.81 484.23 452.4 477.67 452.4C477.14 453.06 476.6 453.73 476.07 454.39C450.56 454.39 421.08 453.59 394.78 453.59L393.58 455.98L394.38 456.78Z" />
	<path id="KENDMUNDI" fill-rule="evenodd" class="shp4" d="M567.93 252.34C587.58 248.41 611.4 262.03 623.72 257.92C643.02 251.49 655.64 241.18 673.94 241.18C677.36 244.61 684.3 252.02 684.3 257.12C718.81 257.12 723.35 223.05 723.35 190.17C718.64 190.17 709.94 170.21 693.86 174.23C688.44 175.59 657.38 189.99 654.01 193.36C627.65 193.36 571.92 225.04 571.92 249.15L566.34 253.14L567.93 252.34Z" />
	<path id="VIJADIH" fill-rule="evenodd" class="shp5" d="M251.33 458.85C244.95 457.93 219.19 452 219.19 449.29C216.88 449.29 194.12 452.96 211.74 449.38C229.37 445.79 182.28 450.48 172.53 450.48L162.16 457.05C162.16 460.9 156.63 480.95 145.57 480.95C145.57 501.06 136.86 527.29 161.12 541.27L168.38 547.24C168.38 551.02 179.59 562.77 183.93 562.77C194.56 556.65 208.11 555.01 225.41 555.01C225.41 554.17 256.56 542.46 259.62 542.46L261.7 536.49C254.86 536.49 235.78 518.56 235.78 512.59L255.48 498.26L255.48 461.23L248.22 458.84L251.33 458.84L251.33 458.85Z" />
	<path id="DHURIPADA" fill-rule="evenodd" class="shp6" d="M202.19 453.23C204.18 449.48 206.08 439.69 209.82 439.69C209.82 434.68 233.88 434.11 239.49 434.11L254.75 432.52C265.57 422.35 304.94 430.29 312.39 437.3C312.39 464.13 347.99 459.71 347.99 482.71C346.16 482.71 328.5 515.21 328.5 520.16C315.88 520.16 296.8 530.6 289.5 540.88C282 551.45 287.93 570.36 267.46 570.36L253.9 589.48C236.81 589.48 220.43 575.14 216.6 575.14L216.6 564.78C219.45 564.78 228.46 562.97 228.46 560L229.31 546.46C243.73 546.46 236.94 525.29 236.94 517.77C233.28 517.77 236.09 498.97 236.09 496.26C249.53 483.63 214.04 439.7 201.34 451.64L202.19 453.23Z" />
	<path id="KUJU_" fill-rule="evenodd" class="shp7" d="M11.52 414.62C18.54 409 25.09 402.42 34.39 398.64C42.14 395.5 52.29 394.65 61.63 394.65L79.78 367.42C77.6 352.03 70.7 337.01 70.7 323.84C111.15 326.02 103.91 338.89 119 353.98L125.9 367.78L132.79 383.03C132.19 392.35 131.58 401.67 130.98 410.99L133.52 416.43L128.44 422.61L130.98 424.79L129.16 426.24L132.07 428.42C132.07 432.31 130.65 448 127.35 451.29C119.95 451.29 109.49 452.81 104.11 458.19C96.84 458.19 81.21 455.66 76.88 456.74C71.3 458.13 68.45 459.64 62.35 459.64C58.36 455.65 57.99 447.84 57.99 442.22L49.64 430.23C45.17 430.23 30.86 427.02 26.4 424.79C20.05 421.61 16.79 414.62 11.52 414.98L11.52 414.62Z" />
	<text id="HERMA-2" style="transform: matrix(0.095,0,0,0.095,156.508,611.336)" >
		<tspan x="0" y="0" class="txt8">HERMA</tspan>
	</text>
	<text id="DUMARDIH-2" style="transform: matrix(0.084,0,0,0.084,455.331,48.881)" >
		<tspan x="0" y="0" class="txt9">DUMARDIH</tspan>
	</text>
	<text id="RAJNAGAR-3" style="transform: matrix(0.085,0,0,0.085,371.268,231.317)" >
		<tspan x="0" y="0" class="txt10">RAJNAGAR</tspan>
	</text>
	<text id="GOVINDPUR-2" style="transform: matrix(0.093,0,0,0.093,475.423,271.043)" >
		<tspan x="0" y="0" class="txt11">GOVINDPUR</tspan>
	</text>
	<text id="KURMA-2" style="transform: matrix(0.097,0,0,0.097,545.17,208.214)" >
		<tspan x="0" y="0" class="txt12">KURMA</tspan>
	</text>
	<text id="TINTIDIH-2" style="transform: matrix(0.088,0,0,0.088,604.294,157.3)" >
		<tspan x="0" y="0" class="txt13">TINTIDIH</tspan>
	</text>
	<text id="TUMUNG_2" style="transform: matrix(0.071,0,0,0.071,651.989,270.544)" >
		<tspan x="0" y="0" class="txt14">TUMUNG </tspan>
	</text>
	<text id="KUJU_2" style="transform: matrix(0.091,0,0,0.091,71.918,416.75)" >
		<tspan x="0" y="0" class="txt15">KUJU </tspan>
	</text>
	<text id="POTKA-2" style="transform: matrix(0.091,0,0,0.091,85.401,497.78)" >
		<tspan x="0" y="0" class="txt15">POTKA</tspan>
	</text>
	<text id="VIJADIH-2" style="transform: matrix(0.086,0,0,0.086,171.051,508.82)" >
		<tspan x="0" y="0" class="txt16">VIJADIH</tspan>
	</text>
	<text id="DHURIPADA-2" style="transform: matrix(0.082,0,0,0.082,259.485,496.341)" >
		<tspan x="0" y="0" class="txt17">DHURIPADA</tspan>
	</text>
	<text id="JONBANI_2" style="transform: matrix(0.078,0,0,0.078,321.653,552.454)" >
		<tspan x="0" y="0" class="txt18">JONBANI </tspan>
	</text>
	<text id="KATANGA_2" style="transform: matrix(0.081,0,0,0.081,70.591,286.626)" >
		<tspan x="0" y="0" class="txt19">KATANGA </tspan>
	</text>
	<text id="BANDU_2" style="transform: matrix(0.08,0,0,0.08,224.417,404.389)" >
		<tspan x="0" y="0" class="txt20">BANDU </tspan>
	</text>
	<text id="GAMAHARIA_" style="transform: matrix(0.079,0,0,0.079,245.922,281.403)" >
		<tspan x="0" y="0" class="txt20">GAMAHARIA </tspan>
	</text>
	<text id="_JUMAL_2" style="transform: matrix(0.1,-0.004,0.004,0.1,421.287,443.451)" >
		<tspan x="0" y="0" class="txt21"> JUMAL </tspan>
	</text>
	<text id="BADASIJULDA_2" style="transform: matrix(0.068,0,0,0.068,549.353,350.053)" >
		<tspan x="0" y="0" class="txt22">BADASIJULDA </tspan>
	</text>
	<text id="EDAL_2" style="transform: matrix(0.067,0,0,0.067,516.835,415.507)" >
		<tspan x="0" y="0" class="txt23">EDAL </tspan>
	</text>
	<text id="BANA-2" style="transform: matrix(0.097,0,0,0.097,486.215,126.314)" >
		<tspan x="0" y="0" class="txt24">BANA</tspan>
	</text>
	<text id="KENDMUNDI-2" style="transform: matrix(0.068,0,0,0.068,628.178,224.784)" >
		<tspan x="0" y="0" class="txt25">KENDMUNDI</tspan>
	</text>
	<text id="RAJNAGAR-4" style="transform: matrix(0.258,-0.103,0.103,0.258,348.712,423.815)" >
		<tspan x="0" y="0" class="txt26">RAJNAGAR</tspan>
	</text>
	<text id="GENGERULI-2" style="transform: matrix(0.095,0,0,0.095,644.39,83.933)" >
		<tspan x="0" y="0" class="txt8">GENGERULI</tspan>
	</text>
</svg>