<svg xmlns="http://www.w3.org/2000/svg" viewBox="0 0 854 1139" width="854" height="1139">
	<style>
		tspan { white-space:pre }
		.shp0 { fill: #edf8d1;stroke: #4da522;stroke-width: 2 } 
		.shp1 { fill: #edf8d1;stroke: #4da522;stroke-width: 3 } 
		.txt2 { font-size: 30px;fill: #000000;font-family: "" Microsoft  New  Tai  Lue"" } 
		.txt3 { font-size: 29px;fill: #000000;font-family: "" Microsoft  New  Tai  Lue"" } 
		.txt4 { font-size: 49px;fill: #000000;font-family: "" Microsoft  New  Tai  Lue"" } 
		.txt5 { font-size: 55px;fill: #000000;font-family: "" Microsoft  New  Tai  Lue"" } 
		.txt6 { font-size: 35px;fill: #000000;font-family: "" Microsoft  New  Tai  Lue"" } 
		.txt7 { font-size: 38px;fill: #000000;font-family: "" Microsoft  New  Tai  Lue"" } 
		.txt8 { font-size: 34px;fill: #000000;font-family: "" Microsoft  New  Tai  Lue"" } 
		.txt9 { font-size: 37px;fill: #000000;font-family: "" Microsoft  New  Tai  Lue"" } 
		.txt10 { font-size: 39px;fill: #000000;font-family: "" Microsoft  New  Tai  Lue"" } 
		.txt11 { font-size: 31px;fill: #000000;font-family: "" Microsoft  New  Tai  Lue"" } 
		.txt12 { font-size: 36px;fill: #000000;font-family: "" Microsoft  New  Tai  Lue"" } 
		.txt13 { font-size: 32px;fill: #000000;font-family: "" Microsoft  New  Tai  Lue"" } 
	</style>
	<path id="KAMALPUR" fill-rule="evenodd" class="shp0" d="M294.44 599.8C285.22 599.8 271.83 602.75 265.98 602.75C258.15 610.57 260.09 624.94 260.09 638.08C289.39 638.08 317.31 639.06 345.48 639.06L357.26 635.14C357.26 626 379.32 611.58 389.65 611.58C389.65 586.43 466.86 550.18 494.68 540.91C518.96 532.82 530.38 493.79 542.78 493.79L542.78 476.13C541.24 476.13 508.91 431.46 501.55 424.1L498.61 422.14C490.63 422.14 461.32 401.54 455.42 395.64L453.46 393.68L390.64 393.68C388.58 393.68 388.67 393.58 388.67 395.64L384.75 403.49C382.14 403.49 385.66 407.42 381.8 407.42C381.8 414.92 353.45 443.62 345.48 451.59C343.17 451.59 339.6 454.65 339.6 456.5L320.95 468.27C300.7 468.27 280.25 479.07 262.05 479.07L244.38 492.81C244.38 498.41 234.6 536.98 247.33 536.98C247.33 556 257.76 581.77 268.92 592.93L291.5 600.78L294.44 599.8Z" />
	<path id="Uperdugni" fill-rule="evenodd" class="shp0" d="M413.21 363.25C413.54 371.1 413.87 378.95 414.19 386.81L423.03 395.64C432.9 395.64 447.59 399.57 459.35 399.57C459.35 408.03 458.24 413.18 463.27 418.22L471.12 418.22C471.12 428.85 475.05 436.41 475.05 445.7C478.14 445.7 482.27 448.64 487.81 448.64C487.81 443.15 502.39 438.83 506.46 438.83L506.46 449.62L503.52 456.5L530.02 461.4L530.02 469.26L525.11 475.15L504.5 478.09L504.5 485.94C504.5 494.87 510.39 499.64 510.39 506.56C510.39 518.97 504.5 527.4 504.5 539.93C514.68 550.11 515.29 568.92 515.29 584.1C528.99 584.1 534.16 606.67 548.67 606.67C548.67 595.87 555.11 580.17 565.35 580.17C565.35 573.43 562.54 540.91 568.3 540.91L571.24 538.95L582.04 535.02L588.91 524.22C587.27 514.08 585.64 503.94 584 493.79C580.02 493.79 571.24 482.42 571.24 477.11L584.98 477.11C584.98 492.78 616.05 494.78 629.15 494.78C629.15 460.92 619.34 430.29 619.34 394.66C607.37 394.66 598.93 376.01 583.02 376.01L577.13 375.03C564.62 375.03 529.04 380.73 529.04 385.82L459.35 383.86C443.25 383.86 414.19 378.83 414.19 366.19C413.87 365.21 413.54 364.23 413.21 363.25Z" />
	<path id="Hudu" fill-rule="evenodd" class="shp1" d="M316.04 51.11C318.88 44 329.15 14.44 332.72 10.87C346.75 10.87 367.1 6.94 384.75 6.94C389.67 11.87 434.52 14.8 445.6 14.8C452.28 21.47 477.87 17.74 487.81 17.74C526.42 17.74 566.01 15.78 603.63 15.78L606.58 19.7L613.45 29.52C609.2 29.52 616.39 61.86 616.39 75.65C623.21 75.65 628.69 78.6 632.1 78.6C631.44 83.51 630.79 88.41 630.14 93.32L610.5 101.17C610.5 114.47 616.39 122.82 616.39 137.49L592.84 137.49L592.84 177.73C592.84 182.12 586.95 190.86 586.95 193.44L570.26 192.46C570.26 188.16 557.55 164.97 553.57 164.97C553.57 170.18 545.86 190.49 539.83 190.49L530.02 191.48L521.18 184.61C521.18 174.47 513.33 158.6 513.33 150.25C505.69 150.25 505.3 155.16 496.64 155.16C496.64 142.96 477.99 124.69 477.99 116.88L455.42 113.93C455.09 110.01 454.76 106.08 454.44 102.15L447.57 99.21L436.77 119.82L421.06 118.84C422.37 110.99 423.68 103.14 424.99 95.28C424.99 89.39 422.05 83.44 422.05 79.58L418.12 76.63L321.93 76.63C317.25 71.96 317.02 59.84 317.02 52.1L316.04 51.11Z" />
	<path id="MUNDATAND" fill-rule="evenodd" class="shp0" d="M585.97 14.8C610.5 14.8 627.59 7.93 648.79 7.93C648.79 11.85 653.69 21.74 653.69 24.61C671.84 24.61 671.86 10.87 689.03 10.87L701.79 36.39C714.94 36.39 728.95 33.45 738.11 33.45L744 37.37C745.63 54.71 747.27 72.05 748.9 89.39C756.61 89.39 768.53 102.96 768.53 110.99L757.74 125.71C757.41 136.84 757.08 147.96 756.76 159.08C763.09 165.42 768.53 202.69 768.53 215.03C771.89 215.03 785.22 226.52 785.22 229.76C785.55 237.28 785.88 244.81 786.2 252.33L780.31 266.07C778.09 268.3 765.59 280.59 765.59 280.8L753.81 279.82C753.16 276.87 752.5 273.93 751.85 270.98L736.14 270.98C736.14 251.95 721.42 246.87 721.42 230.74L701.79 237.61C694.23 237.61 686.26 233.68 682.16 233.68L673.32 245.46C665.4 245.46 650.41 252.33 636.03 252.33L627.19 244.48C627.19 226.72 615.41 215.35 615.41 197.37L616.39 196.38C627.83 196.38 637.07 201.29 651.73 201.29L655.66 196.38L658.6 179.7L656.64 177.73C649.94 177.73 617.36 134.55 607.56 134.55C605.92 131.27 604.29 128 602.65 124.73C603.63 102.48 604.62 80.23 605.6 57.98L598.73 28.54L590.87 19.7L587.93 14.8L585.97 14.8Z" />
	<path id="SINI" fill-rule="evenodd" class="shp0" d="M453.46 323C427.44 310 442.66 293.49 442.66 271.96L433.82 258.22C433.82 244.47 439.71 233.16 439.71 217.98C443.94 217.98 446.63 211.06 449.53 208.16C467.16 208.16 481.26 198.35 495.66 198.35L608.54 208.16C613.19 209.71 635.04 222.89 635.04 222.89C635.04 234.96 638.97 246.99 638.97 261.17C634.91 265.23 632.1 279.13 632.1 284.72C625.81 284.72 616.39 305.27 616.39 310.24C598.81 327.83 564.09 337.73 535.91 337.73C521.33 323.15 494.13 328.89 474.07 328.89L454.44 323L453.46 323Z" />
	<path id="CHOTADAWAN" fill-rule="evenodd" class="shp0" d="M453.46 995.37C448.22 992.75 442.99 990.13 437.75 987.52C437.75 969.13 440.23 963.5 428.92 952.18L425.97 942.37C425.97 928.16 427.94 912.07 427.94 899.18L428.92 899.18C435.54 892.56 450.91 894.85 456.4 889.36L644.86 885.44L663.51 898.2C663.51 912.89 674.74 930.04 684.12 939.42C684.12 950.89 688.05 961.63 688.05 974.76C685.1 983.27 682.16 991.77 679.21 1000.28L660.56 1029.72C653.04 1034.96 645.51 1040.19 637.99 1045.43C623.82 1045.43 616.2 1052.3 600.69 1052.3C600.69 1044.45 583.45 1042.48 577.13 1042.48C565.19 1054.43 547.25 1071.93 527.07 1071.93C519.21 1064.07 516.28 1039.7 516.28 1029.72C504.62 1029.72 452.47 1007.02 452.47 997.33C452.8 996.67 453.13 996.03 453.46 995.37Z" />
	<path id="NUAGAON" fill-rule="evenodd" class="shp0" d="M538.85 790.22C538.85 774.11 535.41 742.13 522.16 742.13L490.75 741.15C490.75 737.3 473.03 735.26 469.16 735.26C453.18 735.26 407.32 732.24 407.32 749.98C404.15 749.98 404.38 767.11 404.38 770.59C405.69 783.03 407 795.46 408.3 807.89C403.76 812.43 403.4 826.71 403.4 833.41C401.89 833.41 383.15 843.23 376.89 843.23C376.89 849.27 372.97 856.07 372.97 863.84L390.64 878.56C390.64 888.18 403.9 928.62 415.18 928.62C426.05 939.49 451.59 924.7 462.29 924.7C462.29 917.25 484.56 911.94 493.7 911.94L595.78 914.88C605.19 914.88 633.08 912.56 633.08 903.1C633.98 903.1 637.95 885.85 641.91 883.47C632.47 879.7 646.82 880.58 646.82 861.88L670.38 846.17C670.38 842.32 671.86 827.52 668.42 827.52C668.42 821.41 642.47 812.8 636.03 812.8C616.71 793.49 570.26 791.21 538.85 791.21L538.85 790.22Z" />
	<path id="PATHANMARA" fill-rule="evenodd" class="shp0" d="M198.25 763.72C200.15 763.25 256.83 731.65 259.11 729.37L296.41 723.48L326.84 723.48C366.17 723.48 406.15 721.33 430.88 746.05C430.88 790.87 419.97 808.76 448.55 837.34C448.55 840.56 449.96 858.93 446.58 858.93C446.58 862.05 428.06 873.66 425.97 873.66C425.97 884.28 431.09 923.72 418.12 923.72L397.51 924.7C385.52 912.71 329.79 902.12 310.15 902.12L269.91 904.08C258.08 904.08 221.81 906.85 221.81 900.16C214.83 900.16 216.9 877.69 216.9 872.67C224.29 872.67 226.72 835.59 226.72 824.58L211.01 791.21L201.2 766.67L198.25 763.72Z" />
	<path id="MURKUM" fill-rule="evenodd" class="shp0" d="M198.25 904.08C205.56 904.08 233.59 890.24 233.59 882.49C247.26 882.49 271.12 877.35 279.72 868.75L320.95 866.79C320.95 872.7 337.72 877.67 341.56 881.51L387.69 887.4C395.7 895.41 419.83 913.9 433.82 913.9L437.75 917.83C449.95 917.83 450.77 951.2 461.31 951.2C461.31 961.86 469.25 1035.61 450.51 1035.61C450.51 1040.6 443 1048.37 439.71 1048.37C436.77 1050.99 433.82 1053.61 430.88 1056.23C421.12 1065.98 404.57 1043.47 400.45 1043.47C395.77 1043.47 389.4 1068.26 385.73 1071.93C384.75 1072.59 383.77 1073.24 382.78 1073.89C378.53 1075.53 374.28 1077.17 370.02 1078.8C349.75 1078.8 324.44 1082.73 306.22 1082.73C306.22 1126.37 258.69 1152.99 225.74 1120.03C225.74 1110.08 219.85 1100.88 219.85 1089.6C225.01 1089.6 238.5 1050.94 238.5 1043.47C233.26 1032.99 228.03 1022.52 222.79 1012.06L222.79 972.79C212.21 962.21 199.23 920.91 199.23 906.05L198.25 904.08Z" />
	<path id="GOVINDPUR" fill-rule="evenodd" class="shp0" d="M198.25 762.74C218.74 772.98 253.81 772.95 271.87 754.89L288.55 749.98C301.39 749.98 321.33 758.69 326.84 756.85C347.04 750.12 359.11 744.09 385.73 744.09L399.47 738.2C399.8 734.93 400.12 731.66 400.45 728.39C400.45 727.93 392.84 710.96 391.62 709.74C391.62 685.28 398.49 663.86 398.49 639.06C393.08 633.66 388.8 630.23 377.88 630.23C377.88 629.05 348.03 610.6 342.54 610.6C342.54 591.65 276.01 583.88 263.03 596.86C258.22 596.86 233.59 607.56 233.59 611.58L193.34 613.54L190.4 615.51L161.93 648.88L129.54 653.79L68.69 652.81L65.74 654.77L52 672.44C52 692.68 70.84 713.66 91.26 713.66L99.11 721.52C99.11 749.34 152.1 729.37 161.93 729.37C161.93 725.65 176.66 716.03 176.66 709.74L177.64 708.76L200.21 706.79L201.2 707.77C201.2 729.74 195.31 739.31 195.31 758.81L200.21 762.74L198.25 762.74Z" />
	<path id="Pandra" fill-rule="evenodd" class="shp0" d="M317.02 608.64C327.76 603.27 350.76 591.95 361.19 591.95C369.59 583.55 393.58 555.12 393.58 541.89C404.36 541.89 409.25 539.96 415.18 534.04L446.58 533.06C446.58 515.68 492.72 516.75 492.72 501.65L496.64 498.7C501.59 498.7 514.31 496.62 514.31 501.65C514.64 503.28 514.97 504.92 515.29 506.56C515.29 522.01 520.2 531.88 520.2 548.76C520.2 558.4 526.99 578.21 535.91 578.21L547.69 601.77C548.01 609.95 548.34 618.13 548.67 626.3L535.91 632.19L506.46 630.23C501.42 625.19 466.22 600.06 466.22 593.91L462.29 593.91C462.29 601.84 433.94 632.19 420.08 632.19C420.08 636.73 413.89 638.08 408.3 638.08C408.3 649.23 393.82 647.9 383.77 647.9L376.89 643.97C350.24 643.97 334.91 639.29 317.02 621.4C317.02 617.74 318 609.97 318 608.64L317.02 608.64Z" />
	<path id="Mohitpur" fill-rule="evenodd" class="shp0" d="M423.03 120.07C416.57 145.89 426.95 174.79 426.95 198.59L435.3 216.75C439.67 216.75 458.36 216.02 458.36 211.84L507.93 211.84C511.68 215.59 566.96 218.71 577.62 218.71C586.75 218.71 624.74 222.12 624.74 212.33C637.96 212.33 654.64 213.84 662.53 205.95C662.53 197.87 665.96 187.88 665.96 177.49C663.3 177.49 633.63 146.28 626.7 141.66C615.61 134.27 601.89 134.3 586.95 134.3C586.95 144.13 581.06 156.88 581.06 168.16C563.74 168.16 561.19 156.39 553.08 156.39C543.17 161.34 537.67 163.75 522.16 163.75C522.16 140.89 477.5 129.9 477.5 110.74L463.76 110.25C463.76 81.47 406.6 105.11 423.03 121.54L423.03 120.07Z" />
	<path id="Murup" fill-rule="evenodd" class="shp0" d="M777.37 223.87L797 232.7C797 257.03 778.35 261.38 778.35 289.63C778.35 294.34 776.36 313.19 781.3 313.19L794.06 321.04C794.71 324.97 795.36 328.89 796.02 332.82L761.66 333.8C756.58 333.8 753.09 341.4 749.89 344.6C749.89 372.03 759.7 390.87 759.7 417.23L747.92 423.12L710.62 425.09C704.89 419.35 693.94 411.39 693.94 401.53L690.01 401.53C686.19 405.35 680.19 410.93 680.19 419.2L660.56 430.98L623.26 430.98C623.26 415.39 583.38 385.82 570.26 385.82C570.26 385.82 558.06 397.6 557.5 397.6C557.5 402.69 531.85 394.66 524.13 394.66L491.74 395.64C474.37 395.64 409.29 407.21 409.29 381.9C409.29 358.03 423.03 348.98 423.03 325.95L433.82 299.45C458.28 299.45 473.03 296.5 495.66 296.5C495.66 287.66 518.26 284.72 526.09 284.72L529.04 288.65C531 301.08 532.96 313.52 534.92 325.95L549.65 326.93L560.45 319.08C581.27 319.08 592.67 301.41 614.43 301.41C614.43 265.1 621.79 241.54 658.6 241.54C672.32 227.82 697.06 222.89 719.46 222.89C729.97 222.89 770.67 234.49 779.33 225.83L777.37 223.87Z" />
	<path id="Itakudar" fill-rule="evenodd" class="shp0" d="M376.89 657.71C379.51 652.81 382.13 647.9 384.75 642.99C399.11 642.99 432.63 607.66 443.64 607.66C443.64 600.16 455.22 590.97 460.33 590.97L471.12 589.99C487.93 606.8 502.49 612.56 535.91 612.56L555.54 619.43L566.33 648.88C566.66 667.86 566.99 686.83 567.32 705.81L550.63 731.33L539.83 736.24C533.38 736.24 522.16 730.82 522.16 734.28C522.16 734.28 507.44 759.9 507.44 770.59L494.68 770.59L492.72 768.63L489.77 751.94L479.96 747.04C480 747.56 479.92 748.09 479.74 748.59C479.56 749.08 479.27 749.53 478.9 749.9C478.52 750.28 478.08 750.56 477.58 750.75C477.09 750.93 476.56 751 476.03 750.96L455.42 749.98C447.01 741.57 405.79 739.18 391.62 739.18C391.62 737.29 387.3 725.44 385.73 725.44C385.73 695.85 375.91 684.72 375.91 655.75C376.24 656.41 376.57 657.06 376.89 657.71Z" />
	<text id="HUDU_" style="transform: matrix(0.546,0,0,0.546,501.061,93.436)" >
		<tspan x="0" y="0" class="txt2">HUDU</tspan>
	</text>
	<text id="SINI-2" style="transform: matrix(0.571,0,0,0.571,534.434,259.839)" >
		<tspan x="0" y="0" class="txt3">SINI</tspan>
	</text>
	<text id="MUNDATAND-2" style="transform: matrix(0.281,-0.175,0.175,0.281,646.347,145.502)" >
		<tspan x="0" y="0" class="txt4">MUNDATAND</tspan>
	</text>
	<text id="UPERDUGNI_" style="transform: matrix(0.297,0,0,0.297,518.585,434.063)" >
		<tspan x="0" y="0" class="txt5">UPERDUGNI</tspan>
	</text>
	<text id="KAMALPUR-2" style="transform: matrix(0.461,0,0,0.461,339.105,509.198)" >
		<tspan x="0" y="0" class="txt6">KAMALPUR</tspan>
	</text>
	<text id="GOVINDPUR-2" style="transform: matrix(0.427,0,0,0.427,246.839,679.602)" >
		<tspan x="0" y="0" class="txt7">GOVINDPUR</tspan>
	</text>
	<text id="PATHANMARA_" style="transform: matrix(0.484,0,0,0.484,272.85,823.205)" >
		<tspan x="0" y="0" class="txt8">PATHANMARA</tspan>
	</text>
	<text id="NUAGAON-2" style="transform: matrix(0.437,0,0,0.437,486.338,858.647)" >
		<tspan x="0" y="0" class="txt9">NUAGAON</tspan>
	</text>
	<text id="CHOTADAWAN_" style="transform: matrix(0.415,0,0,0.415,498.117,959.868)" >
		<tspan x="0" y="0" class="txt10">CHOTADAWAN</tspan>
	</text>
	<text id="MURKUM-2" style="transform: matrix(0.529,0,0,0.529,309.658,977.648)" >
		<tspan x="0" y="0" class="txt11">MURKUM</tspan>
	</text>
	<text id="PANDRA-2" style="transform: matrix(0.462,0,0,0.462,426.954,573.058)" >
		<tspan x="0" y="0" class="txt6">PANDRA</tspan>
	</text>
	<text id="ITAKUDAR_" style="transform: matrix(0.471,0,0,0.471,445.113,683.337)" >
		<tspan x="0" y="0" class="txt6">ITAKUDAR</tspan>
	</text>
	<text id="MURUP_" style="transform: matrix(0.458,0,0,0.458,630.136,352.521)" >
		<tspan x="0" y="0" class="txt12">MURUP</tspan>
	</text>
	<text id="MOHITPUR-2" style="transform: matrix(0.519,0,0,0.519,466.216,192.995)" >
		<tspan x="0" y="0" class="txt13">MOHITPUR</tspan>
	</text>
</svg>